<?xml version="1.0" encoding="utf-8"?>
<!-- Generator: Adobe Illustrator 27.5.0, SVG Export Plug-In . SVG Version: 6.00 Build 0)  -->
<svg version="1.1" xmlns="http://www.w3.org/2000/svg" xmlns:xlink="http://www.w3.org/1999/xlink" x="0px" y="0px"
	 viewBox="0 0 750 500" style="enable-background:new 0 0 750 500;" xml:space="preserve">
<g id="background">
	<rect x="0.002" y="-0.003" style="fill:#F2F2F2;" width="750" height="500"/>
</g>
<g id="objects">
	<g>
		<path style="fill:#EA575F;" d="M129.672,151.371c-0.375-6.373,0-33.549,0-36.174c0-2.624,2.623-2.815,11.245-3
			c8.621-0.188,40.856,0.564,45.168,0.939c4.312,0.374,5.814,1.123,5.813,10.494c-0.001,9.371-0.376,29.239-0.376,29.239
			L129.672,151.371z"/>
		<path style="fill:#D7DFF2;" d="M48.422,408l147.787,0.708V150.433c-10.122,0-74.596,0.752-76.471,1.501
			c-1.874,0.749,0,79.094,0,79.094c-18.367,0.749-70.608,1.849-70.983,2.973C48.379,235.126,48.046,404.252,48.422,408z"/>
		<g>
			<g>
				<path style="fill:#1E194A;" d="M119.238,231.027c0.851,21.805,0.766,43.681,1.088,65.497c0.459,31.098,0.898,62.194,1.33,93.292
					c0.089,6.395,0.178,12.789,0.265,19.184c0.009,0.645,1.009,0.646,1,0c-0.269-19.593-0.543-39.185-0.82-58.777
					c-0.45-31.786-0.899-63.571-1.413-95.356c-0.129-7.942-0.141-15.901-0.451-23.839
					C120.213,230.385,119.213,230.382,119.238,231.027L119.238,231.027z"/>
			</g>
		</g>
		<g>
			<g>
				<path style="fill:#1E194A;" d="M49.088,320.167c21.057-0.24,42.113-0.48,63.17-0.721c26.669-0.304,53.337-0.608,80.006-0.912
					c1.19-0.014,2.379-0.027,3.569-0.041c0.645-0.008,0.645-1.008,0-1c-21.057,0.24-42.113,0.48-63.17,0.721
					c-26.669,0.304-53.337,0.608-80.006,0.912c-1.19,0.014-2.379,0.027-3.569,0.041C48.443,319.175,48.443,320.175,49.088,320.167
					L49.088,320.167z"/>
			</g>
		</g>
		<g>
			<g>
				<path style="fill:#1E194A;" d="M123.486,231.527c22.991-0.497,45.982-0.994,68.973-1.491c0.125-0.003,0.25-0.005,0.375-0.008
					c0.644-0.014,0.645-1.014,0-1c-22.991,0.497-45.982,0.994-68.973,1.491c-0.124,0.003-0.249,0.005-0.374,0.008
					C122.842,230.541,122.841,231.542,123.486,231.527L123.486,231.527z"/>
			</g>
		</g>
		<g>
			<path style="fill:#1E194A;" d="M151.124,165.651c-4.043,0-5.497,0.646-5.337,2.748c0.161,2.103,1.778,2.425,5.982,2.425
				c4.205,0,9.219-0.16,11.644-0.16c2.426,0,3.721-1.294,3.558-2.588c-0.162-1.294-0.486-2.265-3.882-2.265
				C159.693,165.811,154.845,165.651,151.124,165.651z"/>
		</g>
		<g>
			<path style="fill:#1E194A;" d="M151.405,256.459c-4.043,0-5.497,0.645-5.337,2.749c0.161,2.102,1.778,2.425,5.983,2.425
				c4.205,0,9.217-0.16,11.642-0.16c2.425,0,3.721-1.296,3.558-2.589c-0.162-1.292-0.485-2.263-3.881-2.263
				C159.976,256.621,155.126,256.459,151.405,256.459z"/>
		</g>
		<g>
			<path style="fill:#1E194A;" d="M76.06,256.459c-4.043,0-5.496,0.645-5.337,2.749c0.162,2.102,1.778,2.425,5.984,2.425
				c4.204,0,9.216-0.16,11.642-0.16c2.426,0,3.721-1.296,3.558-2.589c-0.162-1.292-0.484-2.263-3.881-2.263
				C84.63,256.621,79.78,256.459,76.06,256.459z"/>
		</g>
		<g>
			<path style="fill:#1E194A;" d="M80.276,337.709c-4.042,0-5.496,0.644-5.336,2.748c0.161,2.102,1.778,2.425,5.982,2.425
				c4.205,0,9.217-0.159,11.643-0.159c2.426,0,3.721-1.295,3.558-2.589c-0.162-1.292-0.485-2.264-3.881-2.264
				S83.996,337.709,80.276,337.709z"/>
		</g>
		<g>
			<path style="fill:#1E194A;" d="M151.124,336.584c-4.043,0-5.497,0.645-5.337,2.749c0.161,2.102,1.778,2.425,5.982,2.425
				c4.205,0,9.219-0.161,11.644-0.161c2.426,0,3.721-1.294,3.558-2.588c-0.162-1.292-0.486-2.264-3.882-2.264
				C159.693,336.745,154.845,336.584,151.124,336.584z"/>
		</g>
		<path style="fill:#8CBCC2;" d="M79.349,198.445c-7.158-1.82-10.558-5.702-13.955-11.161c-3.396-5.46-3.309-9.692-0.76-9.816
			c2.551-0.123,4.763,3.261,8.645,9.813c3.886,6.557,6.191,8.857,6.191,8.857c-2.913-7.523-4.732-14.314-5.098-28.392
			c-0.363-14.072,2.932-14.946,4.127-14.923c2.161,0.045,4.868,13.264,5.113,21.271c0.243,8.006-0.384,20.953-0.384,20.953
			c3.156-5.945,2.665-17.041,6.428-25.171c3.76-8.126,8.684-9.296,10.441-7.466c2.79,2.91-6.555,21.838-14.075,33.243
			c8.25-5.338,16.987-19.292,19.411-18.2c2.426,1.091,1.093,12.377-16.742,21.476C78.744,200.265,79.349,198.445,79.349,198.445z"/>
		<g>
			<path style="fill:#1E194A;" d="M63.21,199.295c-0.546,8.373,1.161,30.723,13.232,32.481c4.637,0.654,10.4,0.983,16.023-0.33
				c6.733-2.911,10.904-11.038,10.538-31.786c0-1.457-0.423-3.035-2.787-3.035c-2.367,0-31.852,0-33.486,0
				C65.092,196.625,63.21,197.717,63.21,199.295z"/>
		</g>
		<g>
			<g>
				<path style="fill:#1E194A;" d="M130.608,123.943c4.686,0.099,9.246,1.131,13.955,1.169c5.111,0.042,10.227-0.116,15.336-0.232
					c10.156-0.231,20.35-0.34,30.497-0.751c0.643-0.026,0.645-1.026,0-1c-9.827,0.397-19.697,0.494-29.533,0.728
					c-5.116,0.122-10.231,0.226-15.349,0.255c-5.033,0.029-9.903-1.064-14.906-1.17C129.963,122.93,129.964,123.93,130.608,123.943
					L130.608,123.943z"/>
			</g>
		</g>
		<g>
			<g>
				<path style="fill:#1E194A;" d="M153.411,124.005c-0.11-1.085-0.888-3.006,0.603-3.379c1.344-0.337,2.895-0.141,4.268-0.112
					c3.329,0.069,6.668,0.214,9.999,0.243c-0.166-0.166-0.333-0.333-0.5-0.5c-0.004,1.261-0.032,2.497-0.188,3.749
					c-0.079,0.639,0.922,0.631,1,0c0.155-1.252,0.184-2.488,0.188-3.749c0.001-0.274-0.228-0.498-0.5-0.5
					c-4.231-0.036-8.451-0.332-12.685-0.273c-0.999,0.013-2.462,0.032-3.225,0.795c-0.861,0.861-0.055,2.786,0.04,3.728
					C152.476,124.64,153.476,124.646,153.411,124.005L153.411,124.005z"/>
			</g>
		</g>
	</g>
	<g>
		<g>
			<path style="fill:#1E194A;" d="M39.095,409.394c10.722,0,21.443,0,32.165,0c27.984,0,55.968,0,83.952,0
				c38.975,0,77.95,0,116.925,0c43.694,0,87.388,0,131.083,0c42.142,0,84.283,0,126.426,0c34.318,0,68.637,0,102.955,0
				c20.223,0,40.446,0,60.669,0c2.866,0,5.733,0,8.599,0c0.645,0,0.645-1,0-1c-10.722,0-21.443,0-32.165,0
				c-27.984,0-55.968,0-83.952,0c-38.975,0-77.95,0-116.925,0c-43.694,0-87.389,0-131.083,0c-42.142,0-84.284,0-126.426,0
				c-34.318,0-68.637,0-102.955,0c-20.223,0-40.446,0-60.669,0c-2.866,0-5.733,0-8.599,0
				C38.45,408.394,38.45,409.394,39.095,409.394L39.095,409.394z"/>
		</g>
	</g>
	<g>
		<path style="fill:#78BAC2;" d="M206.613,135.439c0.188,4.123,0,131.104,0,157.344c0,26.238,2.53,89.589,2.53,98.211
			c0,8.623-1.499,10.495-0.375,11.246c1.124,0.75,7.121,1.125,6.747-1.125c-0.375-2.248-2.998-97.461-3.747-112.83
			c-0.751-15.369-0.992-105.964-1.407-113.112c-0.703-12.089,0.854-36.356,0-40.204C210.08,133.703,206.707,134.222,206.613,135.439
			z"/>
		<path style="fill:#78BAC2;" d="M211.018,398.117c-5.997,0.561-18.368,6.745-27.177,12.181c-8.809,5.436-8.249,6.936-8.436,8.623
			c-0.189,1.688,18.933,1.499,36.737,1.499c17.806,0,33.173,0.471,33.548-0.653c0.299-0.89,0.843-3.749-2.53-6.186
			C239.784,411.143,221.889,398.678,211.018,398.117z"/>
		<path style="fill:#78BAC2;" d="M279.38,175.453c-10.824-11.245-12.089-26.989-0.561-35.704c11.526-8.716,25.021-7.31,35.423,9.839
			C304.965,156.336,282.474,174.61,279.38,175.453z"/>
		<path style="fill:#78BAC2;" d="M279.003,142.707c-4.156-3.623-29.122-35.538-30.313-36.789c-1.876-2.811,0.75-4.779,2.813-2.717
			c1.033,1.035,30.355,37.345,30.355,37.345L279.003,142.707z"/>
		<path style="fill:#78BAC2;" d="M200.099,151.556c-2.353,2.288,0.142,5.624,2.813,3.374c2.67-2.248,27.27-21.787,33.315-26.849
			c6.044-5.061,19.941-14.946,22.069-16.587c4.92-3.795,4.029-4.777,3.327-5.48c-0.703-0.703-2.203-0.284-6.842,3.513
			C250.143,113.321,205.159,146.636,200.099,151.556z"/>
		<g>
			<path style="fill:#1E194A;" d="M208.394,143.684c1.968-0.141,3.794,1.407,4.076,3.375c0.401,2.817-3.199,5.483-5.618,3.846
				C204.128,149.061,204.574,143.684,208.394,143.684z"/>
		</g>
		<g>
			<path style="fill:#1E194A;" d="M258.575,110.65c-1.074-3.092-5.59-3.495-6.967-0.454c-0.032,0.068-0.059,0.135-0.084,0.202
				c-0.03,0.078-0.068,0.148-0.095,0.229l0.037-0.048c-0.285,0.901-0.191,1.934,0.362,2.884
				C254.22,117.117,259.841,114.868,258.575,110.65z"/>
		</g>
	</g>
	<g>
		<path style="fill:#D7DFF2;" d="M321.863,64.74c-0.61,4.309-0.295,22.303,0.141,34.591c0.434,12.287-0.034,28.48,0.456,29.874
			c5.515,0.98,81.219,1.062,85.716,0.982c1.208,0.025,1.794-3.075,1.509-14.322c-0.281-11.247-0.499-50.51-0.662-51.031
			C408.862,64.311,324.307,63.753,321.863,64.74z"/>
		<path style="fill:#F2F2F2;" d="M327.726,69.618c-0.707,9.063,1.889,33.764,1.77,39.468c-0.119,5.705-0.348,13.811-0.348,13.811
			l75.55-0.045c-0.027-11.154-0.45-52.929-0.45-52.929L327.726,69.618z"/>
		<g>
			<g>
				<path style="fill:#1E194A;" d="M349.393,80.169c6.257,0.116,12.512,0.002,18.765,0.313c2.702,0.135,5.381,0.035,8.079,0.07
					c0.894,0.012,2.536,0.268,3.255-0.428c0.464-0.449-0.244-1.156-0.707-0.707c-0.58,0.562-3.383,0.128-4.205,0.172
					c-2.747,0.147-5.513-0.064-8.256-0.198c-5.637-0.275-11.29-0.119-16.931-0.223C348.748,79.157,348.749,80.157,349.393,80.169
					L349.393,80.169z"/>
			</g>
		</g>
		<g>
			<g>
				<path style="fill:#1E194A;" d="M356.563,84.645c4.555,0.073,9.109-0.126,13.661,0.112c0.645,0.034,0.642-0.966,0-1
					c-4.552-0.238-9.106-0.039-13.661-0.112C355.918,83.634,355.919,84.634,356.563,84.645L356.563,84.645z"/>
			</g>
		</g>
		<g>
			<g>
				<path style="fill:#1E194A;" d="M335.97,91.628c4.479-0.968,9.476-0.278,14.051-0.422c4.72-0.149,9.44-0.336,14.162-0.417
					c4.981-0.086,9.963-0.01,14.944-0.074c4.963-0.063,9.876-0.268,14.837,0.072c0.42,0.029,0.684-0.578,0.353-0.854
					c-0.185-0.155-0.334-0.22-0.563-0.309c-0.602-0.235-0.859,0.732-0.266,0.964c0.04,0.018,0.081,0.035,0.121,0.052
					c0.118-0.285,0.235-0.569,0.354-0.854c-4.958-0.34-9.875-0.155-14.837-0.072c-5.314,0.089-10.628,0-15.941,0.091
					c-4.7,0.081-9.398,0.281-14.097,0.429c-4.406,0.139-9.059-0.507-13.385,0.429C335.074,90.801,335.341,91.765,335.97,91.628
					L335.97,91.628z"/>
			</g>
		</g>
		<g>
			<g>
				<path style="fill:#1E194A;" d="M335.997,97.185c4.969,0.118,9.956,0.544,14.926,0.428c4.245-0.1,8.365-0.474,12.618-0.111
					c0.643,0.055,0.638-0.946,0-1c-3.918-0.334-7.77-0.17-11.684,0.069c-5.258,0.32-10.599-0.261-15.86-0.385
					C335.352,96.169,335.353,97.169,335.997,97.185L335.997,97.185z"/>
			</g>
		</g>
		<g>
			<g>
				<path style="fill:#1E194A;" d="M367.738,97.337c8.824-0.665,17.952-0.471,26.779,0.034c0.645,0.037,0.641-0.963,0-1
					c-8.827-0.505-17.955-0.7-26.779-0.034C367.1,96.385,367.095,97.385,367.738,97.337L367.738,97.337z"/>
			</g>
		</g>
		<g>
			<g>
				<path style="fill:#1E194A;" d="M349.431,103.171c8.3-0.278,16.654-0.163,24.956-0.001c0.645,0.013,0.644-0.987,0-1
					c-8.302-0.162-16.656-0.277-24.956,0.001C348.788,102.192,348.786,103.192,349.431,103.171L349.431,103.171z"/>
			</g>
		</g>
		<g>
			<g>
				<path style="fill:#1E194A;" d="M380.095,115.755c-0.242-2.376,3.006-3.764,4.791-4.649c0.322-0.16,4.249-1.68,3.029,0.376
					c-0.617,1.041-1.734,1.917-2.699,2.606c-0.265,0.181-0.541,0.343-0.828,0.486c-0.282-0.212-0.565-0.424-0.847-0.637
					c0.29-0.251,0.604-0.468,0.94-0.65c0.878-0.526,1.871-0.868,2.843-1.174c1.08-0.34,3.294-0.59,2.391,1.193
					c-0.458,0.903-1.181,1.682-1.832,2.449c-0.361,0.425,0.089,1.069,0.605,0.785c2.186-1.202,7.584-0.88,8.723-3.459
					c0.258-0.584-0.604-1.094-0.863-0.505c-0.533,1.207-3.199,1.532-4.339,1.825c-1.348,0.346-2.793,0.599-4.024,1.276
					c0.201,0.262,0.403,0.523,0.605,0.785c0.84-0.988,2.821-2.879,2.446-4.367c-0.389-1.541-2.445-1.337-3.651-1.039
					c-1.506,0.372-3.983,1.143-4.866,2.531c-0.521,0.82-0.206,2.355,1.055,2.223c1.79-0.188,8.064-4.794,4.775-6.484
					c-1.432-0.735-3.827,0.837-5.045,1.461c-1.859,0.952-4.451,2.579-4.208,4.967C379.159,116.39,380.16,116.396,380.095,115.755
					L380.095,115.755z"/>
			</g>
		</g>
		<path style="fill:#EA575F;" d="M365.612,108.359c-1.924-1.082-3.624-0.373-5.338,0.928c-2.766,2.022-2.964,5.287-0.154,7.427
			c3.314,2.746,11.396,0.833,8.8-5.313c-0.743-1.651-2.765-4.219-4.724-3.516"/>
	</g>
	<g>
		<path style="fill:#AABBE3;" d="M549.6,66.341c-0.509,11.687-0.677,51.576-1.186,73.934c-0.507,22.358,1.863,60.217,2.201,75.801
			c0.339,15.582-0.085,44.885,0.593,45.901c0.678,1.016,39.044,0.849,67.162,1.186c28.116,0.339,70.801-1.102,77.914-1.441
			c7.113-0.339,9.063-0.338,8.386-10.162c-0.679-9.825-2.456-177.779-2.796-183.188c-0.254-4.065-2.539-3.387-6.943-3.387
			c-4.405,0-131.44,0-137.2,0.338C551.97,65.661,549.938,65.492,549.6,66.341z"/>
		<path style="fill:#F2F2F2;" d="M564.167,251.813c9.908,0.255,122.463-1.27,126.274-1.27c3.811,0,3.811,0,4.063-2.031
			c0.256-2.033-3.302-115.858-3.302-121.956c0-6.098-1.525-47.767-1.778-49.035c-0.254-1.271,0-2.032-4.828-1.778
			c-4.827,0.252-117.889,0.252-120.177,0.507c-2.286,0.255-3.81,0.255-3.81,1.524c0,1.271-0.254,83.337,0,92.736
			c0.253,9.402,2.541,75.969,2.541,78.51C563.15,251.56,563.15,251.304,564.167,251.813z"/>
		<path style="fill:#D7DFF2;" d="M559.762,82.092c84.353,1.017,133.897-1.271,133.897-1.271s-3.557,7.623-4.573,7.623
			c-1.016,0-128.815,0.932-130.846,0.932C556.206,89.376,558.54,82.078,559.762,82.092z"/>
		<path style="fill:#D7DFF2;" d="M560.611,98.692c84.352,1.016,133.301-2.119,133.301-2.119s-3.556,7.623-4.573,7.623
			c-1.016,0-128.728-0.932-130.762-0.932C556.545,103.265,559.389,98.677,560.611,98.692z"/>
		<path style="fill:#D7DFF2;" d="M560.271,113.597c84.352,1.018,133.896-1.271,133.896-1.271s-3.559,7.622-4.574,7.622
			c-1.016,0-128.815,0.933-130.847,0.933C556.715,120.881,559.049,113.583,560.271,113.597z"/>
		<path style="fill:#D7DFF2;" d="M560.102,130.028c84.352,1.017,134.318-1.949,134.318-1.949s-3.557,7.622-4.572,7.622
			c-1.018,0-129.576,0.256-131.609,0.256C557.731,135.618,558.88,130.013,560.102,130.028z"/>
		<path style="fill:#D7DFF2;" d="M560.778,145.102c84.353,1.017,133.814-0.338,133.814-0.338s-1.526,5.081-2.542,5.081
			c-1.016,0-130.763,2.54-132.795,2.54C557.222,152.386,559.556,145.088,560.778,145.102z"/>
		<path style="fill:#D7DFF2;" d="M561.032,160.855c84.353,1.016,133.897-1.27,133.897-1.27s-3.557,7.621-4.572,7.621
			c-1.018,0-128.814,0.933-130.848,0.933S559.81,160.84,561.032,160.855z"/>
		<path style="fill:#D7DFF2;" d="M561.287,176.607c84.351,1.017,132.628,0.509,132.628,0.509s-2.289,5.843-3.307,5.843
			c-1.016,0-128.814,0.932-130.845,0.932C557.73,183.891,560.063,176.593,561.287,176.607z"/>
		<path style="fill:#D7DFF2;" d="M561.965,192.36c84.353,1.017,132.118-1.354,132.118-1.354s-3.387,7.791-4.403,7.791
			s-128.731,0.847-130.764,0.847C557.899,199.306,560.743,192.347,561.965,192.36z"/>
		<path style="fill:#D7DFF2;" d="M561.794,208.112c84.353,1.017,133.896-1.27,133.896-1.27s-3.557,7.621-4.573,7.621
			c-1.016,0-128.815,0.933-130.847,0.933C558.239,215.396,560.572,208.099,561.794,208.112z"/>
		<path style="fill:#D7DFF2;" d="M562.049,223.864c84.352,1.017,133.389-0.506,133.389-0.506s-1.863,6.097-2.879,6.097
			c-1.017,0-134.329,2.689-133.474,0.847C560.188,227.931,560.826,223.85,562.049,223.864z"/>
		<path style="fill:#D7DFF2;" d="M563.32,239.448c84.352,1.017,132.88-1.1,132.88-1.1s-1.777,7.707-2.795,7.707
			c-1.017,0-130.594,0.847-132.627,0.847C558.746,246.901,562.099,239.434,563.32,239.448z"/>
	</g>
	<g>
		<path style="fill:#AABBE3;" d="M191.639,351.881c-0.405,14.334-0.187,86.118-0.47,92.015c0.48,1.713,9.213,1.568,9.266,0.445
			c0.057-1.125-0.828-88.42-0.678-91.508C199.904,349.743,191.639,351.881,191.639,351.881z"/>
		<path style="fill:#AABBE3;" d="M248.251,350.133c0.063,14.34,2.631,86.078,2.54,91.982c0.537,1.693,9.26,1.265,9.276,0.141
			c0.018-1.125-3.718-88.345-3.673-91.438C256.442,347.728,248.251,350.133,248.251,350.133z"/>
		<path style="fill:#AABBE3;" d="M573.847,349.138c-0.163,7.235,1.408,85.899,1.46,89.08c0.053,3.183,9.023,1.59,9.563,0.134
			c0.538-1.455-2.89-90.504-2.89-90.504L573.847,349.138z"/>
		<path style="fill:#AABBE3;" d="M524.242,351.196c-0.472,14.588-0.592,87.649-0.903,93.651c0.475,1.743,9.208,1.621,9.267,0.478
			c0.06-1.143-0.411-89.994-0.25-93.137C532.519,349.045,524.242,351.196,524.242,351.196z"/>
		<g>
			<path style="fill:#1E194A;" d="M177.443,339.303c-0.333,5.34,0.39,17.998,1.228,18.568c0.837,0.571,25.849,1.934,44.976,0.994
				c19.127-0.942,89.138-1.396,114.72-1.152c25.585,0.245,152.375,1.178,173.462,1.099c21.088-0.079,40.481,0.388,55.106-0.034
				c14.624-0.423,32.916-2.217,33.211-3.619c0.294-1.401-1.51-18.57-1.51-18.57l-356.507,0.524
				C242.129,337.112,178.582,337.909,177.443,339.303z"/>
		</g>
		<path style="fill:#A3D5DB;" d="M182.803,256.255c2.896-7.785,9.612-6.952,28.169-7.086c18.56-0.134,34.014,0.832,40.181,3.131
			c6.166,2.297,14.287,6.58,25.41,21.85c11.125,15.27,21.632,37.565,24.978,40.966c14.631-1.571,72.268-1.674,100.38-1.169
			c28.11,0.504,131.859-0.076,141.7-0.279c9.843-0.203,43.868-1.059,48.625,1.793c4.757,2.849,8.566,18.623,0.66,23.059
			c-27.305,4.28-64.147,5.676-80.733,5.262c-16.584-0.413-147.883-0.052-167.006,0.359c-19.12,0.41-36.546-0.291-52.014,0.43
			c-15.47,0.72-33.755,1.98-45.25-2.046c-11.494-4.028-16.513-9.41-25.137-21.006c-8.623-11.596-18.906-26.579-28.096-37.615
			C185.481,272.864,179.946,263.928,182.803,256.255z"/>
		<g>
			<g>
				<path style="fill:#1E194A;" d="M419.47,323.207c11.415,0.43,22.839,0.373,34.26,0.339c11.695-0.035,23.399,0.351,35.088-0.115
					c5.729-0.228,11.455-0.437,17.186-0.577c2.778-0.067,5.558-0.081,8.336-0.163c2.805-0.082,5.577-0.379,8.369,0.062
					c9.393,1.484,7.55,12.731,7.252,19.58c-0.028,0.645,0.972,0.643,1,0c0.248-5.697,1.953-14.672-3.518-18.638
					c-3.848-2.79-8.636-2.163-13.104-2.004c-6.254,0.225-12.514,0.221-18.767,0.46c-12.655,0.483-25.251,0.37-37.911,0.387
					c-12.731,0.017-25.466,0.148-38.191-0.33C418.824,322.183,418.827,323.183,419.47,323.207L419.47,323.207z"/>
			</g>
		</g>
		<g>
			<g>
				<path style="fill:#1E194A;" d="M190.62,251.85c12.197-1.139,19.793,11.473,24.977,20.629
					c7.526,13.294,15.924,26.191,25.081,38.417c1.842,2.46,3.581,5.017,5.544,7.383c1.885,2.271,4.14,3.41,6.958,4.141
					c6.739,1.747,13.561,1.473,20.382,0.57c8.088-1.069,16.382-0.767,24.513-0.492c8.001,0.27,16.067,0.285,24.054,0.77
					c0.792,0.056,1.58,0.153,2.363,0.293c0.63,0.102,0.901-0.862,0.266-0.965c-3.284-0.53-6.606-0.431-9.922-0.501
					c-4.273-0.09-8.544-0.28-12.815-0.449c-8.222-0.325-16.448-0.553-24.667-0.046c-3.798,0.234-7.539,1.004-11.339,1.232
					c-3.642,0.219-7.51-0.439-11.095-1.064c-3.561-0.62-6.193-2.03-8.506-4.817c-2.513-3.028-4.755-6.369-7.085-9.542
					c-8.811-11.997-16.602-24.674-24.073-37.535c-4.81-8.278-11.572-18.268-22.037-19.098c-0.866-0.069-1.737-0.005-2.599,0.076
					C189.984,250.909,189.978,251.909,190.62,251.85L190.62,251.85z"/>
			</g>
		</g>
		<g>
			<g>
				<path style="fill:#1E194A;" d="M248.84,322.421c-4.597,2.558-7.92,6.627-10.763,10.967c-0.354,0.541,0.512,1.041,0.863,0.504
					c2.754-4.202,5.952-8.13,10.405-10.607C249.909,322.971,249.404,322.107,248.84,322.421L248.84,322.421z"/>
			</g>
		</g>
		<g>
			<g>
				<path style="fill:#1E194A;" d="M249.776,323.734c-1.462,2.096-2.167,4.425-2.883,6.852c-0.903,3.055-1.882,6.079-2.729,9.153
					c-0.172,0.623,0.793,0.887,0.964,0.266c0.777-2.823,1.572-5.637,2.502-8.414c0.858-2.563,1.436-5.097,3.009-7.352
					C251.01,323.708,250.143,323.209,249.776,323.734L249.776,323.734z"/>
			</g>
		</g>
		<g>
			<g>
				<path style="fill:#1E194A;" d="M258.894,321.067c6.777-0.144,13.512-0.427,20.268-1.007c7.316-0.628,14.975-1.556,22.036-3.622
					c0.618-0.181,0.354-1.147-0.266-0.965c-6.983,2.044-14.544,2.943-21.77,3.587c-6.752,0.601-13.493,0.863-20.268,1.007
					C258.249,320.081,258.249,321.081,258.894,321.067L258.894,321.067z"/>
			</g>
		</g>
		<g>
			<g>
				<path style="fill:#1E194A;" d="M346.371,323.001c5.7,0.154,11.32,1.026,17.049,1.072c0.645,0.005,0.645-0.995,0-1
					c-5.729-0.046-11.349-0.918-17.049-1.072C345.726,321.983,345.727,322.983,346.371,323.001L346.371,323.001z"/>
			</g>
		</g>
		<g>
			<g>
				<path style="fill:#1E194A;" d="M527.192,322.546c5.083-0.873,10.348-0.659,15.481-1.138c5.079-0.474,10.135-1.167,15.218-1.62
					c5.122-0.456,10.258-0.751,15.384-1.157c5.47-0.434,10.938-1.346,16.431-1.378c0.645-0.004,0.646-1.004,0-1
					c-5.173,0.03-10.323,0.859-15.472,1.299c-5.443,0.465-10.899,0.771-16.343,1.236c-5.4,0.462-10.772,1.206-16.168,1.709
					c-4.919,0.459-9.921,0.247-14.797,1.084C526.292,321.69,526.561,322.654,527.192,322.546L527.192,322.546z"/>
			</g>
		</g>
	</g>
	<g>
		<path style="fill:#FAB191;" d="M402.003,237.727c-5.201,0.142-9.137,0.142-13.917-1.404c-4.779-1.548-13.635-2.532-17.712-0.984
			c7.17,8.715,14.62,12.792,16.166,13.494c6.466,0.984,8.855,0,17.712,1.125C403.971,242.506,402.003,237.727,402.003,237.727z"/>
		<g>
			<path style="fill:#1E194A;" d="M331.249,209.379c1.5,5.811,5.67,9.23,9.325,7.122l-3.936-6.889L331.249,209.379z"/>
		</g>
		<path style="fill:#FAB191;" d="M343.901,234.025c0.75-4.123,0.188-12.933,0.188-12.933c-3.562-2.155-5.437-6.092-6.278-9.746
			c-6.936,2.812-12.09-6.185-8.155-9.933c2.063-1.313,5.438-0.375,6.374,0.374c0.374-10.495,0.374-26.052,17.243-28.862
			c16.868-2.811,22.68,6.184,24.179,15.368c1.499,9.184,1.17,23.855-5.905,30.644c-4.688,4.5-9.839,5.342-9.839,5.342l0.563,10.31
			C362.27,234.589,352.898,242.834,343.901,234.025z"/>
		<g>
			<path style="fill:#1E194A;" d="M329.188,202.304c1.686-1.686,5.342-1.686,8.715,2.249c2.53,0.702,4.076-6.325,2.25-10.543
				c4.216-3.936,4.778-7.731,5.903-10.965c5.623,1.406,9.981-0.561,16.588-6.747c7.872,5.342,12.089,3.937,17.008,2.39
				c4.921-1.547,1.267-5.764-2.108-7.871c-3.374-2.109-8.716-2.813-11.387-2.25c2.108-5.764-5.623-7.169-11.104-5.904
				c-5.481,1.266-14.198,4.076-16.025,6.325c2.39-6.185,1.265-6.465-0.141-6.044c-1.405,0.422-3.374,3.516-3.936,9.699
				c-1.968-6.607-5.763-5.904-5.622-2.951c0.141,2.951,3.796,4.92,3.796,4.92c-6.607,2.952-9.511,9.764-8.154,16.446
				C326.938,200.757,329.188,202.304,329.188,202.304z"/>
		</g>
		<g>
			<g>
				<path style="fill:#1E194A;" d="M354.903,201.118c-0.419-0.161-0.789-1.182-0.205-1.349c0.264-0.075,0.671,0.173,0.816,0.382
					c0.167,0.243,0.164,0.555,0.1,0.831c-0.107,0.461-0.423,0.885-0.767,0.396c-0.264-0.374-0.386-0.813-0.378-1.266
					c0.006-0.351,0.134-0.93,0.591-0.842c0.374,0.073,0.465,0.637,0.468,0.937c0.001,0.187-0.227,0.707-0.41,0.564
					c-0.301-0.235-0.201-1.3,0.128-0.777c0.145,0.23,0.217,0.628,0.101,0.883c-0.073,0.162-0.144,0.087-0.15-0.071
					c-0.007-0.163,0.052-0.431,0.19-0.52c-0.153,0.099-0.014-0.074,0.06,0.127c0.09,0.247-0.154,0.556-0.325,0.692
					c-0.503,0.403,0.209,1.105,0.707,0.707c0.77-0.616,0.913-2.125-0.206-2.466c-0.762-0.232-1.306,0.499-1.4,1.175
					c-0.107,0.766,0.355,1.611,1.245,1.42c0.931-0.2,1.05-1.307,0.813-2.069c-0.247-0.792-1.17-1.424-1.917-0.791
					c-0.601,0.509-0.543,1.573-0.136,2.179c0.533,0.794,1.64,0.552,2.088-0.193c0.467-0.777,0.185-2.081-0.582-2.57
					c-0.709-0.453-1.533-0.221-1.967,0.473c-0.452,0.722-0.352,1.726-0.018,2.465c0.266,0.589,0.757,1.264,1.491,1.186
					c0.622-0.066,1.054-0.582,1.263-1.138c0.526-1.399-0.506-2.936-2.069-2.678c-0.721,0.119-1.036,0.944-1.012,1.583
					c0.028,0.775,0.503,1.419,1.217,1.693C355.241,202.313,355.499,201.346,354.903,201.118L354.903,201.118z"/>
			</g>
		</g>
		<g>
			<g>
				<path style="fill:#1E194A;" d="M369.463,200.686c-0.267-0.299-0.249-0.827-0.083-1.17c0.17-0.354,0.493-0.104,0.621,0.143
					c0.185,0.357,0.137,1.859-0.519,1.766c-0.395-0.056-0.351-0.805-0.329-1.071c0.033-0.396,0.223-0.874,0.639-0.971
					c0.141-0.033,0.104-0.037,0.111,0.045c0.015,0.189-0.047,0.377-0.104,0.555c-0.116,0.365-0.329,0.734-0.62,0.986
					c0.236,0,0.471,0,0.707,0c-0.223-0.19-0.043-0.412,0.141-0.559c0.503-0.403-0.209-1.106-0.707-0.707
					c-0.599,0.479-0.761,1.443-0.141,1.973c0.219,0.187,0.488,0.189,0.707,0c0.583-0.504,0.914-1.316,1.011-2.064
					c0.121-0.942-0.681-1.354-1.497-1.163c-1.595,0.373-1.824,3.911,0.045,3.972c1.732,0.057,2.07-2.62,1.143-3.659
					c-0.586-0.657-1.542-0.494-2.018,0.163c-0.511,0.704-0.367,1.848,0.188,2.47C369.186,201.875,369.891,201.165,369.463,200.686
					L369.463,200.686z"/>
			</g>
		</g>
		<g>
			<g>
				<path style="fill:#1E194A;" d="M351.369,192.895c1.397-1.038,3.107-1.695,4.801-2.058c0.63-0.135,0.363-1.099-0.266-0.964
					c-1.764,0.378-3.586,1.078-5.04,2.159C350.352,192.412,350.85,193.281,351.369,192.895L351.369,192.895z"/>
			</g>
		</g>
		<g>
			<g>
				<path style="fill:#1E194A;" d="M369.249,190.574c1.539,0.081,2.806,1.493,4.106,2.182c0.569,0.302,1.075-0.562,0.505-0.863
					c-1.505-0.797-2.82-2.225-4.611-2.318C368.604,189.54,368.607,190.54,369.249,190.574L369.249,190.574z"/>
			</g>
		</g>
		<g>
			<g>
				<path style="fill:#1E194A;" d="M361.667,200.958c0.536,0.114,1.06,0.271,1.579,0.447c0.379,0.128,1.549,0.462,1.356,0.864
					c-0.462,0.966-1.289,1.867-2.031,2.632c-0.449,0.463,0.257,1.171,0.707,0.707c0.459-0.473,0.876-0.992,1.282-1.51
					c0.41-0.523,1.007-1.183,1.101-1.87c0.199-1.451-2.75-2.026-3.729-2.233C361.304,199.861,361.036,200.825,361.667,200.958
					L361.667,200.958z"/>
			</g>
		</g>
		<g>
			<g>
				<path style="fill:#1E194A;" d="M358.82,213.559c1.609-1.184,3.345-2.076,5.221-2.76c0.601-0.219,0.341-1.186-0.266-0.964
					c-1.955,0.713-3.781,1.625-5.461,2.861C357.802,213.073,358.299,213.941,358.82,213.559L358.82,213.559z"/>
			</g>
		</g>
		<g>
			<g>
				<path style="fill:#1E194A;" d="M346.458,221.713c1.294,0.746,2.38,1.622,3.783,2.192c1.94,0.788,4.065,1.289,6.131,1.58
					c3.782,0.532,7.074-0.488,10.272-2.46c0.547-0.338,0.046-1.203-0.505-0.863c-3.303,2.038-6.475,2.785-10.325,2.244
					c-3.349-0.471-6.001-1.912-8.851-3.555C346.404,220.527,345.9,221.391,346.458,221.713L346.458,221.713z"/>
			</g>
		</g>
		<path style="fill:#EBA181;" d="M383.727,275.822c1.547,8.152,2.11,17.57,12.231,21.367c10.121,3.795,20.663,15.321,22.352,15.884
			c1.686,0.563,3.514-4.499,2.67-8.856c-0.844-4.358-2.248-6.606-6.045-8.295c-3.795-1.686-11.526-4.076-14.056-7.871
			c-2.53-3.795-8.997-26.005-8.997-26.005l-9.418,2.529L383.727,275.822z"/>
		<path style="fill:#FAB191;" d="M379.888,354.822c0.188,5.716-0.845,19.679-0.845,23.428s-0.28,5.06,4.499,6.654
			c4.779,1.594,13.121,6.092,16.869,6.184c3.749,0.094,3.465-2.528,0.843-4.872c-2.624-2.343-8.622-7.591-8.716-11.526
			c-0.092-3.936,1.22-19.213,1.22-19.213L379.888,354.822z"/>
		<path style="fill:#78BAC2;" d="M378.575,372.252c1.967-1.593,5.81,0.564,6.091,2.719c0.281,2.155,0.751,1.875,1.594,1.405
			c0.844-0.469,0.938-5.154,3.936-5.811c2.998-0.655,4.217-0.75,4.217,1.498c0,2.25-0.469,3.939,0.655,5.72
			c1.126,1.779,3.935,5.434,5.998,7.495c2.062,2.062,5.152,5.436,0.563,5.998c-4.593,0.563-7.591-2.062-11.995-3.468
			c-4.404-1.406-10.591-2.155-10.778-5.717C378.669,378.531,378.106,373.847,378.575,372.252z"/>
		<path style="fill:#FAB191;" d="M405.832,351.443c1.214,5.588,2.717,19.508,3.392,23.195c0.677,3.688,0.636,5.029,5.625,5.734
			c4.988,0.707,14.004,3.628,17.707,3.043c3.703-0.584,2.953-3.111-0.049-4.944c-3.004-1.831-9.85-5.911-10.65-9.767
			c-0.803-3.855-2.266-19.117-2.266-19.117L405.832,351.443z"/>
		<path style="fill:#78BAC2;" d="M407.682,368.822c1.65-1.92,5.817-0.49,6.48,1.576c0.667,2.07,1.077,1.711,1.821,1.098
			c0.746-0.614-0.006-5.24,2.824-6.426c2.832-1.186,4.015-1.498,4.418,0.715c0.406,2.212,0.25,3.958,1.677,5.505
			c1.427,1.549,4.85,4.636,7.249,6.294c2.401,1.656,6.051,4.417,1.635,5.797c-4.414,1.383-7.836-0.66-12.423-1.249
			c-4.587-0.588-10.806-0.21-11.632-3.679C408.906,374.983,407.508,370.477,407.682,368.822z"/>
		<g>
			<g>
				<path style="fill:#1E194A;" d="M415.52,371.457c-0.579,2.139,3.646,3.345,5.003,3.948c3.469,1.543,6.654,5.301,10.516,2.957
					c0.551-0.334,0.049-1.199-0.504-0.863c-3.01,1.826-6.665-1.464-9.238-2.831c-0.773-0.411-5.126-1.787-4.812-2.945
					C416.653,371.1,415.688,370.835,415.52,371.457L415.52,371.457z"/>
			</g>
		</g>
		<g>
			<g>
				<path style="fill:#1E194A;" d="M419.949,374.911c1.196-1.65,2.933-2.345,4.876-2.718c0.633-0.122,0.364-1.086-0.266-0.965
					c-2.228,0.429-4.117,1.305-5.474,3.179C418.707,374.93,419.575,375.429,419.949,374.911L419.949,374.911z"/>
			</g>
		</g>
		<g>
			<g>
				<path style="fill:#1E194A;" d="M423.159,376.316c0.988-1.076,2.091-1.874,3.564-2.091c0.636-0.094,0.365-1.058-0.266-0.965
					c-1.627,0.239-2.915,1.161-4.006,2.349C422.017,376.083,422.722,376.792,423.159,376.316L423.159,376.316z"/>
			</g>
		</g>
		<g>
			<g>
				<path style="fill:#1E194A;" d="M426.923,377.626c0.672-0.776,1.805-0.926,2.681-1.384c0.572-0.299,0.066-1.162-0.504-0.863
					c-0.969,0.507-2.135,0.676-2.884,1.54C425.796,377.404,426.5,378.114,426.923,377.626L426.923,377.626z"/>
			</g>
		</g>
		<g>
			<g>
				<path style="fill:#1E194A;" d="M408.851,372.065c1.411,0.008,2.495,0.514,3.439,1.557c0.545,0.601,0.927,1.423,1.19,2.18
					c0.228,0.65,0.21,1.313,0.504,1.95c0.27,0.586,1.131,0.077,0.863-0.504c-0.373-0.81-0.384-1.745-0.746-2.58
					c-0.324-0.747-0.792-1.409-1.336-2.009c-1.008-1.112-2.45-1.586-3.915-1.594C408.205,371.061,408.206,372.061,408.851,372.065
					L408.851,372.065z"/>
			</g>
		</g>
		<g>
			<g>
				<path style="fill:#1E194A;" d="M409.405,377.352c2.168,0.479,4.341,0.725,6.434,1.5c2.886,1.067,5.753,1.703,8.779,2.237
					c2.731,0.482,8.068,2.14,10.148-0.7c0.382-0.521-0.486-1.019-0.863-0.504c-1.066,1.454-3.972,1.08-5.488,0.867
					c-2.433-0.34-4.87-0.847-7.279-1.328c-2.018-0.403-3.911-1.122-5.836-1.834c-1.804-0.667-3.762-0.791-5.629-1.203
					C409.043,376.248,408.775,377.212,409.405,377.352L409.405,377.352z"/>
			</g>
		</g>
		<path style="fill:#39327A;" d="M334.341,294.002c-1.311,6.933-1.125,19.679,7.685,24.365c8.81,4.686,23.993,3.373,28.865,5.622
			c4.873,2.249,5.623,2.438,5.997,10.496c0.374,8.059,0,18.744,0.374,20.991c5.436,2.438,22.865,0.563,22.865,0.563
			c0.188-4.498-2.247-31.3-2.247-31.3c3.186,8.06,3.945,23.704,4.321,26.702c4.873,2.623,18.25,1.641,20.499,0.14
			c0.75-5.437-2.517-37.148-3.829-41.835c-1.313-4.686-14.76-14.175-33.175-14.619c-1.313-3.187-1.5-5.249-1.5-5.249
			L334.341,294.002z"/>
		<path style="fill:#EBA181;" d="M405.377,298.946c2.107,0.912,5.27,2.951,5.622,5.902c0.353,2.952,0.633,5.834,1.686,6.046
			c1.056,0.211,2.039-0.352,1.899-4.289c1.827,4.85,3.373,9.067,4.989,4.85C420.558,306.045,415.779,298.383,405.377,298.946z"/>
		<path style="fill:#FAB191;" d="M316.536,269.448c-1.499,2.438-5.81,8.062-4.873,12.747c0.938,4.685,1.313,12.932,6.373,23.615
			c5.061,10.683,2.811,13.682,6.934,15.181c4.125,1.5,6.467,1.218,8.436,4.03c1.967,2.811,2.671,4.92,3.654,5.34
			c0.984,0.422,1.265-0.983,1.265-0.983c1.688,1.968,2.811,0.844,2.952,0.282c2.531,1.405,3.232-0.422,1.265-5.622
			c2.672,3.935,3.936,1.687,0.563-2.25c-0.843-1.125-7.309-2.108-9.137-6.326c-1.827-4.218-4.639-25.022-6.185-30.504
			c-1.547-5.482,0.422-6.888,3.654-11.386C334.67,269.075,316.536,269.448,316.536,269.448z"/>
		<path style="fill:#EA575F;" d="M342.308,231.495c1.22,1.686,3.373,4.969,10.309,4.874c6.937-0.095,9.653-3.374,10.496-4.405
			c0.844-1.031-0.093-0.188,2.061,1.124c2.155,1.313,11.621,0.75,17.244,6.561c5.622,5.81,13.963,20.429,13.963,20.429
			s-2.154,1.217-4.497,2.437c-2.344,1.22-8.717,2.998-8.717,2.998s2.531,21.461,2.626,24.273c-0.001,1.405,0.186,1.595-1.313,2.061
			c-1.501,0.469-33.175,4.594-52.293,3.094c-0.563-0.281-0.844-19.588-0.844-19.588c-6.466-0.936-16.401-5.061-17.243-6.092
			c-0.844-1.029,5.622-14.805,10.214-23.428c4.593-8.622,10.123-7.402,12.747-9.932
			C339.684,233.369,341.745,230.933,342.308,231.495z"/>
		<path style="fill:#78BAC2;" d="M372.202,248.083c-0.938-2.529-6.28-4.78-7.216,1.219c-0.936,5.998,3.729,13.217,7.871,8.902
			C375.106,255.861,373.233,250.051,372.202,248.083z"/>
		<g>
			<g>
				<path style="fill:#1E194A;" d="M340.955,236.472c2.104,1.303,3.897,2.678,6.277,3.464c2.397,0.791,5.054,0.862,7.55,0.755
					c3.632-0.156,8.977-1.421,11.034-4.75c0.34-0.55-0.525-1.052-0.863-0.505c-2.167,3.506-8.169,4.274-11.862,4.296
					c-2.165,0.013-4.294-0.333-6.346-1.009c-2.003-0.661-3.526-2.026-5.285-3.115C340.909,235.268,340.408,236.133,340.955,236.472
					L340.955,236.472z"/>
			</g>
		</g>
		<g>
			<g>
				<path style="fill:#1E194A;" d="M335.874,260.772c0.54,2.702-0.662,5.854-0.973,8.575c-0.137,1.197-0.232,2.397-0.38,3.593
					c-0.076,0.616-0.614,2.376,0.087,2.118c-0.6,0.221-0.341,1.188,0.266,0.965c0.004-0.002,0.007-0.003,0.011-0.004
					c0.225-0.083,0.348-0.243,0.367-0.482c0.212-2.625,0.498-5.274,0.864-7.882c0.333-2.376,1.203-4.745,0.723-7.148
					C336.712,259.874,335.749,260.142,335.874,260.772L335.874,260.772z"/>
			</g>
		</g>
		<g>
			<g>
				<path style="fill:#1E194A;" d="M321.814,273.492c4.25,0.873,8.462,1.8,12.723,2.601c0.63,0.118,0.899-0.846,0.266-0.965
					c-4.262-0.801-8.472-1.727-12.723-2.601C321.451,272.398,321.183,273.362,321.814,273.492L321.814,273.492z"/>
			</g>
		</g>
		<g>
			<g>
				<path style="fill:#1E194A;" d="M316.143,267.045c2.614,1.113,5.263,2.079,8.004,2.834c1.368,0.376,2.762,0.609,4.145,0.913
					c0.949,0.208,1.806,0.626,2.794,0.609c0.644-0.011,0.645-1.011,0-1c-1.785,0.029-4.041-0.857-5.772-1.259
					c-2.976-0.69-5.86-1.766-8.666-2.961C316.061,265.932,315.552,266.793,316.143,267.045L316.143,267.045z"/>
			</g>
		</g>
		<g>
			<g>
				<path style="fill:#1E194A;" d="M417.546,303.506c1.08,2.763,1.895,6.229,1.054,9.152c-0.179,0.621,0.786,0.885,0.965,0.266
					c0.89-3.093,0.09-6.757-1.054-9.684C418.278,302.647,417.311,302.904,417.546,303.506L417.546,303.506z"/>
			</g>
		</g>
		<g>
			<g>
				<path style="fill:#1E194A;" d="M365.243,302.608c3.723,0.128,7.459-0.189,11.176,0.111c3.844,0.311,7.912,1.593,11.382,3.242
					c7.193,3.42,9.538,11.419,9.274,18.849c-0.022,0.646,0.978,0.643,1,0c0.261-7.349-1.921-14.892-8.417-18.974
					c-3.325-2.089-7.489-3.147-11.302-3.855c-4.302-0.798-8.767-0.225-13.113-0.374C364.598,301.586,364.6,302.586,365.243,302.608
					L365.243,302.608z"/>
			</g>
		</g>
		<g>
			<g>
				<path style="fill:#1E194A;" d="M335.495,323.578c1.583,1.181,3.475,3.63,2.771,5.713c-0.207,0.612,0.759,0.873,0.964,0.266
					c0.862-2.551-1.297-5.4-3.231-6.842C335.482,322.329,334.984,323.197,335.495,323.578L335.495,323.578z"/>
			</g>
		</g>
		<g>
			<g>
				<path style="fill:#1E194A;" d="M339.237,323.594c1.388,1.556,2.147,3.565,2.196,5.645c0.015,0.643,1.016,0.645,1,0
					c-0.056-2.351-0.922-4.596-2.489-6.352C339.514,322.404,338.81,323.114,339.237,323.594L339.237,323.594z"/>
			</g>
		</g>
		<g>
			<g>
				<path style="fill:#1E194A;" d="M341.298,323.125c0.625,0.642,1.038,1.391,1.372,2.216c0.239,0.59,1.207,0.332,0.964-0.266
					c-0.401-0.99-0.878-1.886-1.629-2.657C341.554,321.955,340.848,322.663,341.298,323.125L341.298,323.125z"/>
			</g>
		</g>
		<g>
			<g>
				<path style="fill:#1E194A;" d="M378.137,353.754c5.473,2.546,11.907,1.103,17.683,0.912c0.644-0.021,0.646-1.021,0-1
					c-5.545,0.184-11.923,1.669-17.179-0.775C378.06,352.62,377.552,353.482,378.137,353.754L378.137,353.754z"/>
			</g>
		</g>
		<g>
			<g>
				<path style="fill:#1E194A;" d="M403.541,350.228c2.758,0.539,5.18,0.975,7.999,0.753c3.066-0.241,6.072-0.687,9.075-1.334
					c0.63-0.137,0.363-1.101-0.266-0.965c-2.606,0.563-5.203,0.945-7.857,1.213c-3.035,0.307-5.712-0.05-8.686-0.632
					C403.177,349.141,402.908,350.104,403.541,350.228L403.541,350.228z"/>
			</g>
		</g>
		<g>
			<g>
				<path style="fill:#1E194A;" d="M385.828,376.219c-0.943,1.975,2.709,3.822,3.965,4.669c3.146,2.121,5.766,6.58,10,4.968
					c0.597-0.228,0.338-1.194-0.266-0.965c-3.347,1.274-6.228-2.54-8.588-4.411c-0.701-0.556-4.753-2.698-4.248-3.757
					C386.968,376.145,386.105,375.637,385.828,376.219L385.828,376.219z"/>
			</g>
		</g>
		<g>
			<g>
				<path style="fill:#1E194A;" d="M389.519,380.48c1.486-1.414,3.271-1.802,5.27-1.822c0.645-0.007,0.646-1.007,0-1
					c-2.267,0.022-4.298,0.519-5.977,2.115C388.344,380.219,389.052,380.925,389.519,380.48L389.519,380.48z"/>
			</g>
		</g>
		<g>
			<g>
				<path style="fill:#1E194A;" d="M392.416,382.431c1.164-0.873,2.385-1.478,3.87-1.431c0.645,0.021,0.644-0.979,0-1
					c-1.652-0.052-3.073,0.591-4.374,1.567C391.402,381.949,391.9,382.818,392.416,382.431L392.416,382.431z"/>
			</g>
		</g>
		<g>
			<g>
				<path style="fill:#1E194A;" d="M395.984,384.32c0.751-0.6,1.895-0.537,2.778-0.808c0.614-0.189,0.353-1.154-0.266-0.965
					c-1.105,0.339-2.277,0.313-3.22,1.065C394.773,384.016,395.486,384.719,395.984,384.32L395.984,384.32z"/>
			</g>
		</g>
		<g>
			<g>
				<path style="fill:#1E194A;" d="M379.099,375.641c1.366,0.263,2.349,0.906,3.099,2.087c0.904,1.425,0.57,2.894,0.956,4.404
					c0.16,0.625,1.124,0.359,0.965-0.266c-0.201-0.786-0.065-1.627-0.211-2.433c-0.162-0.895-0.561-1.76-1.044-2.521
					c-0.789-1.243-2.083-1.964-3.499-2.236C378.734,374.555,378.466,375.519,379.099,375.641L379.099,375.641z"/>
			</g>
		</g>
		<g>
			<g>
				<path style="fill:#1E194A;" d="M378.817,380.982c2.29,0.962,4.537,1.746,6.686,3.031c2.41,1.441,4.979,2.412,7.605,3.388
					c2.54,0.943,7.477,3.517,9.998,1.137c0.47-0.443-0.238-1.149-0.707-0.707c-1.373,1.296-4.177,0.353-5.665-0.142
					c-2.332-0.774-4.639-1.709-6.921-2.618c-2.135-0.849-4.035-2.087-6.02-3.224c-1.438-0.824-3.184-1.188-4.711-1.83
					C378.489,379.769,378.232,380.736,378.817,380.982L378.817,380.982z"/>
			</g>
		</g>
		<path style="fill:#FAB191;" d="M384.01,237.868c-1.593,0.188-5.905-1.313-7.591-0.938c-1.686,0.376-2.718,1.592,1.405,3.374
			c4.124,1.78,5.436,1.032,6.56,2.344c1.125,1.312,4.874,2.247,6.56,1.592"/>
		<path style="fill:#1E194A;" d="M433.866,209.379c-2.156-2.344-3.563-4.5-1.594-11.059c1.968-6.561,5.529-16.869,5.529-16.869
			l-1.031-1.592c0,0-3.935,6.84-5.715,13.401c-1.781,6.56-4.22,15.838,0.654,18.741
			C432.366,210.504,433.866,209.379,433.866,209.379z"/>
		<path style="fill:#EA575F;" d="M467.227,134.689c-1.265-7.45,6.045-13.074,14.479-9.418c8.435,3.654,11.526,13.775,4.78,19.539
			c-6.748,5.764-9.7,4.076-14.48-1.406C467.227,137.922,467.227,134.689,467.227,134.689z"/>
		<path style="fill:#78BAC2;" d="M401.019,236.182c-1.546,2.248,1.124,18.413,1.406,18.977c0.28,0.561,18.414,0.42,26.287-0.564
			c7.871-0.983,21.788-3.373,24.881-5.061c3.092-1.686,6.746,14.761,8.855,21.367c2.109,6.606,3.515,14.198-3.092,18.977
			c-6.607,4.78-18.929,16.12-24.364,24.741c-5.438,8.621-9.185,29.801-9.185,47.794c8.998,2.249,29.426-4.499,29.426-4.499
			s26.614-69.723,25.303-79.281c-1.311-9.558-12.745-80.968-12.745-80.968l-3.373-3.374c0,0-5.343,2.951-8.153,6.748
			c-1.124,1.686,0.984,2.39,0.844,3.514c-1.266,1.686-4.217,3.654-4.077,4.78c0.142,1.124-0.28,3.232-0.28,3.232
			c-3.515,4.218-6.748,17.571-14.058,21.225C431.382,237.445,402.283,235.479,401.019,236.182z"/>
		<path style="fill:#FAB191;" d="M426.93,155.118c-1.311,6.373,0.188,13.869,6.186,21.366c5.998,7.498,13.308,22.68,27.927,15.932
			c2.25,4.686,2.624,7.31,2.624,7.31c-5.997,7.685-6.841,14.386-1.358,20.149c10.87-10.31,20.287-25.961,20.287-25.961
			c-3.559-6.559-9.371-20.615-9.371-20.615s4.499-6.746-0.561-17.243c-5.061-10.497-15.557-19.493-30.738-14.995
			C426.744,145.559,427.866,147.995,426.93,155.118z"/>
		<path style="fill:#EA575F;" d="M426.463,158.679c1.171-4.076,2.624-6.84,8.573-10.495c3.937,7.592,13.636,10.121,18.557,8.575
			c2.107,7.731,6.044,11.104,7.73,9.419c1.687-1.688-0.844-4.498,0.984-6.326c1.827-1.829,7.73-1.829,8.855,2.529
			c1.124,4.357-1.688,8.436-1.688,8.436c3.234,4.216,4.498,4.639,4.498,4.639c5.904-3.516,8.294-10.824,5.342-21.509
			c-2.951-10.682-10.73-24.271-25.209-23.567c-14.478,0.702-24.271,5.295-29.473,12.463
			C419.434,150.012,419.435,156.289,426.463,158.679z"/>
		<g>
			<g>
				<path style="fill:#1E194A;" d="M447.624,170.432c-0.643,0.408-1.246-0.323-1.512-0.857c-0.088-0.177-0.118-0.43-0.063-0.62
					c-0.027,0.097,0.019,0.03,0.152,0.061c0.441,0.098,0.833,0.425,1.124,0.756c0.147,0.168,0.21,0.362,0.265,0.573
					c0.008,0.031,0.008,0.179,0.015,0.15c0.024-0.111,0.216-0.139,0.117-0.139c-0.287,0.001-0.73-0.359-0.969-0.587
					c-0.145-0.139-0.3-0.31-0.377-0.498c-0.053-0.128,0.009-0.267-0.095-0.195c-0.091,0.063-0.257-0.005-0.177,0.037
					c0.053,0.027,0.077,0.051,0.135,0.104c0.151,0.139,0.27,0.304,0.381,0.474c0.104,0.159,0.202,0.33,0.269,0.509
					c0.008,0.021,0.057,0.228,0.043,0.116c0,0.062,0.004,0.054,0.012-0.024c0.051-0.284,0.475-0.248,0.362-0.287
					c-0.61-0.214-0.87,0.752-0.266,0.964c0.713,0.251,1.003-0.467,0.812-1.035c-0.189-0.568-0.573-1.177-1.049-1.546
					c-0.565-0.438-1.239-0.295-1.44,0.432c-0.194,0.704,0.384,1.408,0.877,1.831c0.451,0.388,1.179,0.868,1.807,0.657
					c0.786-0.264,0.578-1.248,0.295-1.811c-0.465-0.923-2.949-2.496-3.29-0.671c-0.288,1.545,1.594,3.409,3.076,2.467
					C448.671,170.95,448.17,170.085,447.624,170.432L447.624,170.432z"/>
			</g>
		</g>
		<g>
			<g>
				<path style="fill:#1E194A;" d="M437.092,175.628c-0.295-0.098-1.693-1.399-1.092-1.45c0.333-0.028,0.547,0.538,0.636,0.776
					c0.145,0.393,0.238,0.831,0.196,1.25c0.211-0.161,0.422-0.321,0.633-0.482c-0.664-0.254-1.107-1.086-1.131-1.768
					c-0.167,0.167-0.333,0.334-0.5,0.5c0.383,0.025,0.79,0.439,1.034,0.697c0.098,0.103,0.238,0.265,0.251,0.413
					c0.014,0.154,0.185,0.044,0.134,0.032c-0.098-0.023-0.185-0.129-0.237-0.207c-0.359-0.53-1.227-0.03-0.863,0.505
					c0.264,0.389,0.706,0.764,1.21,0.7c0.597-0.076,0.851-0.696,0.732-1.243c-0.199-0.917-1.335-1.836-2.261-1.897
					c-0.266-0.018-0.509,0.241-0.5,0.5c0.04,1.163,0.766,2.311,1.865,2.732c0.33,0.127,0.604-0.189,0.633-0.482
					c0.12-1.203-0.665-3.429-2.227-2.957c-0.881,0.266-0.906,1.194-0.514,1.872c0.362,0.626,1.042,1.244,1.734,1.473
					C437.44,176.795,437.701,175.83,437.092,175.628L437.092,175.628z"/>
			</g>
		</g>
		<g>
			<g>
				<path style="fill:#1E194A;" d="M430.664,168.286c-0.105-0.787,0.052-1.916,0.557-2.552c0.396-0.5-0.306-1.212-0.707-0.707
					c-0.674,0.848-0.993,2.184-0.85,3.259C429.748,168.915,430.749,168.924,430.664,168.286L430.664,168.286z"/>
			</g>
		</g>
		<g>
			<g>
				<path style="fill:#1E194A;" d="M439.997,160.38c1.628-0.557,3.261-0.113,4.927-0.077c0.645,0.014,0.644-0.986,0-1
					c-1.764-0.038-3.471-0.477-5.192,0.113C439.125,159.624,439.386,160.59,439.997,160.38L439.997,160.38z"/>
			</g>
		</g>
		<g>
			<g>
				<path style="fill:#1E194A;" d="M441.494,173.141c-0.934,1.405-1.552,3.003-2.02,4.618c-0.07,0.243,0.084,0.567,0.35,0.615
					c1.669,0.297,3.419-0.058,5.101-0.077c0.645-0.007,0.645-1.007,0-1c-1.576,0.018-3.272,0.391-4.835,0.113
					c0.116,0.205,0.233,0.41,0.35,0.615c0.446-1.538,1.028-3.04,1.919-4.378C442.716,173.107,441.85,172.607,441.494,173.141
					L441.494,173.141z"/>
			</g>
		</g>
		<g>
			<g>
				<path style="fill:#1E194A;" d="M442.674,184.482c4.181-0.067,7.229-1.948,8.73-5.896c0.229-0.604-0.737-0.862-0.965-0.266
					c-1.333,3.507-4.076,5.103-7.766,5.162C442.029,183.493,442.028,184.493,442.674,184.482L442.674,184.482z"/>
			</g>
		</g>
		<g>
			<g>
				<path style="fill:#1E194A;" d="M460.802,193.179c6.445-1.813,9.492-9.846,9.738-15.945c0.026-0.645-0.974-0.643-1,0
					c-0.229,5.645-3.029,13.301-9.004,14.981C459.916,192.39,460.18,193.355,460.802,193.179L460.802,193.179z"/>
			</g>
		</g>
		<path style="fill:#1E194A;" d="M431.43,211.721c4.686,3.563,14.432,0.748,21.647-9.278c7.217-10.026,12.842-21.927,14.433-26.707
			c1.593-4.779,1.686-8.436-0.094-10.309c-1.78-1.874-3.092-0.187-2.062,1.22c1.031,1.404,2.437,3.561-0.844,10.12
			c-3.281,6.56-11.339,23.054-17.899,29.051c-6.56,5.998-10.683,5.622-13.025,3.187C432.366,208.16,431.43,211.721,431.43,211.721z"
			/>
		<path style="fill:#1E194A;" d="M431.382,210.737c-2.811,3.796-9.418,14.62-11.103,27.27c-1.689,12.651-4.031,27.787-14.152,35.378
			c-10.12,7.591-23.475,5.108-28.395-4.028c-3.093-7.31-3.913-15.043-5.178-16.589c-1.828-1.406-1.441,2.126-1.441,2.126
			c2.127,6.466,3.058,15.867,7.696,20.083c4.64,4.218,16.366,12.285,31.347-2.248c12.559-12.183,10.872-34.017,14.808-45.544
			c3.936-11.526,9.09-15.604,9.09-15.604L431.382,210.737z"/>
		<path style="fill:#FAB191;" d="M417.606,260.781c-3.654,0.983-17.853,1.968-20.523,2.248c-2.671,0.281-8.013-4.217-11.387-7.169
			c-3.374-2.952-11.666-8.574-14.057-8.013c-2.391,0.563,0.141,1.969,0.141,1.969c-1.547,1.123,0.843,3.795,1.688,4.076
			c1.265,2.53,2.529,5.623,5.341,9.137s9.98,9.559,13.214,10.402c3.232,0.844,25.725,0.844,31.77-0.844
			C429.836,270.901,417.606,260.781,417.606,260.781z"/>
		<path style="fill:#FAB191;" d="M454.014,403.178c1.125,3.094,2.811,9.56,2.811,9.56c0.844,3.654,5.342,9.136,10.401,8.292
			c5.06-0.842,8.716-9.979,8.716-9.979l-4.498-14.058L454.014,403.178z"/>
		<path style="fill:#FAB191;" d="M488.031,423.42c0.563,2.672-0.141,6.186-2.67,9.84c-2.531,3.654,7.027,6.607,10.402,6.748
			c3.372,0.14,12.932-4.219,12.932-5.482c0-1.266-0.702-14.197-0.702-14.197L488.031,423.42z"/>
		<path style="fill:#EA575F;" d="M455.232,299.813c-5.811,2.25-20.991,7.872-24.553,18.555c-3.561,10.685,0.375,25.68,6.372,44.608
			c5.998,18.93,10.31,41.232,11.621,43.482c5.436-1.124,30.551-8.809,30.551-8.809c-2.812-6.559-9.371-35.235-9.371-35.235
			l5.811-0.375c0,0,2.813,29.425,3.561,36.547c0.749,7.123,2.436,20.992,2.624,23.242c0.188,2.249,0.748,4.499,1.5,4.686
			c0.749,0.188,21.741-2.813,27.738-4.313c3.187-1.123,3.749-1.121,3-4.121c-0.751-3-2.063-28.49-2.626-34.487
			c-0.562-5.998-3.186-13.119-3.748-21.179c-0.561-8.06-1.311-13.494-1.311-13.494L455.232,299.813z"/>
		<path style="fill:#78BAC2;" d="M484.518,187.965c-2.811,1.547-14.339,8.716-15.604,10.964c-1.264,2.25,0.705,7.31,0.705,7.31
			c-2.953,1.688-4.59,3.389-4.781,4.639c-1.171,7.686,0.282,17.011,0.282,17.011c-4.64,6.185-15.323,20.523-19.399,23.475
			c-4.076,2.952-28.536,8.435-29.099,9.276c1.968,8.013,6.186,20.805,6.606,20.945c0.423,0.142,32.473-11.525,36.83-15.321
			c4.358-3.796,9.278-8.997,9.278-8.997s4.498,21.648,4.076,22.914c-0.422,1.264-20.616,11.012-23.239,35.751
			c-2.625,24.741-0.751,45.169-0.939,46.856c-0.188,1.686,3.56,1.686,5.997,1.686s32.614,0,43.671-0.563
			c11.059-0.561,20.43-0.749,20.43-1.872c0-1.124-5.061-37.674-6.935-46.295c14.432,0,23.24-7.311,21.18-26.99
			c-2.061-19.679-13.12-49.668-17.057-61.288c-3.935-11.62-15.932-29.614-29.237-32.801
			C485.22,191.668,485.69,188.012,484.518,187.965z"/>
		<g>
			<g>
				<path style="fill:#1E194A;" d="M381.067,256.732c-1.212-1.589-2.894-2.799-4.367-4.135c-1.628-1.478-3.412-2.992-5.631-3.404
					c-0.63-0.117-0.899,0.846-0.266,0.964c2.066,0.384,3.665,1.787,5.19,3.147c1.404,1.252,3.065,2.431,4.211,3.932
					C380.59,257.742,381.459,257.245,381.067,256.732L381.067,256.732z"/>
			</g>
		</g>
		<g>
			<g>
				<path style="fill:#1E194A;" d="M372.231,254.043c1.5,0.656,2.616,1.825,3.753,2.968c1.243,1.249,2.445,2.505,3.596,3.842
					c0.421,0.489,1.125-0.221,0.707-0.707c-1.15-1.337-2.347-2.6-3.596-3.843c-1.204-1.195-2.377-2.433-3.956-3.123
					C372.151,252.924,371.642,253.785,372.231,254.043L372.231,254.043z"/>
			</g>
		</g>
		<g>
			<g>
				<path style="fill:#1E194A;" d="M383.674,237.48c-1.188-0.174-10.561-3.348-9.564,0.45c0.487,1.855,3.371,2.679,4.93,3.129
					c1.887,0.544,3.665,1.013,5.469,1.833c1.762,0.801,3.351,1.413,5.311,1.194c0.634-0.071,0.641-1.071,0-1
					c-2.666,0.297-4.879-1.181-7.282-2.092c-1.912-0.725-3.913-0.955-5.77-1.854c-0.702-0.34-2.601-1.969-0.821-2.085
					c0.728-0.047,1.478,0.107,2.188,0.237c1.777,0.326,3.473,0.889,5.273,1.152C384.039,238.536,384.31,237.573,383.674,237.48
					L383.674,237.48z"/>
			</g>
		</g>
		<g>
			<g>
				<path style="fill:#1E194A;" d="M444.242,252.418c1.514,1.257,2.661,2.893,3.717,4.537c0.347,0.541,1.213,0.04,0.863-0.504
					c-1.098-1.709-2.3-3.435-3.873-4.74C444.457,251.303,443.745,252.006,444.242,252.418L444.242,252.418z"/>
			</g>
		</g>
		<g>
			<g>
				<path style="fill:#1E194A;" d="M439.645,254.887c4.217-2.831,8.082-5.376,11.558-9.136c3.401-3.68,6.999-7.308,10.045-11.288
					c3.253-4.252,5.714-9.027,8.567-13.54c1.391-2.199,2.945-4.324,4.71-6.235c1.912-2.07,4.514-2.728,7.011-3.799
					c0.592-0.253,0.081-1.115-0.504-0.863c-2.1,0.9-4.339,1.445-6.132,2.916c-1.593,1.307-2.853,3.053-4.055,4.711
					c-3.11,4.293-5.523,9.038-8.445,13.457c-3.071,4.645-7.047,8.48-10.726,12.625c-1.748,1.97-3.551,3.877-5.561,5.584
					c-2.131,1.808-4.658,3.151-6.972,4.705C438.609,254.381,439.108,255.247,439.645,254.887L439.645,254.887z"/>
			</g>
		</g>
		<g>
			<g>
				<path style="fill:#1E194A;" d="M464.215,210.464c-1.077,5.344-0.593,10.931,0.122,16.299c0.084,0.629,1.085,0.638,1,0
					c-0.701-5.265-1.214-10.791-0.157-16.033C465.307,210.1,464.343,209.832,464.215,210.464L464.215,210.464z"/>
			</g>
		</g>
		<g>
			<g>
				<path style="fill:#1E194A;" d="M458.591,210.042c-3.152,7.763,0.144,16.36,1.548,24.163c0.114,0.634,1.078,0.365,0.965-0.266
					c-1.375-7.635-4.627-16.051-1.548-23.632C459.798,209.71,458.83,209.453,458.591,210.042L458.591,210.042z"/>
			</g>
		</g>
		<g>
			<g>
				<path style="fill:#1E194A;" d="M454.375,226.895c0.854,3.894,1.281,8.015,2.53,11.808c0.201,0.609,1.167,0.349,0.965-0.266
					c-1.25-3.792-1.676-7.914-2.53-11.808C455.201,226,454.237,226.267,454.375,226.895L454.375,226.895z"/>
			</g>
		</g>
		<g>
			<g>
				<path style="fill:#1E194A;" d="M459.146,267.461c5.434-4.875,10.199-10.257,15.387-15.362c2.517-2.477,5.082-4.892,7.387-7.574
					c0.986-1.148,2.005-2.283,2.93-3.481c1.027-1.331,2.403-2.41,3.192-3.908c0.3-0.57-0.563-1.076-0.863-0.505
					c-0.642,1.218-1.729,2.078-2.594,3.131c-1.115,1.36-2.254,2.698-3.372,4.055c-2.243,2.72-4.868,5.117-7.387,7.574
					c-2.587,2.523-4.888,5.292-7.4,7.885c-2.538,2.618-5.273,5.044-7.986,7.478C457.958,267.185,458.668,267.891,459.146,267.461
					L459.146,267.461z"/>
			</g>
		</g>
		<g>
			<g>
				<path style="fill:#1E194A;" d="M482.099,247.295c3.909-2.943,8.45-4.906,12.189-8.09c0.492-0.418-0.219-1.123-0.707-0.707
					c-3.672,3.127-8.147,5.042-11.986,7.934C481.086,246.814,481.583,247.683,482.099,247.295L482.099,247.295z"/>
			</g>
		</g>
		<g>
			<g>
				<path style="fill:#1E194A;" d="M468.572,256.695c0.923,6.103,2.302,12.457,4.169,18.339c0.47,1.48,1.125,3.243,0.447,4.765
					c-0.461,1.036-2.303,1.615-3.239,2.099c-2.511,1.295-4.6,3.461-6.438,5.555c-3.81,4.339-7.224,9.275-9.837,14.419
					c-1.309,2.575-2.514,5.319-3.296,8.104c-0.795,2.832-0.381,5.766-1.065,8.588c-0.151,0.627,0.813,0.893,0.965,0.266
					c0.683-2.817,0.404-5.739,1.065-8.588c0.755-3.255,2.426-6.435,3.977-9.376c2.99-5.673,7.177-11.49,11.927-15.801
					c1.94-1.762,4.531-2.476,6.403-4.221c1.28-1.193,0.808-3.253,0.455-4.715c-1.581-6.552-3.558-13.01-4.568-19.698
					C469.44,255.794,468.477,256.065,468.572,256.695L468.572,256.695z"/>
			</g>
		</g>
		<g>
			<g>
				<path style="fill:#1E194A;" d="M475.589,266.054c4.025,3.4,8.824,5.696,13.494,8.068c5.156,2.617,10.743,4.364,16.388,5.556
					c0.629,0.133,0.897-0.831,0.266-0.965c-5.301-1.119-10.434-2.76-15.343-5.061c-4.87-2.284-9.972-4.82-14.098-8.305
					C475.807,264.934,475.096,265.637,475.589,266.054L475.589,266.054z"/>
			</g>
		</g>
		<g>
			<g>
				<path style="fill:#1E194A;" d="M481.212,274.066c3.811,3.078,8.506,4.37,12.753,6.685c0.566,0.309,1.07-0.555,0.504-0.863
					c-4.159-2.268-8.816-3.514-12.55-6.528C481.422,272.958,480.71,273.661,481.212,274.066L481.212,274.066z"/>
			</g>
		</g>
		<g>
			<g>
				<path style="fill:#1E194A;" d="M508.775,300.976c0.873,2.18,1.381,4.421,1.801,6.726c0.414,2.268,1.122,4.616,1.274,6.918
					c0.042,0.64,1.043,0.645,1,0c-0.122-1.854-0.688-3.654-1.012-5.478c-0.511-2.876-1.009-5.708-2.099-8.432
					C509.503,300.119,508.536,300.377,508.775,300.976L508.775,300.976z"/>
			</g>
		</g>
		<g>
			<g>
				<path style="fill:#1E194A;" d="M504.89,305.031c2.226,3.381,5.21,6.75,6.585,10.556c0.218,0.604,1.099,0.37,0.964-0.266
					c-0.009-0.044-0.019-0.088-0.027-0.132c-0.134-0.631-1.098-0.363-0.965,0.266c0.01,0.044,0.018,0.088,0.028,0.132
					c0.321-0.088,0.643-0.177,0.964-0.266c-1.412-3.91-4.396-7.318-6.686-10.794C505.4,303.991,504.534,304.491,504.89,305.031
					L504.89,305.031z"/>
			</g>
		</g>
		<g>
			<g>
				<path style="fill:#1E194A;" d="M486.767,193.932c-2.401,0.243-4.667,1.919-6.536,3.34c-2.193,1.666-3.807,3.99-5.423,6.185
					c-0.383,0.52,0.485,1.018,0.863,0.505c1.418-1.926,2.833-3.817,4.604-5.436c1.585-1.449,4.321-3.374,6.491-3.594
					C487.401,194.867,487.408,193.867,486.767,193.932L486.767,193.932z"/>
			</g>
		</g>
		<g>
			<g>
				<path style="fill:#1E194A;" d="M452.407,208.215c-0.708,3.219,0.712,6.204,0.686,9.41c-0.005,0.645,0.995,0.645,1,0
					c0.025-3.088-1.4-6.055-0.721-9.145C453.51,207.852,452.546,207.585,452.407,208.215L452.407,208.215z"/>
			</g>
		</g>
		<g>
			<g>
				<path style="fill:#1E194A;" d="M445.186,251.794c1.888,0.823,3.858,2.171,5.023,3.896c0.358,0.532,1.225,0.032,0.863-0.504
					c-1.258-1.865-3.336-3.364-5.382-4.256C445.105,250.676,444.597,251.537,445.186,251.794L445.186,251.794z"/>
			</g>
		</g>
		<g>
			<g>
				<path style="fill:#1E194A;" d="M464.917,260.772c0.771,3.7,1.668,7.369,2.552,11.043c0.441,1.837,0.868,3.677,1.275,5.521
					c0.346,1.566,1.049,3.674,0.02,5.121c-0.375,0.526,0.493,1.025,0.863,0.504c1.635-2.297,0.007-6.273-0.542-8.656
					c-1.06-4.603-2.241-9.174-3.203-13.799C465.75,259.875,464.786,260.143,464.917,260.772L464.917,260.772z"/>
			</g>
		</g>
		<path style="fill:#39327A;" d="M456.263,413.721c1.969-1.266,5.764-0.844,7.731,1.124c1.968,1.969,3.655,3.233,5.342,1.688
			c1.687-1.548,6.326-6.045,6.326-6.045c0.702,1.405,3.514,5.202,0.14,9.982c-3.374,4.778-7.168,10.401-9.277,14.338
			c-2.108,3.936-4.64,9.277-12.37,9.699c-7.731,0.421-12.932,1.265-13.916-1.266c-0.984-2.53,7.31-3.794,9.839-8.574
			c2.531-4.78,3.233-11.387,5.062-14.9C456.966,416.251,455.139,414.565,456.263,413.721z"/>
		<path style="fill:#39327A;" d="M485.08,432.275c2.39-0.842,5.622-0.983,7.309,1.969c1.688,2.952,3.233,4.076,4.357,3.795
			c1.125-0.281,7.17-3.373,8.857-4.217c1.687-0.844,3.374-2.249,3.374-2.249c0.421,2.249,1.123,8.715-0.422,10.542
			c-1.547,1.828-9.42,5.201-19.681,9.699c-10.262,4.5-14.76,8.013-20.664,6.748c-5.903-1.266-6.466-3.796-2.249-7.31
			c4.217-3.515,9.98-8.855,12.09-10.823C480.16,438.461,483.814,432.838,485.08,432.275z"/>
		<g>
			<g>
				<path style="fill:#1E194A;" d="M403.118,236.913c-1.18,2.336-0.69,5.335-0.491,7.842c0.185,2.344-0.459,5.489,0.912,7.562
					c0.353,0.535,1.22,0.035,0.863-0.504c-1.146-1.735-0.688-4.66-0.751-6.655c-0.078-2.449-0.826-5.45,0.33-7.74
					C404.271,236.843,403.409,236.337,403.118,236.913L403.118,236.913z"/>
			</g>
		</g>
		<g>
			<g>
				<path style="fill:#1E194A;" d="M419.091,261.475c0.911,5.227,2.868,10.2,4.639,15.183c0.215,0.604,1.181,0.344,0.965-0.266
					c-1.77-4.982-3.728-9.955-4.639-15.183C419.945,260.574,418.981,260.844,419.091,261.475L419.091,261.475z"/>
			</g>
		</g>
		<g>
			<g>
				<path style="fill:#1E194A;" d="M438.058,234.426c1.733,1.403,3.75,2.394,5.482,3.796c0.496,0.402,1.208-0.301,0.707-0.707
					c-1.733-1.403-3.75-2.394-5.482-3.796C438.269,233.317,437.557,234.02,438.058,234.426L438.058,234.426z"/>
			</g>
		</g>
		<g>
			<g>
				<path style="fill:#1E194A;" d="M440.519,234.432c1.955,0.149,3.887,0.413,5.771,0.966c0.62,0.183,0.883-0.783,0.266-0.964
					c-1.968-0.579-3.996-0.847-6.037-1.003C439.875,233.382,439.88,234.383,440.519,234.432L440.519,234.432z"/>
			</g>
		</g>
		<g>
			<g>
				<path style="fill:#1E194A;" d="M367.975,249.494c-1.196,2.529-0.228,6.646,3.033,6.797c0.645,0.03,0.642-0.971,0-1
					c-2.44-0.113-3.031-3.471-2.17-5.292C369.112,249.419,368.25,248.911,367.975,249.494L367.975,249.494z"/>
			</g>
		</g>
		<g>
			<g>
				<path style="fill:#1E194A;" d="M449.234,402.836c8.534-0.116,16.582-3.118,24.498-6.016c0.601-0.22,0.341-1.187-0.266-0.965
					c-7.829,2.866-15.79,5.865-24.232,5.98C448.59,401.845,448.589,402.845,449.234,402.836L449.234,402.836z"/>
			</g>
		</g>
		<g>
			<g>
				<path style="fill:#1E194A;" d="M484.846,422.701c4.916-0.03,9.766-0.547,14.594-1.452c2.245-0.42,4.461-0.983,6.749-1.091
					c1.435-0.067,2.969-0.104,4.212-0.898c0.542-0.346,0.041-1.212-0.504-0.863c-1.404,0.896-3.276,0.728-4.879,0.823
					c-1.954,0.115-3.927,0.69-5.844,1.065c-4.73,0.924-9.512,1.386-14.328,1.416C484.201,421.705,484.2,422.705,484.846,422.701
					L484.846,422.701z"/>
			</g>
		</g>
		<g>
			<g>
				<path style="fill:#1E194A;" d="M451.725,361.584c4.294,0.703,8.587,0.053,12.877-0.357c5.422-0.518,10.817-0.395,16.252-0.321
					c10.672,0.143,21.482-0.57,32.105-1.554c0.637-0.059,0.643-1.06,0-1c-9.982,0.924-20.125,1.574-30.151,1.567
					c-5.15-0.003-10.263-0.22-15.41,0.095c-5.107,0.313-10.301,1.442-15.407,0.605C451.359,360.516,451.089,361.479,451.725,361.584
					L451.725,361.584z"/>
			</g>
		</g>
		<g>
			<g>
				<path style="fill:#1E194A;" d="M434.302,145.025c-0.009,2.024,1.035,4.201,2.042,5.924c0.996,1.704,2.665,2.905,4.392,3.777
					c0.573,0.29,1.08-0.572,0.504-0.863c-3.153-1.593-5.954-5.133-5.938-8.838C435.305,144.38,434.305,144.381,434.302,145.025
					L434.302,145.025z"/>
			</g>
		</g>
		<g>
			<g>
				<path style="fill:#1E194A;" d="M469.544,135.885c4.472,4.035,7.487,9.277,8.447,15.243c0.103,0.635,1.066,0.365,0.965-0.266
					c-0.985-6.121-4.119-11.547-8.705-15.685C469.773,134.747,469.064,135.452,469.544,135.885L469.544,135.885z"/>
			</g>
		</g>
	</g>
</g>
</svg>
