<?xml version="1.0" encoding="utf-8"?>
<!-- Generator: Adobe Illustrator 27.5.0, SVG Export Plug-In . SVG Version: 6.00 Build 0)  -->
<svg version="1.1" xmlns="http://www.w3.org/2000/svg" xmlns:xlink="http://www.w3.org/1999/xlink" x="0px" y="0px"
	 viewBox="0 0 500 500" style="enable-background:new 0 0 500 500;" xml:space="preserve">
<g id="BACKGROUND">
	<rect id="XMLID_1_" style="fill:#FFFFFF;" width="500" height="500"/>
</g>
<g id="OBJECTS">
	<g id="XMLID_300_">
	</g>
	<rect id="XMLID_283_" x="88.099" y="198.906" style="fill:#99806B;" width="104.995" height="9.375"/>
	<g>
		<rect id="XMLID_265_" x="90.264" y="269.423" style="fill:#CFBC8A;" width="185.991" height="139.493"/>
		<rect id="XMLID_266_" x="105.7" y="284.333" style="fill:#99806B;" width="156.633" height="124.583"/>
		<rect id="XMLID_267_" x="113.7" y="292.333" style="fill:#B4A485;" width="140.633" height="116.22"/>
	</g>
	<g id="XMLID_28_">
		<rect id="XMLID_151_" x="323" y="68.168" style="fill:#95B187;" width="27" height="338.499"/>
		<rect id="XMLID_3_" x="323" y="71.535" style="fill:#417C66;" width="7" height="1.638"/>
		<rect id="XMLID_168_" x="323" y="79.542" style="fill:#417C66;" width="7" height="1.638"/>
		<rect id="XMLID_170_" x="323" y="87.55" style="fill:#417C66;" width="7" height="1.638"/>
		<rect id="XMLID_174_" x="323" y="95.557" style="fill:#417C66;" width="7" height="1.638"/>
		<rect id="XMLID_176_" x="323" y="103.565" style="fill:#417C66;" width="7" height="1.638"/>
		<rect id="XMLID_177_" x="323" y="111.572" style="fill:#417C66;" width="7" height="1.638"/>
		<rect id="XMLID_178_" x="323" y="119.58" style="fill:#417C66;" width="7" height="1.638"/>
		<rect id="XMLID_179_" x="323" y="127.587" style="fill:#417C66;" width="7" height="1.638"/>
		<rect id="XMLID_184_" x="323" y="135.595" style="fill:#417C66;" width="7" height="1.638"/>
		<rect id="XMLID_185_" x="323" y="143.602" style="fill:#417C66;" width="7" height="1.638"/>
		<rect id="XMLID_188_" x="323" y="151.61" style="fill:#417C66;" width="7" height="1.638"/>
		<rect id="XMLID_189_" x="323" y="159.617" style="fill:#417C66;" width="7" height="1.638"/>
		<rect id="XMLID_190_" x="323" y="167.625" style="fill:#417C66;" width="7" height="1.638"/>
		<rect id="XMLID_191_" x="323" y="175.632" style="fill:#417C66;" width="7" height="1.638"/>
		<rect id="XMLID_192_" x="323" y="183.64" style="fill:#417C66;" width="7" height="1.638"/>
		<rect id="XMLID_193_" x="323" y="191.647" style="fill:#417C66;" width="7" height="1.638"/>
		<rect id="XMLID_194_" x="323" y="199.655" style="fill:#417C66;" width="7" height="1.638"/>
		<rect id="XMLID_195_" x="323" y="207.662" style="fill:#417C66;" width="7" height="1.638"/>
		<rect id="XMLID_196_" x="323" y="215.67" style="fill:#417C66;" width="7" height="1.638"/>
		<rect id="XMLID_197_" x="323" y="223.677" style="fill:#417C66;" width="7" height="1.638"/>
		<rect id="XMLID_199_" x="323" y="231.685" style="fill:#417C66;" width="7" height="1.638"/>
		<rect id="XMLID_200_" x="323" y="239.692" style="fill:#417C66;" width="7" height="1.638"/>
		<rect id="XMLID_202_" x="323" y="247.7" style="fill:#417C66;" width="7" height="1.638"/>
		<rect id="XMLID_203_" x="323" y="255.707" style="fill:#417C66;" width="7" height="1.638"/>
		<rect id="XMLID_204_" x="323" y="263.715" style="fill:#417C66;" width="7" height="1.638"/>
		<rect id="XMLID_205_" x="323" y="271.722" style="fill:#417C66;" width="7" height="1.638"/>
		<rect id="XMLID_206_" x="323" y="279.73" style="fill:#417C66;" width="7" height="1.638"/>
		<rect id="XMLID_207_" x="323" y="287.737" style="fill:#417C66;" width="7" height="1.638"/>
		<rect id="XMLID_208_" x="323" y="295.745" style="fill:#417C66;" width="7" height="1.638"/>
		<rect id="XMLID_209_" x="323" y="303.752" style="fill:#417C66;" width="7" height="1.638"/>
		<rect id="XMLID_210_" x="323" y="311.76" style="fill:#417C66;" width="7" height="1.638"/>
		<rect id="XMLID_211_" x="323" y="319.767" style="fill:#417C66;" width="7" height="1.638"/>
		<rect id="XMLID_212_" x="323" y="327.775" style="fill:#417C66;" width="7" height="1.638"/>
		<rect id="XMLID_213_" x="323" y="335.782" style="fill:#417C66;" width="7" height="1.638"/>
		<rect id="XMLID_214_" x="323" y="343.79" style="fill:#417C66;" width="7" height="1.638"/>
		<rect id="XMLID_216_" x="323" y="351.797" style="fill:#417C66;" width="7" height="1.638"/>
		<rect id="XMLID_217_" x="323" y="359.805" style="fill:#417C66;" width="7" height="1.638"/>
		<rect id="XMLID_218_" x="323" y="367.812" style="fill:#417C66;" width="7" height="1.638"/>
		<rect id="XMLID_219_" x="323" y="375.82" style="fill:#417C66;" width="7" height="1.638"/>
		<rect id="XMLID_220_" x="323" y="383.827" style="fill:#417C66;" width="7" height="1.638"/>
		<rect id="XMLID_221_" x="323" y="391.835" style="fill:#417C66;" width="7" height="1.638"/>
		<rect id="XMLID_222_" x="323" y="399.842" style="fill:#417C66;" width="7" height="1.638"/>
		<rect id="XMLID_264_" x="342.667" y="71.535" style="fill:#417C66;" width="7" height="1.638"/>
		<rect id="XMLID_263_" x="342.667" y="79.542" style="fill:#417C66;" width="7" height="1.638"/>
		<rect id="XMLID_262_" x="342.667" y="87.55" style="fill:#417C66;" width="7" height="1.638"/>
		<rect id="XMLID_261_" x="342.667" y="95.557" style="fill:#417C66;" width="7" height="1.638"/>
		<rect id="XMLID_260_" x="342.667" y="103.565" style="fill:#417C66;" width="7" height="1.638"/>
		<rect id="XMLID_259_" x="342.667" y="111.572" style="fill:#417C66;" width="7" height="1.638"/>
		<rect id="XMLID_258_" x="342.667" y="119.58" style="fill:#417C66;" width="7" height="1.638"/>
		<rect id="XMLID_257_" x="342.667" y="127.587" style="fill:#417C66;" width="7" height="1.638"/>
		<rect id="XMLID_256_" x="342.667" y="135.595" style="fill:#417C66;" width="7" height="1.638"/>
		<rect id="XMLID_255_" x="342.667" y="143.602" style="fill:#417C66;" width="7" height="1.638"/>
		<rect id="XMLID_254_" x="342.667" y="151.61" style="fill:#417C66;" width="7" height="1.638"/>
		<rect id="XMLID_253_" x="342.667" y="159.617" style="fill:#417C66;" width="7" height="1.638"/>
		<rect id="XMLID_252_" x="342.667" y="167.625" style="fill:#417C66;" width="7" height="1.638"/>
		<rect id="XMLID_251_" x="342.667" y="175.632" style="fill:#417C66;" width="7" height="1.638"/>
		<rect id="XMLID_250_" x="342.667" y="183.64" style="fill:#417C66;" width="7" height="1.638"/>
		<rect id="XMLID_249_" x="342.667" y="191.647" style="fill:#417C66;" width="7" height="1.638"/>
		<rect id="XMLID_248_" x="342.667" y="199.655" style="fill:#417C66;" width="7" height="1.638"/>
		<rect id="XMLID_247_" x="342.667" y="207.662" style="fill:#417C66;" width="7" height="1.638"/>
		<rect id="XMLID_246_" x="342.667" y="215.67" style="fill:#417C66;" width="7" height="1.638"/>
		<rect id="XMLID_245_" x="342.667" y="223.677" style="fill:#417C66;" width="7" height="1.638"/>
		<rect id="XMLID_244_" x="342.667" y="231.685" style="fill:#417C66;" width="7" height="1.638"/>
		<rect id="XMLID_243_" x="342.667" y="239.692" style="fill:#417C66;" width="7" height="1.638"/>
		<rect id="XMLID_242_" x="342.667" y="247.7" style="fill:#417C66;" width="7" height="1.638"/>
		<rect id="XMLID_241_" x="342.667" y="255.707" style="fill:#417C66;" width="7" height="1.638"/>
		<rect id="XMLID_240_" x="342.667" y="263.715" style="fill:#417C66;" width="7" height="1.638"/>
		<rect id="XMLID_239_" x="342.667" y="271.722" style="fill:#417C66;" width="7" height="1.638"/>
		<rect id="XMLID_238_" x="342.667" y="279.73" style="fill:#417C66;" width="7" height="1.638"/>
		<rect id="XMLID_237_" x="342.667" y="287.737" style="fill:#417C66;" width="7" height="1.638"/>
		<rect id="XMLID_236_" x="342.667" y="295.745" style="fill:#417C66;" width="7" height="1.638"/>
		<rect id="XMLID_235_" x="342.667" y="303.752" style="fill:#417C66;" width="7" height="1.638"/>
		<rect id="XMLID_234_" x="342.667" y="311.76" style="fill:#417C66;" width="7" height="1.638"/>
		<rect id="XMLID_233_" x="342.667" y="319.767" style="fill:#417C66;" width="7" height="1.638"/>
		<rect id="XMLID_232_" x="342.667" y="327.775" style="fill:#417C66;" width="7" height="1.638"/>
		<rect id="XMLID_231_" x="342.667" y="335.782" style="fill:#417C66;" width="7" height="1.638"/>
		<rect id="XMLID_230_" x="342.667" y="343.79" style="fill:#417C66;" width="7" height="1.638"/>
		<rect id="XMLID_229_" x="342.667" y="351.797" style="fill:#417C66;" width="7" height="1.638"/>
		<rect id="XMLID_228_" x="342.667" y="359.805" style="fill:#417C66;" width="7" height="1.638"/>
		<rect id="XMLID_227_" x="342.667" y="367.812" style="fill:#417C66;" width="7" height="1.638"/>
		<rect id="XMLID_226_" x="342.667" y="375.82" style="fill:#417C66;" width="7" height="1.638"/>
		<rect id="XMLID_225_" x="342.667" y="383.827" style="fill:#417C66;" width="7" height="1.638"/>
		<rect id="XMLID_224_" x="342.667" y="391.835" style="fill:#417C66;" width="7" height="1.638"/>
		<rect id="XMLID_223_" x="342.667" y="399.842" style="fill:#417C66;" width="7" height="1.638"/>
	</g>
	<g id="XMLID_145_">
		<path id="XMLID_140_" style="fill:#562911;" d="M217.305,388.417L217.305,388.417c2.97,2.398,7.155,2.58,10.322,0.449l0.668-0.449
			l22.156,11.41c1.439,0.741,2.386,2.191,2.493,3.817l0,0c0.177,2.673-1.924,4.94-4.579,4.94h-28.503
			c-1.831,0-3.462-1.168-4.066-2.912l-1.446-4.17c-0.671-1.937-0.626-4.05,0.13-5.955L217.305,388.417z"/>
		<path id="XMLID_146_" style="fill:#562911;" d="M143.305,388.417h2c2.975,2.402,7.148,2.585,10.318,0.452l0.672-0.452
			l22.156,11.41c1.439,0.741,2.386,2.191,2.493,3.817l0,0c0.177,2.673-1.924,4.94-4.579,4.94h-28.503
			c-1.831,0-3.462-1.168-4.066-2.912l-1.446-4.17c-0.067-0.194-0.127-0.389-0.182-0.586c-1.056-3.792-0.71-7.839,0.74-11.499
			L143.305,388.417z"/>
		<g id="XMLID_136_">
			<path id="XMLID_120_" style="fill:#2D4C87;" d="M210.464,267.265c0,0,21.203,34.402,27.87,49.735c6.667,15.333-4,74.667-4,74.667
				l-22,1.333c0,0,11.333-54,7.333-65.333C215.667,316.333,188,289,192,285c4.346-4.346,3.667,40-3.667,56
				C184.776,348.761,163,392,163,392l-23.333-0.333c0,0,30.333-54.333,32.333-63.667s-13.667-31-13-40.333
				c0.667-9.333,5.013-20.402,5.013-20.402H210.464z"/>
			<g id="XMLID_32_">
				<path id="XMLID_14_" style="fill:#F0C0B2;" d="M241.798,240.711l6.168-3.833c0,0,3.186-1.921,4.211-7.381
					c1.026-5.459,1.646-7.786,3.619-7.467c5.032,0.814,2.527,5.954,2.027,8.567c-0.5,2.614,4.5-1.763,7,0.925
					c2.5,2.688,0,5.188,0,5.188s3.928,0.039,3.692,4c-0.098,1.649-1.397,2.896-1.397,2.896s1.953,2.047,1.397,3.547
					c-0.772,2.082-2.192,3.057-2.192,3.057s1.5,0.761-1,3.131c-2.5,2.369-17.357-2.777-17.357-2.777L241.798,240.711z"/>
				<g id="XMLID_6_">
					<path id="XMLID_186_" style="fill:#F26A4C;" d="M233.85,192.87c-1.82,7.99-3.36,9.29-4.18,11.46
						c-1.52,4-11.01,24.93-13.33,27.43c-2.33,2.5-5.87,35.5-5.87,35.5h-46.46c0,0,0.1-1.55,0.3-4.18
						c1.89-4.94,3.59-10.15,4.69-15.08c4.15-18.67,1.35-34.57,4.25-42.95c0.04-0.1,0.07-0.2,0.11-0.3c0.07-0.17,0.13-0.33,0.2-0.49
						c0.18-0.44,0.37-0.88,0.56-1.31c2.9-6.49,6.82-12.04,10.31-16.22c0.53-0.64,1.09-1.24,1.68-1.81c0.59-0.57,1.21-1.1,1.85-1.59
						c1.76-1.36,3.7-2.44,5.76-3.21c0.21-0.08,0.42-0.16,0.63-0.23c0.89-0.31,1.79-0.56,2.71-0.74c0.57-0.12,1.14-0.22,1.72-0.28
						c1.23-0.17,2.49-0.22,3.75-0.16l3.72,0.17l17.55,0.8C230.53,179.99,235.34,186.3,233.85,192.87z"/>
					<path id="XMLID_122_" style="fill:#D54540;" d="M210.582,215.571c-3.238,2.102-7.29,4.748-11.462,3.913
						c-2.469-0.494-4.785-1.546-6.665-2.973c-1.407-1.068-3.624-0.532-3.855,0.97l-0.981,6.369c-0.057,0.37-0.104,0.777,0.153,1.099
						c0.292,0.367,0.871,0.494,1.393,0.575c2.757,0.427,5.587,0.44,8.3,0.039c2.533-0.374,6.375-2.493,8.062-4.026
						c2.421-2.201,6.374-6.57,5.049-5.693"/>
					<path id="XMLID_7_" style="fill:#D54540;" d="M221.503,179.575L221.503,179.575c0,0-3.218,14.94-5.979,23.19
						c-2.761,8.25-6.526,20.25-8.393,27.25c-1.868,7-8.064,37.25-8.064,37.25h8.783l7.288-44.576l10.472-24.674l1.403-15.33
						L221.503,179.575z"/>
					<path id="XMLID_187_" style="fill:#B6D7E7;" d="M206.39,178.69c-0.05,0.06-0.1,0.12-0.14,0.19c-1.33,1.73-4.07,5.68-5.17,7.3
						c-15.13,22.12-16.27,46.91-17.79,64.38v0.01c-0.22,2.59,0.21,6.54,0.62,10.92c0.19,1.97,0.11,3.91-0.19,5.77
						c-1.73,10.72-11.02,19.07-22.43,19.07h-7.62c0,0,5.89-10.74,10.64-23.25c1.89-4.94,3.59-10.15,4.69-15.08
						c4.15-18.67,1.35-34.57,4.25-42.95c0.04-0.1,0.07-0.2,0.11-0.3c0.06-0.17,0.12-0.33,0.19-0.49c0.18-0.44,0.37-0.88,0.57-1.31
						c2.9-6.49,6.82-12.04,10.31-16.22c0.53-0.64,1.09-1.24,1.68-1.81c0.59-0.56,1.21-1.1,1.85-1.59c1.76-1.36,3.7-2.44,5.76-3.21
						c0.21-0.08,0.42-0.16,0.63-0.23c0.89-0.31,1.79-0.56,2.71-0.74c0.57-0.12,1.14-0.22,1.72-0.28c1.23-0.17,2.49-0.22,3.75-0.16
						L206.39,178.69z"/>
					<path id="XMLID_8_" style="fill:#7EB5CC;" d="M201.481,182.685l-0.4,3.49c-15.13,22.12-16.267,46.92-17.787,64.39
						l-9.738-39.839l15.81-13.461l1.121-8.23L201.481,182.685z"/>
					<path id="XMLID_29_" style="fill:#B6D7E7;" d="M233.843,192.865c-1.81,8,0.49,21.468-4.177,28.802
						c-2.297,3.61-12.464,6.793-13.333,10.098c-7.333,27.902,5.333,51.902,5.333,51.902l-11.225-9.278
						c-5.363-4.433-7.995-11.364-6.909-18.237c0.291-1.843,0.594-3.71,0.911-5.587c1.78-10.57,4-21.52,7.26-30.56
						c5.78-16.01,8.84-23.94,9.7-37.8c0.05-0.63,0.08-1.28,0.11-1.94c0.01-0.24,0-0.47-0.01-0.69l2.3,0.11
						C230.533,179.985,235.343,186.305,233.843,192.865z"/>
					<path id="XMLID_16_" style="fill:#B6D7E7;" d="M220.707,189.298l8.324-7.994c0,0,21.291,26.107,38.625,27.007
						c17.333,0.9,37-20.099,37-20.099l11.667,12.401c0,0-32.333,23.043-51.353,21.327c-10.692-0.965-37.956-17.053-37.956-17.053
						L220.707,189.298z"/>
					<path id="XMLID_13_" style="fill:#7EB5CC;" d="M223.363,198.515l2.06,9l-21.439,45.827c1.78-10.57,5.659-22.547,8.919-31.587
						c5.78-16.01,8.84-23.94,9.7-37.8l4.43,9.06L223.363,198.515z"/>
					<g id="XMLID_9_">
						<g id="XMLID_11_">
							<g id="XMLID_215_">
								<g id="XMLID_15_">
									<g id="XMLID_17_">
										<g id="XMLID_18_">
											<g id="XMLID_19_">
												<g id="XMLID_71_">
													<path id="XMLID_166_" style="fill:#562911;" d="M203.447,97.528c11.297,1.465,10.808-4.083,27.266,0.634
														c18.288,5.242,29.884,21.838,29.884,45.104c0,16.498-2.084,29.486-36.504,28.244
														c-13.908-0.502-1.234-0.271-12.607,0.433C149.013,175.807,176.513,94.037,203.447,97.528z"/>
													<g id="XMLID_162_">
														<path id="XMLID_165_" style="fill:#F0C0B2;" d="M192.295,138.218c0,0-5.01-7.501-10.438-3.209
															c-5.429,4.292,0.793,19.197,10.785,16.529L192.295,138.218z"/>
														<path id="XMLID_164_" style="fill:#CF9166;" d="M192.426,143.267l0.18,6.857c-8.539,0.897-12.492-11.189-8.496-12.533
															C187.341,136.503,190.932,140.905,192.426,143.267z"/>
														<path id="XMLID_163_" style="fill:#CF9166;" d="M182.576,139.921c0,0,0.02-0.051,0.052-0.147
															c0.033-0.096,0.09-0.231,0.158-0.399c0.15-0.328,0.402-0.801,0.842-1.121c0.11-0.081,0.235-0.142,0.362-0.193
															c0.067-0.023,0.131-0.048,0.205-0.066l0.049-0.014l0.003-0.001c-0.037,0.012-0.008,0.003-0.015,0.006l0.007-0.002
															l0.02-0.003l0.032-0.006l0.136-0.025c0.098-0.023,0.171-0.027,0.244-0.033c0.071-0.007,0.15-0.012,0.238-0.01
															c0.081-0.001,0.166,0,0.248,0.009c0.087,0.005,0.172,0.008,0.258,0.026c0.688,0.099,1.4,0.423,2.071,0.848
															c0.341,0.208,0.663,0.451,0.981,0.697c0.313,0.249,0.619,0.506,0.909,0.763c0.579,0.519,1.101,1.036,1.554,1.482
															c0.899,0.921,1.497,1.534,1.497,1.534s-0.068-0.207-0.223-0.553c-0.159-0.346-0.4-0.832-0.745-1.384
															c-0.175-0.275-0.367-0.574-0.594-0.873c-0.225-0.301-0.476-0.612-0.754-0.918c-0.559-0.611-1.22-1.221-1.997-1.712
															c-0.391-0.242-0.805-0.459-1.246-0.617c-0.44-0.159-0.907-0.26-1.369-0.277c-0.115-0.007-0.228-0.004-0.345,0.002
															c-0.112-0.001-0.224,0.016-0.335,0.033c-0.108,0.013-0.22,0.036-0.335,0.066c-0.115,0.028-0.224,0.055-0.301,0.09
															l-0.133,0.05l-0.081,0.03l-0.075,0.035c-0.099,0.042-0.19,0.095-0.279,0.151c-0.172,0.117-0.324,0.248-0.446,0.389
															c-0.254,0.277-0.392,0.583-0.477,0.85c-0.09,0.265-0.115,0.504-0.131,0.695c-0.015,0.191-0.004,0.344,0.001,0.445
															C182.571,139.868,182.576,139.921,182.576,139.921z"/>
													</g>
													<g id="XMLID_158_">
														<path id="XMLID_161_" style="fill:#F0C0B2;" d="M243.582,141.409c0,0,5.899-6.821,10.753-1.888
															c4.857,4.931-3.167,18.95-12.751,15.064L243.582,141.409z"/>
														<path id="XMLID_160_" style="fill:#CF9166;" d="M242.825,146.404l-1.027,6.781c8.359,1.951,13.78-9.552,9.981-11.382
															C248.709,140.324,244.599,144.245,242.825,146.404z"/>
														<path id="XMLID_159_" style="fill:#CF9166;" d="M253.013,144.305c0,0-0.011-0.052-0.034-0.151
															c-0.021-0.101-0.058-0.24-0.107-0.417c-0.105-0.345-0.298-0.845-0.697-1.218c-0.096-0.092-0.21-0.169-0.335-0.236
															c-0.064-0.029-0.124-0.065-0.191-0.088l-0.052-0.02l-0.003-0.001c0.038,0.017,0.008,0.002,0.014,0.005l-0.007,0
															l-0.017-0.006l-0.032-0.011l-0.133-0.042c-0.092-0.035-0.167-0.047-0.238-0.062c-0.07-0.019-0.147-0.031-0.234-0.041
															c-0.082-0.012-0.163-0.019-0.248-0.022c-0.085-0.005-0.169-0.01-0.257-0.004c-0.694,0.01-1.444,0.243-2.163,0.583
															c-0.362,0.166-0.714,0.366-1.06,0.572c-0.341,0.209-0.677,0.424-0.996,0.646c-0.639,0.442-1.221,0.889-1.725,1.276
															c-1.006,0.802-1.675,1.337-1.675,1.337s0.094-0.198,0.292-0.521c0.195-0.322,0.498-0.777,0.91-1.282
															c0.206-0.25,0.435-0.523,0.697-0.791c0.261-0.271,0.546-0.547,0.861-0.818c0.629-0.536,1.36-1.06,2.192-1.452
															c0.415-0.191,0.858-0.354,1.315-0.456c0.456-0.104,0.93-0.146,1.39-0.106c0.117,0.007,0.229,0.026,0.342,0.046
															c0.114,0.014,0.221,0.041,0.331,0.074c0.104,0.025,0.212,0.062,0.323,0.106c0.11,0.041,0.214,0.083,0.289,0.128
															l0.123,0.062l0.077,0.041l0.07,0.044c0.093,0.054,0.179,0.12,0.26,0.186c0.153,0.137,0.288,0.284,0.395,0.44
															c0.216,0.307,0.314,0.628,0.366,0.9c0.056,0.275,0.052,0.515,0.044,0.708c-0.009,0.193-0.038,0.342-0.056,0.442
															C253.024,144.253,253.013,144.305,253.013,144.305z"/>
													</g>
													<path id="XMLID_157_" style="fill:#F0C0B2;" d="M212.687,159.964l13.15,4.538c-0.224,0.717-7.364,23.203-6.552,20.782
														c0,0-2.383,3.773-8.249,1.851c-5.866-1.925-5.824-6.71-5.824-6.71C205.299,180.328,212.687,159.964,212.687,159.964z"
														/>
													<path id="XMLID_156_" style="fill:#F48470;" d="M209.992,166.817l13.878,4.194c0,0-3.252,9.655-3.203,9.672
														c0,0-2.023,3.326-7.889,1.404c-5.866-1.925-5.646-5.808-5.646-5.808C207.219,176.183,209.992,166.817,209.992,166.817z
														"/>
													<path id="XMLID_155_" style="fill:#CF9166;" d="M210.193,165.487l13.884,0.862c0,0,0.003,2.788,0.016,5.161
														c0.004,0.344-4.024,0.698-4.461,0.74c-3.432,0.327-6.752-0.317-10.007-1.365
														C209.884,168.475,210.193,165.487,210.193,165.487z"/>
													<path id="XMLID_154_" style="fill:#562911;" d="M185.633,132.05c-1.078,17.313,13.071,32.286,31.602,33.439
														c18.531,1.154,34.426-11.95,35.504-29.265c1.078-17.315-13.07-32.287-31.603-33.441
														C202.607,101.631,186.71,114.732,185.633,132.05z"/>
													<path id="XMLID_153_" style="fill:#F0C0B2;" d="M189.227,131.846c0.935-9.625,5.65-18.475,15.414-21.625
														c4.965-1.604,10.319-1.78,15.5-1.373c5.118,0.401,10.555,1.074,15.255,3.229c8.42,3.864,12.415,11.964,12.745,20.828
														c0.033,0.87,0.036,1.738,0.01,2.607c-0.053,1.991-0.023,3.958-0.221,5.948c-0.445,4.474-1.439,8.926-3.166,13.093
														c-2.096,5.056-5.355,9.664-9.881,12.896c-2.57,1.837-5.481,3.184-8.533,4.052c-5.038,1.43-9.769,1.712-14.865,0.442
														c-3.454-0.86-6.79-2.214-9.748-4.174c-4.907-3.249-8.437-8.043-10.489-13.461c-1.723-4.559-2.466-9.448-2.549-14.294
														c-0.046-2.653,0.07-5.339,0.492-7.96C189.204,131.985,189.22,131.916,189.227,131.846z"/>
													<path id="XMLID_152_" style="fill:#CF9166;" d="M210.937,141.939c-0.064,2.747-2.162,4.925-4.684,4.863
														c-2.524-0.06-4.518-2.338-4.456-5.086c0.064-2.748,2.159-4.925,4.684-4.864
														C209.005,136.912,210.999,139.19,210.937,141.939z"/>
													<path id="XMLID_149_" d="M210.963,140.775c-0.061,2.748-2.159,4.925-4.683,4.865c-2.525-0.06-4.52-2.337-4.456-5.085
														c0.061-2.747,2.158-4.928,4.683-4.866C209.03,135.751,211.027,138.028,210.963,140.775z"/>
													<path id="XMLID_148_" style="fill:#FFFFFF;" d="M209.426,139.39c-0.023,0.995-0.863,1.782-1.874,1.757
														c-1.014-0.024-1.816-0.848-1.793-1.846c0.023-0.994,0.863-1.781,1.874-1.756
														C208.646,137.568,209.449,138.395,209.426,139.39z"/>
													<path id="XMLID_147_" style="fill:#CF9166;" d="M238.172,142.852c-0.064,2.748-2.16,4.926-4.683,4.865
														c-2.525-0.06-4.519-2.339-4.456-5.085c0.062-2.747,2.158-4.926,4.683-4.865
														C236.238,137.828,238.235,140.103,238.172,142.852z"/>
													<path id="XMLID_144_" d="M238.198,141.69c-0.061,2.748-2.161,4.925-4.683,4.865c-2.525-0.061-4.52-2.337-4.456-5.086
														c0.061-2.746,2.16-4.926,4.683-4.863C236.265,136.666,238.262,138.944,238.198,141.69z"/>
													<path id="XMLID_143_" style="fill:#FFFFFF;" d="M236.66,140.306c-0.024,0.994-0.861,1.782-1.874,1.757
														c-1.014-0.024-1.816-0.851-1.794-1.847c0.024-0.994,0.862-1.782,1.876-1.757
														C235.88,138.484,236.683,139.31,236.66,140.306z"/>
													<path id="XMLID_142_" style="fill:#F48470;" d="M220.45,139.184c0,0-1.108,5.978,1.766,5.685
														c5.564-0.561,4.719,11.213-3.255,6.225c-3.011-1.881-1.233-12.026-1.233-12.026L220.45,139.184z"/>
													<path id="XMLID_141_" style="fill:#B43128;" d="M225.011,156.867c0,0-11.188,1.031-15.978-5.686
														c0,0-5.28,11.51,6.477,13.895C222.937,166.579,225.011,156.867,225.011,156.867z"/>
													<path id="XMLID_138_" style="fill:#F05736;" d="M220.707,164.054c-1.332,0.944-3.037,1.457-5.197,1.021
														c-2.668-0.542-4.455-1.553-5.63-2.791c-0.336-0.371-0.632-0.763-0.895-1.169c-0.007-0.008-0.013-0.018-0.018-0.027
														c-0.005-0.005-0.006-0.009-0.008-0.015c-0.81-1.345-1.093-2.841-1.105-4.253
														C214.649,155.564,219.05,161.127,220.707,164.054z"/>
													<path id="XMLID_135_" style="fill:#FFFFFF;" d="M225.011,156.867L225.011,156.867c0,0-0.021,0.084-0.056,0.232
														c-1.092,0.144-3.254,2.336-5.928,2.046c-1.692-0.178-3.321-0.768-4.794-1.599c-0.916-0.514-1.861-1.014-2.633-1.731
														c-0.592-0.548-0.934-2.067-1.131-3.006C215.743,157.719,225.008,156.867,225.011,156.867z"/>
													<g id="XMLID_129_">
														<path id="XMLID_131_" style="fill:#F05B4E;" d="M215.389,165.654c-3.517-0.712-5.933-2.294-7.184-4.694
															c-2.267-4.363,0.173-9.795,0.278-10.023c0.091-0.196,0.278-0.328,0.493-0.346c0.217-0.022,0.425,0.076,0.55,0.25
															c4.527,6.353,15.318,5.445,15.426,5.437c0.193-0.019,0.378,0.055,0.508,0.196c0.127,0.14,0.178,0.332,0.138,0.514
															c-0.018,0.1-2.06,9.255-9.036,8.82C216.184,165.786,215.797,165.736,215.389,165.654z M209.218,152.381
															c-0.559,1.669-1.423,5.199,0.063,8.047c1.076,2.061,3.212,3.431,6.347,4.065c5.658,1.148,7.952-4.807,8.593-6.985
															C221.596,157.6,213.623,157.44,209.218,152.381z"/>
													</g>
													<g id="XMLID_126_">
														<path id="XMLID_128_" style="fill:#F49B77;" d="M229.359,156.536c-0.157,2.528,1.799,4.707,4.372,4.867
															c2.572,0.16,4.787-1.76,4.947-4.288c0.154-2.528-1.803-4.707-4.375-4.868
															C231.729,152.088,229.516,154.006,229.359,156.536z"/>
														<path id="XMLID_127_" style="fill:#F49B77;" d="M196.134,151.512c-0.157,2.53,1.8,4.71,4.375,4.87
															c2.57,0.16,4.783-1.759,4.943-4.287c0.155-2.528-1.801-4.707-4.373-4.868
															C198.506,147.067,196.291,148.987,196.134,151.512z"/>
													</g>
													<path id="XMLID_121_" style="fill:#562911;" d="M198.314,131.281c0,0,0.245-0.389,0.712-0.964
														c0.235-0.272,0.522-0.638,0.856-0.974c0.336-0.354,0.722-0.715,1.143-1.086c0.421-0.362,0.883-0.715,1.375-1.045
														c0.492-0.315,1.011-0.653,1.541-0.883c0.535-0.286,1.078-0.467,1.627-0.638c0.554-0.187,1.09-0.219,1.639-0.323
														c0.53-0.015,1.057-0.021,1.564,0.027c0.497,0.083,0.978,0.195,1.433,0.328c0.438,0.184,0.853,0.387,1.242,0.588
														c0.382,0.211,0.707,0.515,1.018,0.758c0.304,0.26,0.583,0.493,0.795,0.781c0.22,0.271,0.403,0.528,0.551,0.732
														c0.301,0.417,0.451,0.689,0.451,0.689s-0.268,0.002-0.7-0.06c-0.216-0.03-0.48-0.061-0.771-0.124
														c-0.283-0.079-0.623-0.1-0.987-0.147c-0.362-0.034-0.733-0.14-1.15-0.17c-0.414-0.028-0.843-0.061-1.281-0.125
														c-0.453-0.005-0.922,0-1.385-0.04c-0.476,0.022-0.956,0.049-1.442,0.072c-0.245,0.031-0.489,0.062-0.734,0.093
														c-0.242,0.032-0.48,0.037-0.731,0.107c-0.244,0.057-0.486,0.098-0.723,0.135c-0.239,0.033-0.483,0.127-0.716,0.178
														c-0.472,0.1-0.932,0.26-1.377,0.393c-0.217,0.049-0.434,0.162-0.643,0.226c-0.211,0.074-0.415,0.136-0.61,0.224
														c-0.392,0.159-0.757,0.302-1.083,0.453c-0.329,0.138-0.616,0.289-0.852,0.398c-0.239,0.132-0.432,0.21-0.562,0.287
														C198.386,131.24,198.314,131.281,198.314,131.281z"/>
													<g id="XMLID_92_">
														<path id="XMLID_95_" style="fill:#CF9166;" d="M188.708,132.124c0,0-0.247-3.756,0.088-8.579
															C188.523,128.456,188.708,132.124,188.708,132.124z"/>
													</g>
													<path id="XMLID_60_" style="fill:#562911;" d="M204.561,112.447c0,0-8.551,17.486-17.271,21.236
														c-0.021-1.88,1.37-8.535,1.623-11.899c6.213-10.688,17.914-17.769,31.111-17.782l0.003-0.054
														c0.171,0.018,0.337,0.04,0.511,0.06c0.167,0.001,0.339,0,0.509,0.004l-0.003,0.055
														c13.095,1.645,10.876-16.944,29.247,9.056c4.031,15.032,2.735,18.689,2.487,20.56
														C232.458,114.329,204.561,112.447,204.561,112.447z"/>
												</g>
											</g>
										</g>
									</g>
								</g>
							</g>
							<path id="XMLID_12_" style="fill:#562911;" d="M211.648,124.835c7.854,5.898,17.582,8.962,27.366,8.106
								c15.067-1.317,27.5-5.107,20.786-17.072c-5.399-9.622-13.352-20.51-34.018-21.777c-6.606-0.405-11.092,1.519-13.922,2.622
								c-2.675,1.043-5.591,1.219-8.423,0.743c-2.64-0.444-6.103-0.374-9.353,1.701c-11.911,7.607-10.746,16.444-11.352,24.387
								c-0.875,11.465,7.343,27.045,7.343,27.045s1.206-11.18,3.472-14.902c4.944-8.119,8.275-18.23,8.275-18.23L211.648,124.835z"
								/>
						</g>
					</g>
					<path id="XMLID_20_" style="fill:#E4F5FD;" d="M206.394,178.691L206.394,178.691c-15.13,22.12-21.58,54.404-23.1,71.874
						l-3.45-32.8l12.8-21.5v-8.58L206.394,178.691z"/>
					<path id="XMLID_27_" style="fill:#E4F5FD;" d="M222.163,196.765l2.06,9l-19.78,44.8c1.78-10.57,4-21.52,7.26-30.56
						c5.78-16.01,8.84-23.94,9.7-37.8l4.43,9.06L222.163,196.765z"/>
					<g id="XMLID_51_">
						<path id="XMLID_56_" style="fill:#5C5D5D;" d="M207.851,267.765c-0.03,0-0.061-0.003-0.092-0.009
							c-0.271-0.05-0.451-0.311-0.4-0.582c0.191-1.029-1.102-5.467-1.636-6.698c-5.558-12.824-0.971-31.385,2.257-41.308
							c0.085-0.262,0.369-0.406,0.63-0.321c0.263,0.085,0.406,0.368,0.321,0.63c-3.185,9.788-7.718,28.079-2.291,40.6
							c0.442,1.021,1.974,5.813,1.702,7.278C208.298,267.597,208.087,267.765,207.851,267.765z"/>
					</g>
				</g>
				<path id="XMLID_31_" style="fill:#B6D7E7;" d="M173.967,208.609c-1.639-10.385,10.176-22.368,19.729-26.757
					c2.606-1.198-1.068,0.481,0,0c3.655-1.647-2.359,8.073-5.24,13.473c-2.881,5.399-0.39,43.797,29.283,43.643
					c32.847-0.171,29.927-3.634,29.927-3.634l0.299,15.232c0,0-30.618,2.643-45.645,0.179
					C183.905,247.725,176.542,224.927,173.967,208.609z"/>
			</g>
			<g id="XMLID_99_">
				<ellipse id="XMLID_97_" style="fill:#5C5D5D;" cx="210.5" cy="269.167" rx="3.167" ry="5.5"/>
				<path id="XMLID_125_" style="fill:#FFFFFF;" d="M208.667,269.329c0,2.948,1.119,5.338,2.5,5.338c1.381,0,2.5-2.39,2.5-5.338
					c0-2.948-1.119-5.338-2.5-5.338C209.786,263.991,208.667,266.381,208.667,269.329z"/>
				<path id="XMLID_123_" style="fill:#5C5D5D;" d="M204.5,269c0,2.078,0.97,3.763,2.167,3.763c1.197,0,2.167-1.685,2.167-3.763
					s-0.97-3.763-2.167-3.763C205.47,265.237,204.5,266.922,204.5,269z"/>
			</g>
		</g>
		<g id="XMLID_52_">
			<path id="XMLID_67_" style="fill:#5C5D5D;" d="M211.791,219.569c-4.689,0-8.847-2.628-11.434-7.236
				c-6.102-10.872-2.685-32.793-2.537-33.721c0.044-0.272,0.299-0.459,0.573-0.415c0.272,0.043,0.458,0.3,0.415,0.573
				c-0.036,0.224-3.51,22.506,2.421,33.073c2.439,4.346,6.378,6.792,10.753,6.724c3.902-0.064,7.377-2.129,9.069-5.39
				c3.562-6.866,2.268-33.206,2.254-33.472c-0.014-0.276,0.198-0.511,0.474-0.525c0.282-0.003,0.511,0.199,0.525,0.474
				c0.056,1.094,1.32,26.877-2.366,33.983c-1.861,3.587-5.67,5.859-9.94,5.929C211.929,219.569,211.859,219.569,211.791,219.569z"/>
		</g>
	</g>
	<g id="XMLID_117_">
		<path id="XMLID_119_" style="fill:#F0C0B2;" d="M294.895,303.388c0,0,0.539,4.182,2.38,6.92c1.841,2.738,6.37,7.362,4.087,8.613
			c-2.283,1.251-4.599-5.996-4.849-2.988c-0.25,3.008,5.806,13.706,2.201,11.301c-3.605-2.405-3.156-4.695-3.156-4.695
			s2.053,6.856-0.044,5.426c-2.097-1.43-2.893-4.303-2.893-4.303s1.129,4.637-0.641,3.271c-1.77-1.366-2.9-6.003-2.9-6.003
			s1.399,6.728-0.372,5.362c-1.77-1.366-2.65-9.011-2.4-12.019c0.25-3.008,0.544-11.442,0.544-11.442L294.895,303.388z"/>
		<g id="XMLID_4_">
			<path id="XMLID_112_" style="fill:#F0C0B2;" d="M343,256.333c0,0,2.667,28,2.667,35.333C345.667,299,343,309,340.333,315
				c-2.667,6-9.333,5.333-8,0.667c1.333-4.667,3.333-23.333,3.333-28.667s-2-32-2-32L343,256.333z"/>
			<path id="XMLID_116_" style="fill:#F0C0B2;" d="M286.826,251.667c0,0-2.667,28-2.667,35.333s2.667,17.333,5.333,23.333
				c2.667,6,9.333,5.333,8,0.667c-1.333-4.667-3.333-23.333-3.333-28.667c0-5.333,2-32,2-32L286.826,251.667z"/>
			<g id="XMLID_5_">
				<g id="XMLID_33_">
					<path id="XMLID_102_" style="fill:#F0C0B2;" d="M316.333,328.333c0,0-2.667,7.333,0,20c2.667,12.667,2,30.667,2,30.667v20
						l6.667-1.333c0,0,7.333-22,4.667-31.333c-2.667-9.333-0.667-36-0.667-36L316.333,328.333z"/>
					<path id="XMLID_105_" style="fill:#F0C0B2;" d="M295,328.333c0,0-2.667,7.333,0,20C297.667,361,297,379,297,379v20l6.667-1.333
						c0,0,7.333-22,4.667-31.333c-2.667-9.333-0.667-36-0.667-36L295,328.333z"/>
					<path id="XMLID_169_" style="fill:#FAAD39;" d="M318.353,378.333c-0.011,0.426-0.02,0.667-0.02,0.667v20l6.667-1.333
						c0,0,3.32-9.969,4.679-19.333H318.353z"/>
					<path id="XMLID_137_" style="fill:#FAAD39;" d="M297.02,378.333C297.009,378.759,297,379,297,379v20l6.667-1.333
						c0,0,3.32-9.969,4.679-19.333H297.02z"/>
					<g id="XMLID_34_">
						<g id="XMLID_35_">
							<path id="XMLID_68_" style="fill:#FAAD39;" d="M298.197,240.56c0,0-4.807-5.91-11.186,7.773
								c-6.379,13.683-3.244,15.463-3.244,15.463l12.614,1.998l6.976-27.624L298.197,240.56z"/>
							<path id="XMLID_109_" style="fill:#FAAD39;" d="M335.887,276.21c-1.9,11-4.17,19.48-4.17,19.48h-39.49
								c0,0-0.24-40.86,2.76-50.17c0.72-2.25,1.88-3.84,3.21-4.96c1.61-1.38,3.47-2.06,5.16-2.39c2.73-0.52,5-0.12,5-0.12l11.6,0.09
								c0,0,2.89-0.19,6.11,0.89c1.77,0.58,3.64,1.56,5.19,3.16c0.86,0.9,1.63,1.99,2.21,3.33
								C336.987,253.56,337.787,265.21,335.887,276.21z"/>
							<g id="XMLID_36_">
								<g id="XMLID_37_">
									<g id="XMLID_38_">
										<g id="XMLID_39_">
											<g id="XMLID_40_">
												<g id="XMLID_41_">
													<g id="XMLID_42_">
														<g id="XMLID_43_">
															<g id="XMLID_82_">
																<path id="XMLID_85_" style="fill:#F0C0B2;" d="M341.244,212.533c0,0,5.808-4.508,8.898,0.211
																	c3.091,4.719-5.564,14.639-12.601,9.999L341.244,212.533z"/>
																<path id="XMLID_84_" style="fill:#CF9166;" d="M339.841,216.403l-1.908,5.255c6.371,2.896,12.544-5.43,9.801-7.5
																	C345.516,212.484,341.605,214.962,339.841,216.403z"/>
																<path id="XMLID_83_" style="fill:#CF9166;" d="M348.32,216.356c0,0-0.002-0.045-0.003-0.127
																	c-0.001-0.083-0.01-0.202-0.019-0.349c-0.031-0.292-0.105-0.723-0.362-1.083c-0.064-0.091-0.145-0.171-0.23-0.243
																	c-0.046-0.035-0.089-0.071-0.142-0.104l-0.035-0.024l-0.002-0.001c0.026,0.019,0.005,0.005,0.01,0.008l-0.005-0.003
																	l-0.015-0.007l-0.023-0.013l-0.099-0.055c-0.07-0.043-0.126-0.065-0.18-0.088c-0.053-0.024-0.113-0.048-0.182-0.069
																	c-0.062-0.022-0.128-0.043-0.194-0.057c-0.069-0.018-0.135-0.038-0.206-0.046c-0.557-0.101-1.192-0.034-1.82,0.122
																	c-0.317,0.073-0.629,0.178-0.938,0.286c-0.306,0.112-0.609,0.232-0.9,0.356c-0.582,0.252-1.118,0.517-1.584,0.746
																	c-0.933,0.48-1.553,0.8-1.553,0.8s0.106-0.142,0.315-0.37c0.212-0.226,0.524-0.54,0.933-0.878
																	c0.206-0.167,0.431-0.349,0.684-0.522c0.252-0.175,0.526-0.35,0.82-0.516c0.59-0.328,1.258-0.63,1.985-0.809
																	c0.365-0.087,0.741-0.147,1.122-0.156c0.381-0.01,0.769,0.033,1.13,0.139c0.09,0.024,0.177,0.056,0.266,0.091
																	c0.087,0.029,0.169,0.07,0.251,0.112c0.08,0.038,0.161,0.085,0.242,0.137c0.082,0.051,0.159,0.101,0.209,0.147
																	l0.089,0.073l0.055,0.044l0.049,0.046c0.066,0.058,0.122,0.123,0.176,0.189c0.103,0.135,0.186,0.275,0.245,0.416
																	c0.125,0.28,0.152,0.552,0.15,0.78c0.001,0.228-0.041,0.419-0.078,0.571c-0.038,0.152-0.085,0.268-0.116,0.344
																	C348.337,216.316,348.32,216.356,348.32,216.356z"/>
															</g>
															<g id="XMLID_76_">
																<path id="XMLID_79_" style="fill:#F0C0B2;" d="M300.767,201.775c0,0-2.802-6.795-7.827-4.233
																	c-5.027,2.56-2.438,15.469,5.974,14.936L300.767,201.775z"/>
																<path id="XMLID_78_" style="fill:#CF9166;" d="M300.064,205.832l-0.954,5.508
																	c-6.966-0.647-8.191-10.939-4.782-11.374C297.082,199.614,299.249,203.705,300.064,205.832z"/>
																<path id="XMLID_77_" style="fill:#CF9166;" d="M292.728,201.582c0,0,0.022-0.037,0.065-0.108
																	c0.042-0.072,0.107-0.171,0.19-0.295c0.17-0.24,0.448-0.577,0.853-0.762c0.098-0.046,0.206-0.076,0.32-0.096
																	c0.056-0.006,0.113-0.018,0.17-0.018l0.046-0.002l0.002-0.001c-0.034,0.003-0.006-0.001-0.012,0l0.005,0.001
																	l0.014-0.001l0.028,0l0.114,0.002c0.08-0.003,0.141,0.007,0.2,0.014c0.059,0.003,0.122,0.014,0.191,0.029
																	c0.066,0.012,0.131,0.027,0.198,0.047c0.067,0.018,0.134,0.035,0.2,0.063c0.534,0.187,1.054,0.561,1.522,1.008
																	c0.237,0.221,0.457,0.467,0.672,0.715c0.21,0.249,0.414,0.503,0.604,0.756c0.38,0.507,0.714,1.003,1.005,1.432
																	c0.571,0.88,0.951,1.465,0.951,1.465s-0.022-0.177-0.091-0.479c-0.068-0.299-0.184-0.73-0.373-1.226
																	c-0.095-0.246-0.201-0.517-0.335-0.792c-0.132-0.277-0.281-0.564-0.454-0.854c-0.348-0.576-0.779-1.17-1.32-1.688
																	c-0.272-0.255-0.572-0.495-0.899-0.692c-0.326-0.198-0.681-0.353-1.047-0.44c-0.092-0.024-0.184-0.039-0.276-0.052
																	c-0.092-0.019-0.181-0.025-0.275-0.028c-0.087-0.008-0.18-0.007-0.277-0.001c-0.095,0.003-0.187,0.009-0.256,0.024
																	l-0.111,0.017l-0.07,0.012l-0.066,0.016c-0.086,0.018-0.169,0.046-0.249,0.077
																	c-0.154,0.067-0.296,0.145-0.419,0.238c-0.246,0.182-0.405,0.405-0.515,0.602c-0.114,0.198-0.173,0.385-0.216,0.536
																	c-0.043,0.151-0.059,0.275-0.07,0.356C292.732,201.538,292.728,201.582,292.728,201.582z"/>
															</g>
															<path id="XMLID_73_" style="fill:#F0C0B2;" d="M319.869,224.088l-11.338,0.118
																c-0.012,0.612-0.29,19.839-0.293,17.759c0,0,0.87,3.532,5.901,3.558c5.032,0.024,6.234-3.686,6.234-3.686
																C320.331,241.739,319.869,224.088,319.869,224.088z"/>
															<path id="XMLID_72_" style="fill:#F48470;" d="M320.186,230.082l-11.812-0.336c0,0,0.025,8.304-0.018,8.304
																c0,0,0.707,3.093,5.738,3.12c5.032,0.024,5.863-3.035,5.863-3.035C319.915,238.038,320.186,230.082,320.186,230.082z
																"/>
															<path id="XMLID_70_" style="fill:#CF9166;" d="M320.374,229.002l-10.958-2.913c0,0-0.721,2.155-1.343,3.986
																c-0.091,0.265,2.931,1.578,3.258,1.723c2.569,1.138,5.302,1.496,8.09,1.525
																C319.842,231.392,320.374,229.002,320.374,229.002z"/>
															<path id="XMLID_69_" style="fill:#562911;" d="M347.986,209.482c-3.631,13.664-18.432,21.592-33.058,17.706
																c-14.625-3.887-23.537-18.117-19.905-31.783c3.632-13.666,18.432-21.594,33.059-17.707
																C342.706,181.585,351.619,195.814,347.986,209.482z"/>
															<path id="XMLID_66_" style="fill:#F0C0B2;" d="M345.259,208.397c1.759-7.683,0.395-15.742-6.342-20.695
																c-3.426-2.521-7.52-4.037-11.631-5.059c-4.061-1.009-8.438-1.892-12.628-1.437
																c-7.507,0.817-12.684,6.049-15.225,12.818c-0.25,0.664-0.476,1.335-0.68,2.013c-0.472,1.553-1.003,3.066-1.363,4.656
																c-0.81,3.574-1.189,7.273-0.928,10.94c0.317,4.449,1.648,8.853,4.314,12.519c1.513,2.083,3.417,3.875,5.553,5.334
																c3.527,2.405,7.111,3.843,11.38,4.175c2.892,0.226,5.82,0.039,8.613-0.714c4.632-1.247,8.597-4.043,11.581-7.703
																c2.508-3.08,4.343-6.67,5.657-10.395c0.719-2.04,1.323-4.147,1.672-6.281
																C345.241,208.51,345.247,208.453,345.259,208.397z"/>
															<path id="XMLID_65_" style="fill:#CF9166;" d="M325.871,210.602c-0.659,2.14,0.402,4.365,2.368,4.968
																c1.967,0.604,4.096-0.643,4.757-2.784c0.66-2.141-0.4-4.365-2.368-4.968
																C328.661,207.214,326.531,208.461,325.871,210.602z"/>
															<path id="XMLID_64_" d="M326.15,209.696c-0.662,2.141,0.4,4.365,2.366,4.969c1.968,0.605,4.097-0.641,4.757-2.783
																c0.661-2.14-0.398-4.367-2.366-4.97C328.941,206.31,326.81,207.556,326.15,209.696z"/>
															<path id="XMLID_63_" style="fill:#FFFFFF;" d="M327.696,209.022c-0.239,0.775,0.208,1.6,0.996,1.841
																c0.79,0.243,1.623-0.188,1.862-0.965c0.239-0.774-0.208-1.599-0.996-1.841
																C328.77,207.814,327.935,208.246,327.696,209.022z"/>
															<path id="XMLID_62_" style="fill:#CF9166;" d="M304.578,204.285c-0.66,2.142,0.399,4.366,2.366,4.969
																c1.968,0.605,4.098-0.643,4.757-2.783c0.66-2.14-0.398-4.366-2.367-4.969
																C307.368,200.9,305.237,202.144,304.578,204.285z"/>
															<path id="XMLID_61_" d="M304.857,203.38c-0.662,2.141,0.401,4.365,2.366,4.969c1.968,0.604,4.097-0.641,4.757-2.784
																c0.661-2.139-0.399-4.366-2.367-4.968C307.647,199.994,305.516,201.24,304.857,203.38z"/>
															<path id="XMLID_59_" style="fill:#FFFFFF;" d="M306.403,202.707c-0.238,0.774,0.206,1.6,0.996,1.841
																c0.79,0.243,1.624-0.189,1.863-0.966c0.238-0.775-0.207-1.6-0.998-1.842
																C307.476,201.499,306.642,201.93,306.403,202.707z"/>
															<path id="XMLID_58_" style="fill:#F48470;" d="M319.225,206.02c0,0-0.685,4.908-2.831,3.94
																c-4.158-1.868-6.54,7.453,0.912,5.652c2.814-0.678,4.055-8.981,4.055-8.981L319.225,206.02z"/>
															<path id="XMLID_57_" style="fill:#B43128;" d="M311.139,218.516c0,0,8.385,3.682,13.82-0.276
																c0,0,1.114,10.261-8.591,9.073C310.239,226.56,311.139,218.516,311.139,218.516z"/>
															<path id="XMLID_54_" style="fill:#F05736;" d="M312.614,225.183c0.787,1.073,1.973,1.91,3.755,2.13
																c2.202,0.269,3.845-0.052,5.073-0.706c0.355-0.2,0.685-0.427,0.993-0.673c0.008-0.004,0.015-0.01,0.021-0.016
																c0.005-0.003,0.007-0.006,0.01-0.009c0.973-0.831,1.578-1.915,1.951-3.003
																C319.487,220.18,314.65,223.347,312.614,225.183z"/>
															<path id="XMLID_50_" style="fill:#FFFFFF;" d="M311.139,218.516L311.139,218.516c0,0-0.005,0.07-0.016,0.194
																c0.807,0.393,1.914,2.645,4.056,3.11c1.354,0.298,2.766,0.263,4.119,0c0.841-0.161,1.701-0.304,2.482-0.659
																c0.599-0.271,1.255-1.357,1.65-2.032C318.085,221.564,311.142,218.516,311.139,218.516z"/>
															<g id="XMLID_46_">
																<path id="XMLID_47_" style="fill:#F05B4E;" d="M315.366,227.609c-5.506-1.463-4.724-9.068-4.712-9.15
																	c0.016-0.151,0.105-0.287,0.239-0.362c0.137-0.076,0.299-0.086,0.443-0.021c0.081,0.034,8.191,3.518,13.329-0.226
																	c0.142-0.102,0.328-0.124,0.49-0.051c0.162,0.07,0.272,0.22,0.292,0.395c0.022,0.203,0.508,5.033-2.37,7.821
																	c-1.586,1.533-3.863,2.133-6.765,1.777C315.977,227.749,315.664,227.688,315.366,227.609z M311.585,219.214
																	c-0.066,1.849,0.172,7.045,4.842,7.617c2.587,0.318,4.592-0.19,5.956-1.506c1.883-1.818,2.126-4.771,2.124-6.205
																	C319.797,221.895,313.59,219.963,311.585,219.214z"/>
															</g>
															<g id="XMLID_44_">
																<path id="XMLID_45_" style="fill:#F49B77;" d="M307.863,217.139c-0.531,1.995-2.605,3.176-4.635,2.636
																	c-2.03-0.54-3.247-2.595-2.719-4.591c0.533-1.995,2.608-3.175,4.638-2.636
																	C307.177,213.088,308.394,215.142,307.863,217.139z"/>
																<path id="XMLID_53_" style="fill:#F49B77;" d="M334.847,221.822c-0.531,1.996-2.606,3.177-4.639,2.637
																	c-2.028-0.539-3.245-2.593-2.716-4.589c0.532-1.995,2.607-3.175,4.636-2.637
																	C334.16,217.773,335.377,219.829,334.847,221.822z"/>
															</g>
															<path id="XMLID_55_" style="fill:#562911;" d="M338.379,205.617c0,0-0.089-0.364-0.302-0.929
																c-0.112-0.271-0.239-0.628-0.41-0.974c-0.169-0.361-0.374-0.739-0.604-1.135c-0.232-0.389-0.499-0.781-0.794-1.163
																c-0.299-0.37-0.613-0.766-0.964-1.08c-0.34-0.359-0.713-0.639-1.093-0.913c-0.38-0.288-0.786-0.451-1.184-0.673
																c-0.406-0.148-0.811-0.289-1.216-0.383c-0.405-0.064-0.806-0.101-1.192-0.116c-0.386,0.03-0.759,0.079-1.112,0.134
																c-0.35,0.065-0.68,0.216-0.983,0.324c-0.302,0.122-0.578,0.23-0.816,0.398c-0.24,0.153-0.448,0.304-0.615,0.424
																c-0.34,0.245-0.526,0.416-0.526,0.416s0.206,0.07,0.557,0.134c0.175,0.033,0.387,0.076,0.628,0.103
																c0.24,0.012,0.507,0.084,0.801,0.141c0.289,0.067,0.603,0.08,0.933,0.165c0.328,0.085,0.667,0.171,1.023,0.234
																c0.352,0.113,0.713,0.238,1.081,0.326c0.362,0.14,0.727,0.285,1.096,0.427c0.181,0.087,0.362,0.174,0.543,0.261
																c0.179,0.087,0.362,0.152,0.538,0.271c0.174,0.107,0.35,0.201,0.524,0.291c0.177,0.087,0.341,0.223,0.507,0.322
																c0.339,0.199,0.654,0.441,0.963,0.659c0.156,0.094,0.294,0.237,0.438,0.341c0.144,0.111,0.286,0.212,0.414,0.331
																c0.262,0.224,0.508,0.428,0.72,0.629c0.219,0.191,0.402,0.382,0.556,0.528c0.151,0.163,0.28,0.274,0.36,0.367
																C338.334,205.567,338.379,205.617,338.379,205.617z"/>
															<path id="XMLID_94_" style="fill:#562911;" d="M302.243,199.297c0,0,0.216-0.307,0.62-0.755
																c0.203-0.212,0.451-0.498,0.737-0.757c0.289-0.274,0.618-0.551,0.976-0.837c0.358-0.277,0.749-0.545,1.163-0.793
																c0.413-0.236,0.85-0.489,1.291-0.654c0.447-0.21,0.897-0.336,1.351-0.452c0.459-0.13,0.897-0.133,1.348-0.195
																c0.432,0.01,0.861,0.027,1.272,0.087c0.401,0.088,0.788,0.2,1.152,0.326c0.349,0.168,0.678,0.35,0.986,0.53
																c0.302,0.188,0.554,0.449,0.797,0.659c0.237,0.224,0.454,0.425,0.614,0.668c0.168,0.23,0.306,0.447,0.418,0.619
																c0.227,0.352,0.338,0.579,0.338,0.579s-0.218-0.01-0.567-0.078c-0.175-0.033-0.388-0.07-0.622-0.133
																c-0.227-0.076-0.503-0.107-0.797-0.161c-0.293-0.043-0.591-0.145-0.929-0.186c-0.336-0.04-0.684-0.085-1.038-0.155
																c-0.368-0.023-0.751-0.038-1.125-0.09c-0.388-0.002-0.781,0-1.177-0.002c-0.201,0.015-0.4,0.03-0.601,0.045
																c-0.198,0.016-0.393,0.01-0.6,0.057c-0.201,0.036-0.399,0.06-0.594,0.08c-0.196,0.017-0.399,0.083-0.59,0.115
																c-0.388,0.061-0.77,0.172-1.137,0.262c-0.179,0.031-0.36,0.113-0.533,0.158c-0.175,0.051-0.344,0.094-0.506,0.157
																c-0.326,0.113-0.629,0.214-0.9,0.324c-0.274,0.098-0.514,0.209-0.711,0.289c-0.2,0.097-0.361,0.153-0.469,0.21
																C302.303,199.266,302.243,199.297,302.243,199.297z"/>
															<g id="XMLID_98_">
																<path id="XMLID_100_" style="fill:#CF9166;" d="M345.589,208.746c0,0,1.16-2.841,2.145-6.656
																	C346.678,205.957,345.589,208.746,345.589,208.746z"/>
															</g>
															<path id="XMLID_101_" style="fill:#562911;" d="M338.406,189.444c0,0,2.103,15.725,7.878,20.874
																c0.501-1.448,1.142-6.952,1.814-9.619c-2.047-9.866-9.268-18.358-19.47-21.771l0.012-0.043
																c-0.137-0.03-0.271-0.056-0.411-0.085c-0.13-0.042-0.263-0.087-0.395-0.128l-0.012,0.043
																c-10.549-2.105-8.372-0.472-24.306,4.966c-6.993,10.583-7.577,8.239-7.867,9.749
																C316.35,183.705,338.406,189.444,338.406,189.444z"/>
														</g>
													</g>
												</g>
											</g>
										</g>
									</g>
								</g>
							</g>
							<path id="XMLID_104_" style="fill:#00789F;" d="M331.257,242.19c-1.75,3.96-4.13,9.78-5.58,15.1
								c-2.51,9.21-3.8,38.4-3.8,38.4h-4.96c0,0,1.93-34.72,4.59-43.71c1.93-6.51,3.72-10.98,4.56-12.95
								C327.837,239.61,329.707,240.59,331.257,242.19z"/>
							<path id="XMLID_103_" style="fill:#00789F;" d="M303.357,238.17c-1.12,4.54-3.19,12.79-4.92,19.12
								c-2.51,9.21-0.8,38.4-0.8,38.4h-4.96c0,0-1.07-34.72,1.59-43.71c1.53-5.17,2.98-9.06,3.93-11.42
								C299.807,239.18,301.667,238.5,303.357,238.17z"/>
							<path id="XMLID_108_" style="fill:#FAAD39;" d="M332.473,265.794l13.116,2.171c0,0-1.86-18.587-6.558-22.443
								c-4.698-3.856-7.775-3.333-7.775-3.333L332.473,265.794z"/>
						</g>
						<path id="XMLID_110_" style="fill:#00789F;" d="M292.677,295.69h39.04c0,0,3.666,17.31,1.475,23.31
							s-2.021,16.667-2.021,16.667h-18.394L310.403,321h-1.021l-0.025,14.667h-18.098L292.677,295.69z"/>
					</g>
				</g>
				<path id="XMLID_111_" style="fill:#290300;" d="M304.667,393.667L304.667,393.667c-1.985,1.588-4.77,1.709-6.885,0.299
					l-0.448-0.299l-14.785,7.543c-0.96,0.49-1.592,1.448-1.664,2.524l0,0c-0.118,1.767,1.284,3.266,3.055,3.266h19.021
					c1.222,0,2.31-0.772,2.714-1.925l0.965-2.757c0.448-1.28,0.417-2.678-0.086-3.937L304.667,393.667z"/>
				<path id="XMLID_114_" style="fill:#562911;" d="M325.667,393.667L325.667,393.667c-1.985,1.588-4.77,1.709-6.885,0.299
					l-0.448-0.299l-14.785,7.543c-0.96,0.49-1.592,1.448-1.664,2.524l0,0c-0.118,1.767,1.284,3.266,3.055,3.266h19.021
					c1.222,0,2.31-0.772,2.714-1.925l0.965-2.757c0.448-1.28,0.417-2.678-0.086-3.937L325.667,393.667z"/>
			</g>
		</g>
		<path id="XMLID_118_" style="fill:#F0C0B2;" d="M334,307.333c0,0-1.333,4-3.667,6.333c-2.333,2.333-7.667,6-5.667,7.667
			c2,1.667,5.667-5,5.333-2c-0.333,3-8.333,12.333-4.333,10.667s4-4,4-4s-3.333,6.333-1,5.333c2.333-1,3.667-3.667,3.667-3.667
			s-2,4.333,0,3.333s4-5.333,4-5.333S333.667,332,335.667,331s4.333-8.333,4.667-11.333c0.333-3,1.667-11.333,1.667-11.333
			L334,307.333z"/>
	</g>
	<g id="XMLID_271_">
		<polygon id="XMLID_274_" style="fill:#562911;" points="134.333,405.333 104.315,398.946 104.333,398.667 103.667,398.809 
			103,398.667 103.019,398.946 73,405.333 72.333,408.667 103.667,408.667 135,408.667 		"/>
		<g id="XMLID_268_">
			<rect id="XMLID_269_" x="99.667" y="328.333" style="fill:#E4F5FD;" width="9.333" height="71.333"/>
			<path id="XMLID_270_" style="fill:#562911;" d="M130.333,331.667H79c-6.6,0-12-5.4-12-12v-2c0-6.6,5.4-12,12-12h51.333
				c6.6,0,12,5.4,12,12v2C142.333,326.267,136.933,331.667,130.333,331.667z"/>
		</g>
	</g>
	<g id="XMLID_282_">
		<g id="XMLID_272_">
			<g id="XMLID_273_">
				<rect id="XMLID_275_" x="382.333" y="283.667" style="fill:#74AEB9;" width="8.667" height="114"/>
				<path id="XMLID_276_" style="fill:#00789F;" d="M407.667,407h-63.333c-4.033,0-7.333-3.3-7.333-7.333l0,0
					c0-4.033,3.3-7.333,7.333-7.333h63.333c4.033,0,7.333,3.3,7.333,7.333l0,0C415,403.7,411.7,407,407.667,407z"/>
				<path id="XMLID_295_" style="fill:#005977;" d="M337.034,400.333c0.34,3.724,3.491,6.667,7.299,6.667h63.333
					c3.808,0,6.959-2.943,7.299-6.667H337.034z"/>
			</g>
			<g id="XMLID_277_">
				
					<ellipse id="XMLID_278_" transform="matrix(0.8245 -0.5658 0.5658 0.8245 -87.7232 267.346)" style="fill:#005977;" cx="387.177" cy="275.108" rx="26.473" ry="21.458"/>
				
					<ellipse id="XMLID_279_" transform="matrix(0.8245 -0.5658 0.5658 0.8245 -85.9983 265.4698)" style="fill:#00789F;" cx="385.016" cy="271.389" rx="26.473" ry="21.458"/>
				
					<ellipse id="XMLID_280_" transform="matrix(0.8245 -0.5658 0.5658 0.8245 -86.336 265.9517)" style="fill:#FFFFFF;" cx="385.623" cy="272.174" rx="21.382" ry="17.332"/>
			</g>
		</g>
		<path id="XMLID_281_" style="fill:#F05B4E;" d="M386.05,273.836c-1.374,1.286-3.031,1.749-3.7,1.033
			c-0.67-0.715-0.099-2.338,1.275-3.624c1.374-1.286,15.206-11.805,15.206-11.805S387.424,272.55,386.05,273.836z"/>
	</g>
	<g id="XMLID_289_">
		<rect id="XMLID_284_" x="91.667" y="128.667" style="fill:#2D4C87;" width="22.667" height="70.667"/>
		<rect id="XMLID_286_" x="96" y="134.667" style="fill:#FFFFFF;" width="14" height="37"/>
		<path id="XMLID_285_" style="fill:#112035;" d="M109,185.333c0,3.13-2.537,5.667-5.667,5.667s-5.667-2.537-5.667-5.667
			c0-3.13,2.537-5.667,5.667-5.667S109,182.204,109,185.333z"/>
		<g id="XMLID_287_">
			<rect id="XMLID_291_" x="98.334" y="138.5" style="fill:#112035;" width="8.917" height="1"/>
		</g>
		<g id="XMLID_292_">
			<rect id="XMLID_293_" x="98.334" y="143" style="fill:#112035;" width="8.917" height="1"/>
		</g>
		<g id="XMLID_294_">
			<rect id="XMLID_296_" x="98.334" y="147.5" style="fill:#112035;" width="8.917" height="1"/>
		</g>
		<g id="XMLID_298_">
			<rect id="XMLID_301_" x="98.334" y="152" style="fill:#112035;" width="8.917" height="1"/>
		</g>
		<g id="XMLID_302_">
			<rect id="XMLID_303_" x="98.334" y="156.5" style="fill:#112035;" width="8.917" height="1"/>
		</g>
		<g id="XMLID_304_">
			<rect id="XMLID_305_" x="98.334" y="161" style="fill:#112035;" width="8.917" height="1"/>
		</g>
		<g id="XMLID_306_">
			<rect id="XMLID_307_" x="98.334" y="165.5" style="fill:#112035;" width="8.917" height="1"/>
		</g>
	</g>
	<g id="XMLID_309_">
		<rect id="XMLID_328_" x="118.167" y="128.667" style="fill:#7A2D87;" width="22.667" height="70.667"/>
		<rect id="XMLID_325_" x="122.5" y="134.667" style="fill:#FFFFFF;" width="14" height="37"/>
		<path id="XMLID_324_" style="fill:#2D1135;" d="M135.5,185.333c0,3.13-2.537,5.667-5.667,5.667c-3.13,0-5.667-2.537-5.667-5.667
			c0-3.13,2.537-5.667,5.667-5.667C132.963,179.667,135.5,182.204,135.5,185.333z"/>
		<g id="XMLID_322_">
			<rect id="XMLID_323_" x="124.833" y="138.5" style="fill:#2D1135;" width="8.917" height="1"/>
		</g>
		<g id="XMLID_320_">
			<rect id="XMLID_321_" x="124.833" y="143" style="fill:#2D1135;" width="8.917" height="1"/>
		</g>
		<g id="XMLID_318_">
			<rect id="XMLID_319_" x="124.833" y="147.5" style="fill:#2D1135;" width="8.917" height="1"/>
		</g>
		<g id="XMLID_316_">
			<rect id="XMLID_317_" x="124.833" y="152" style="fill:#2D1135;" width="8.917" height="1"/>
		</g>
		<g id="XMLID_314_">
			<rect id="XMLID_315_" x="124.833" y="156.5" style="fill:#2D1135;" width="8.917" height="1"/>
		</g>
		<g id="XMLID_312_">
			<rect id="XMLID_313_" x="124.833" y="161" style="fill:#2D1135;" width="8.917" height="1"/>
		</g>
		<g id="XMLID_310_">
			<rect id="XMLID_311_" x="124.833" y="165.5" style="fill:#2D1135;" width="8.917" height="1"/>
		</g>
	</g>
	<g id="XMLID_329_">
		<rect id="XMLID_348_" x="144.667" y="128.667" style="fill:#4C872D;" width="22.667" height="70.667"/>
		<rect id="XMLID_345_" x="149" y="134.667" style="fill:#FFFFFF;" width="14" height="37"/>
		<path id="XMLID_344_" style="fill:#1F3511;" d="M162,185.333c0,3.13-2.537,5.667-5.667,5.667c-3.13,0-5.667-2.537-5.667-5.667
			c0-3.13,2.537-5.667,5.667-5.667C159.463,179.667,162,182.204,162,185.333z"/>
		<g id="XMLID_342_">
			<rect id="XMLID_343_" x="151.333" y="138.5" style="fill:#1F3511;" width="8.917" height="1"/>
		</g>
		<g id="XMLID_340_">
			<rect id="XMLID_341_" x="151.333" y="143" style="fill:#1F3511;" width="8.917" height="1"/>
		</g>
		<g id="XMLID_338_">
			<rect id="XMLID_339_" x="151.333" y="147.5" style="fill:#1F3511;" width="8.917" height="1"/>
		</g>
		<g id="XMLID_336_">
			<rect id="XMLID_337_" x="151.333" y="152" style="fill:#1F3511;" width="8.917" height="1"/>
		</g>
		<g id="XMLID_334_">
			<rect id="XMLID_335_" x="151.333" y="156.5" style="fill:#1F3511;" width="8.917" height="1"/>
		</g>
		<g id="XMLID_332_">
			<rect id="XMLID_333_" x="151.333" y="161" style="fill:#1F3511;" width="8.917" height="1"/>
		</g>
		<g id="XMLID_330_">
			<rect id="XMLID_331_" x="151.333" y="165.5" style="fill:#1F3511;" width="8.917" height="1"/>
		</g>
	</g>
</g>
<g id="DESIGNED_BY_FREEPIK">
	<g id="XMLID_405_">
		<g id="XMLID_406_">
			<path id="XMLID_407_" style="fill:#302E2F;" d="M177.117,476.483v-0.17c-0.228,0.262-0.452,0.474-0.673,0.636
				c-0.221,0.164-0.462,0.289-0.72,0.373c-0.259,0.087-0.541,0.127-0.847,0.127c-0.406,0-0.781-0.084-1.128-0.256
				c-0.345-0.171-0.645-0.418-0.896-0.736c-0.253-0.318-0.444-0.691-0.575-1.124c-0.13-0.43-0.195-0.897-0.195-1.398
				c0-1.058,0.259-1.885,0.776-2.476c0.518-0.591,1.198-0.887,2.043-0.887c0.487,0,0.9,0.084,1.234,0.251
				c0.337,0.166,0.662,0.426,0.981,0.772v-2.502c0-0.348,0.069-0.609,0.209-0.787c0.138-0.178,0.336-0.267,0.592-0.267
				c0.257,0,0.454,0.082,0.593,0.245c0.138,0.164,0.208,0.404,0.208,0.723v7.476c0,0.321-0.075,0.564-0.224,0.725
				c-0.149,0.161-0.341,0.241-0.578,0.241c-0.232,0-0.424-0.082-0.574-0.25C177.193,477.032,177.117,476.792,177.117,476.483z
				 M173.784,473.992c0,0.461,0.072,0.851,0.215,1.173c0.142,0.323,0.338,0.566,0.586,0.729c0.249,0.163,0.52,0.247,0.813,0.247
				c0.298,0,0.57-0.078,0.817-0.234c0.246-0.154,0.444-0.393,0.59-0.713c0.147-0.32,0.221-0.723,0.221-1.202
				c0-0.451-0.074-0.839-0.221-1.166c-0.146-0.322-0.345-0.571-0.596-0.743c-0.25-0.171-0.524-0.257-0.822-0.257
				c-0.309,0-0.587,0.088-0.832,0.262c-0.244,0.178-0.434,0.429-0.567,0.759C173.851,473.177,173.784,473.558,173.784,473.992z"/>
			<path id="XMLID_410_" style="fill:#302E2F;" d="M184.591,474.422h-3.315c0.004,0.384,0.081,0.724,0.234,1.018
				c0.15,0.294,0.352,0.516,0.601,0.664c0.251,0.149,0.527,0.223,0.829,0.223c0.203,0,0.387-0.022,0.555-0.069
				c0.168-0.05,0.33-0.123,0.488-0.225c0.158-0.102,0.302-0.21,0.435-0.327c0.132-0.115,0.304-0.274,0.515-0.472
				c0.086-0.073,0.211-0.111,0.373-0.111c0.174,0,0.314,0.047,0.421,0.143c0.107,0.096,0.162,0.229,0.162,0.403
				c0,0.153-0.06,0.331-0.18,0.536c-0.121,0.205-0.302,0.401-0.544,0.591c-0.243,0.188-0.546,0.344-0.913,0.468
				c-0.365,0.125-0.787,0.185-1.263,0.185c-1.088,0-1.935-0.31-2.539-0.93c-0.605-0.621-0.907-1.463-0.907-2.527
				c0-0.501,0.075-0.965,0.224-1.394c0.149-0.428,0.366-0.794,0.651-1.102c0.286-0.306,0.638-0.541,1.056-0.705
				c0.418-0.163,0.881-0.245,1.391-0.245c0.661,0,1.23,0.14,1.704,0.419c0.474,0.28,0.829,0.641,1.065,1.083
				c0.236,0.443,0.354,0.895,0.354,1.354c0,0.428-0.123,0.702-0.366,0.829C185.379,474.357,185.034,474.422,184.591,474.422z
				 M181.276,473.46h3.074c-0.042-0.58-0.199-1.015-0.469-1.301c-0.272-0.289-0.629-0.432-1.07-0.432
				c-0.423,0-0.77,0.145-1.04,0.436C181.499,472.457,181.334,472.887,181.276,473.46z"/>
			<path id="XMLID_413_" style="fill:#302E2F;" d="M192.313,475.233c0,0.468-0.113,0.868-0.341,1.202
				c-0.227,0.333-0.563,0.587-1.009,0.758c-0.444,0.172-0.985,0.256-1.623,0.256c-0.608,0-1.13-0.093-1.564-0.278
				c-0.435-0.186-0.756-0.419-0.963-0.697c-0.207-0.281-0.31-0.561-0.31-0.843c0-0.188,0.065-0.345,0.199-0.479
				c0.132-0.132,0.299-0.196,0.503-0.196c0.177,0,0.314,0.042,0.409,0.129c0.095,0.088,0.186,0.209,0.273,0.366
				c0.174,0.304,0.382,0.526,0.625,0.678c0.242,0.148,0.571,0.223,0.99,0.223c0.339,0,0.618-0.076,0.835-0.226
				c0.216-0.153,0.325-0.325,0.325-0.52c0-0.298-0.112-0.514-0.338-0.65c-0.226-0.138-0.597-0.269-1.115-0.393
				c-0.584-0.144-1.059-0.297-1.425-0.457c-0.367-0.157-0.659-0.369-0.878-0.629c-0.219-0.261-0.329-0.583-0.329-0.963
				c0-0.338,0.101-0.659,0.303-0.962c0.204-0.302,0.502-0.543,0.899-0.724c0.394-0.18,0.871-0.271,1.43-0.271
				c0.439,0,0.833,0.047,1.182,0.139c0.351,0.089,0.643,0.213,0.876,0.366c0.234,0.152,0.412,0.321,0.533,0.508
				c0.122,0.187,0.183,0.367,0.183,0.546c0,0.194-0.065,0.354-0.195,0.48c-0.13,0.122-0.315,0.185-0.556,0.185
				c-0.174,0-0.322-0.05-0.443-0.149c-0.122-0.1-0.262-0.249-0.419-0.446c-0.128-0.165-0.279-0.299-0.453-0.398
				c-0.174-0.099-0.41-0.147-0.708-0.147c-0.306,0-0.561,0.064-0.764,0.194c-0.202,0.131-0.304,0.292-0.304,0.486
				c0,0.179,0.075,0.324,0.223,0.439c0.15,0.114,0.351,0.209,0.604,0.283c0.252,0.075,0.599,0.165,1.042,0.272
				c0.525,0.128,0.954,0.283,1.288,0.459c0.333,0.178,0.585,0.388,0.758,0.632C192.227,474.648,192.313,474.924,192.313,475.233z"/>
			<path id="XMLID_415_" style="fill:#302E2F;" d="M194.045,469.772c-0.237,0-0.438-0.074-0.605-0.219
				c-0.168-0.144-0.252-0.349-0.252-0.616c0-0.238,0.085-0.435,0.257-0.591c0.172-0.155,0.373-0.233,0.6-0.233
				c0.22,0,0.414,0.07,0.584,0.212c0.168,0.141,0.254,0.345,0.254,0.612c0,0.264-0.083,0.467-0.249,0.613
				C194.469,469.697,194.273,469.772,194.045,469.772z M194.883,471.522v4.898c0,0.339-0.081,0.596-0.242,0.77
				c-0.161,0.174-0.366,0.26-0.615,0.26c-0.248,0-0.449-0.087-0.605-0.267c-0.155-0.177-0.232-0.433-0.232-0.763v-4.849
				c0-0.335,0.077-0.587,0.232-0.758c0.156-0.169,0.357-0.255,0.605-0.255c0.25,0,0.454,0.086,0.615,0.255
				C194.802,470.984,194.883,471.22,194.883,471.522z"/>
			<path id="XMLID_418_" style="fill:#302E2F;" d="M202.308,471.8v4.925c0,0.561-0.061,1.047-0.181,1.453
				c-0.119,0.403-0.312,0.74-0.577,1.005c-0.265,0.264-0.612,0.462-1.04,0.59c-0.427,0.129-0.961,0.192-1.599,0.192
				c-0.583,0-1.104-0.083-1.564-0.246c-0.459-0.163-0.813-0.375-1.062-0.632c-0.247-0.26-0.372-0.524-0.372-0.798
				c0-0.207,0.07-0.377,0.211-0.506c0.14-0.132,0.311-0.197,0.509-0.197c0.249,0,0.466,0.111,0.652,0.33
				c0.091,0.111,0.185,0.226,0.282,0.339c0.098,0.114,0.206,0.21,0.323,0.291c0.119,0.081,0.261,0.142,0.426,0.181
				c0.166,0.039,0.357,0.058,0.571,0.058c0.438,0,0.779-0.061,1.021-0.183c0.243-0.121,0.413-0.292,0.51-0.513
				c0.097-0.218,0.154-0.452,0.17-0.704c0.017-0.249,0.029-0.653,0.037-1.207c-0.261,0.365-0.562,0.642-0.903,0.832
				c-0.341,0.189-0.748,0.285-1.22,0.285c-0.567,0-1.063-0.145-1.487-0.434c-0.424-0.29-0.75-0.694-0.977-1.217
				c-0.229-0.521-0.342-1.122-0.342-1.806c0-0.51,0.069-0.97,0.207-1.379c0.14-0.41,0.336-0.755,0.593-1.036
				c0.256-0.282,0.552-0.493,0.887-0.637c0.335-0.142,0.703-0.214,1.105-0.214c0.48,0,0.896,0.093,1.249,0.275
				c0.352,0.185,0.679,0.474,0.981,0.867v-0.23c0-0.293,0.071-0.521,0.217-0.684c0.145-0.159,0.332-0.242,0.559-0.242
				c0.326,0,0.544,0.107,0.651,0.32C202.253,471.092,202.308,471.399,202.308,471.8z M197.396,473.949
				c0,0.688,0.149,1.207,0.45,1.558c0.3,0.353,0.688,0.528,1.165,0.528c0.281,0,0.547-0.075,0.797-0.227
				c0.251-0.151,0.455-0.38,0.612-0.683c0.156-0.305,0.236-0.673,0.236-1.107c0-0.692-0.153-1.23-0.457-1.615
				c-0.303-0.385-0.704-0.577-1.201-0.577c-0.484,0-0.872,0.185-1.164,0.554C197.542,472.747,197.396,473.272,197.396,473.949z"/>
			<path id="XMLID_421_" style="fill:#302E2F;" d="M205,471.497v0.205c0.298-0.393,0.624-0.683,0.978-0.866
				c0.354-0.184,0.76-0.277,1.219-0.277c0.448,0,0.847,0.099,1.199,0.292c0.351,0.195,0.615,0.471,0.788,0.825
				c0.112,0.208,0.184,0.433,0.217,0.671c0.032,0.241,0.05,0.547,0.05,0.92v3.153c0,0.339-0.078,0.596-0.233,0.77
				c-0.156,0.174-0.357,0.26-0.605,0.26c-0.253,0-0.458-0.087-0.615-0.267c-0.158-0.177-0.235-0.433-0.235-0.763v-2.826
				c0-0.557-0.079-0.984-0.233-1.281c-0.155-0.295-0.465-0.443-0.929-0.443c-0.302,0-0.577,0.09-0.825,0.27
				c-0.248,0.18-0.431,0.427-0.546,0.742c-0.083,0.251-0.124,0.723-0.124,1.415v2.123c0,0.343-0.081,0.603-0.239,0.773
				c-0.16,0.172-0.366,0.256-0.618,0.256c-0.245,0-0.445-0.087-0.602-0.267c-0.157-0.177-0.236-0.433-0.236-0.763v-4.898
				c0-0.322,0.07-0.565,0.211-0.724c0.141-0.159,0.333-0.239,0.577-0.239c0.149,0,0.284,0.036,0.404,0.107
				c0.12,0.07,0.216,0.175,0.288,0.315C204.964,471.122,205,471.294,205,471.497z"/>
			<path id="XMLID_423_" style="fill:#302E2F;" d="M215.311,474.422h-3.314c0.004,0.384,0.081,0.724,0.232,1.018
				c0.152,0.294,0.352,0.516,0.603,0.664c0.249,0.149,0.526,0.223,0.828,0.223c0.204,0,0.389-0.022,0.556-0.069
				c0.168-0.05,0.33-0.123,0.487-0.225c0.157-0.102,0.301-0.21,0.436-0.327c0.131-0.115,0.303-0.274,0.514-0.472
				c0.087-0.073,0.211-0.111,0.373-0.111c0.174,0,0.315,0.047,0.422,0.143c0.107,0.096,0.161,0.229,0.161,0.403
				c0,0.153-0.06,0.331-0.18,0.536c-0.12,0.205-0.301,0.401-0.543,0.591c-0.243,0.188-0.546,0.344-0.912,0.468
				c-0.367,0.125-0.788,0.185-1.264,0.185c-1.088,0-1.935-0.31-2.539-0.93c-0.604-0.621-0.907-1.463-0.907-2.527
				c0-0.501,0.075-0.965,0.224-1.394c0.149-0.428,0.366-0.794,0.652-1.102c0.285-0.306,0.637-0.541,1.055-0.705
				c0.418-0.163,0.882-0.245,1.391-0.245c0.663,0,1.23,0.14,1.703,0.419c0.474,0.28,0.83,0.641,1.066,1.083
				c0.234,0.443,0.354,0.895,0.354,1.354c0,0.428-0.122,0.702-0.366,0.829C216.098,474.357,215.754,474.422,215.311,474.422z
				 M211.997,473.46h3.073c-0.042-0.58-0.198-1.015-0.469-1.301c-0.271-0.289-0.627-0.432-1.071-0.432
				c-0.422,0-0.769,0.145-1.04,0.436C212.218,472.457,212.055,472.887,211.997,473.46z"/>
			<path id="XMLID_426_" style="fill:#302E2F;" d="M222.219,476.483v-0.17c-0.227,0.262-0.452,0.474-0.673,0.636
				c-0.221,0.164-0.461,0.289-0.719,0.373c-0.259,0.087-0.541,0.127-0.847,0.127c-0.407,0-0.783-0.084-1.127-0.256
				c-0.346-0.171-0.645-0.418-0.897-0.736c-0.253-0.318-0.444-0.691-0.574-1.124c-0.13-0.43-0.195-0.897-0.195-1.398
				c0-1.058,0.258-1.885,0.776-2.476c0.517-0.591,1.198-0.887,2.042-0.887c0.489,0,0.901,0.084,1.236,0.251
				c0.335,0.166,0.662,0.426,0.98,0.772v-2.502c0-0.348,0.069-0.609,0.208-0.787c0.139-0.178,0.337-0.267,0.593-0.267
				c0.256,0,0.454,0.082,0.593,0.245c0.138,0.164,0.207,0.404,0.207,0.723v7.476c0,0.321-0.073,0.564-0.223,0.725
				c-0.149,0.161-0.341,0.241-0.578,0.241c-0.231,0-0.423-0.082-0.574-0.25C222.295,477.032,222.219,476.792,222.219,476.483z
				 M218.886,473.992c0,0.461,0.07,0.851,0.214,1.173c0.143,0.323,0.339,0.566,0.587,0.729c0.248,0.163,0.519,0.247,0.813,0.247
				c0.298,0,0.57-0.078,0.816-0.234c0.247-0.154,0.442-0.393,0.589-0.713c0.147-0.32,0.221-0.723,0.221-1.202
				c0-0.451-0.073-0.839-0.221-1.166c-0.147-0.322-0.345-0.571-0.595-0.743c-0.251-0.171-0.525-0.257-0.823-0.257
				c-0.31,0-0.587,0.088-0.831,0.262c-0.244,0.178-0.434,0.429-0.568,0.759C218.953,473.177,218.886,473.558,218.886,473.992z"/>
			<path id="XMLID_429_" style="fill:#302E2F;" d="M229.147,469.008v2.588c0.318-0.332,0.643-0.585,0.975-0.76
				c0.33-0.178,0.741-0.264,1.229-0.264c0.563,0,1.056,0.133,1.48,0.4c0.423,0.267,0.753,0.654,0.987,1.16
				c0.234,0.507,0.351,1.109,0.351,1.803c0,0.516-0.065,0.985-0.195,1.414c-0.131,0.428-0.32,0.799-0.568,1.113
				c-0.248,0.314-0.55,0.56-0.903,0.73c-0.354,0.172-0.743,0.256-1.17,0.256c-0.261,0-0.507-0.031-0.736-0.093
				c-0.229-0.062-0.426-0.143-0.587-0.245c-0.161-0.101-0.298-0.204-0.412-0.313c-0.114-0.107-0.265-0.268-0.45-0.485v0.17
				c0,0.316-0.078,0.557-0.23,0.723c-0.152,0.163-0.347,0.243-0.584,0.243c-0.24,0-0.431-0.08-0.574-0.243
				c-0.143-0.166-0.215-0.406-0.215-0.723v-7.401c0-0.344,0.07-0.604,0.208-0.779c0.14-0.177,0.333-0.263,0.581-0.263
				c0.261,0,0.462,0.082,0.603,0.25C229.076,468.458,229.147,468.695,229.147,469.008z M229.227,474.043
				c0,0.674,0.154,1.191,0.462,1.554c0.308,0.363,0.712,0.545,1.213,0.545c0.426,0,0.794-0.186,1.102-0.557
				c0.308-0.371,0.462-0.9,0.462-1.593c0-0.446-0.063-0.832-0.192-1.153c-0.128-0.324-0.31-0.573-0.546-0.751
				c-0.236-0.174-0.512-0.262-0.826-0.262c-0.323,0-0.61,0.088-0.863,0.262c-0.252,0.178-0.451,0.432-0.596,0.764
				C229.3,473.186,229.227,473.582,229.227,474.043z"/>
			<path id="XMLID_432_" style="fill:#302E2F;" d="M236.366,477.662l0.155-0.379l-2.086-5.253c-0.127-0.301-0.192-0.521-0.192-0.657
				c0-0.145,0.038-0.28,0.113-0.404c0.074-0.125,0.175-0.224,0.306-0.298c0.131-0.074,0.267-0.112,0.406-0.112
				c0.245,0,0.428,0.078,0.553,0.233c0.124,0.156,0.234,0.377,0.329,0.667l1.435,4.172l1.359-3.88
				c0.107-0.315,0.205-0.56,0.292-0.739c0.087-0.177,0.178-0.298,0.276-0.358c0.097-0.063,0.235-0.095,0.413-0.095
				c0.129,0,0.252,0.036,0.37,0.104c0.118,0.068,0.209,0.159,0.273,0.275c0.063,0.115,0.096,0.237,0.096,0.366
				c-0.017,0.078-0.044,0.189-0.081,0.336c-0.038,0.144-0.083,0.293-0.136,0.44l-2.21,5.785c-0.192,0.51-0.377,0.908-0.559,1.198
				c-0.183,0.29-0.423,0.514-0.724,0.668c-0.3,0.155-0.705,0.233-1.214,0.233c-0.496,0-0.869-0.054-1.116-0.16
				c-0.249-0.109-0.374-0.306-0.374-0.591c0-0.194,0.058-0.345,0.177-0.451c0.118-0.104,0.294-0.16,0.525-0.16
				c0.091,0,0.18,0.015,0.268,0.039c0.107,0.025,0.2,0.038,0.279,0.038c0.194,0,0.348-0.029,0.46-0.088
				c0.111-0.058,0.211-0.156,0.301-0.301C236.148,478.148,236.25,477.939,236.366,477.662z"/>
		</g>
		<g id="XMLID_434_">
			<path id="XMLID_435_" style="fill:#302E2F;" d="M260.918,470.706h0.404v-0.508c0-0.534,0.064-0.954,0.199-1.267
				c0.133-0.313,0.363-0.54,0.686-0.684c0.32-0.141,0.759-0.214,1.316-0.214c0.993,0,1.486,0.24,1.486,0.727
				c0,0.157-0.052,0.292-0.157,0.403c-0.1,0.111-0.224,0.167-0.365,0.167c-0.064,0-0.181-0.012-0.344-0.038
				c-0.155-0.021-0.297-0.037-0.407-0.037c-0.306,0-0.501,0.093-0.592,0.271c-0.082,0.181-0.127,0.437-0.127,0.774v0.403h0.413
				c0.648,0,0.969,0.193,0.969,0.586c0,0.273-0.085,0.45-0.258,0.525c-0.171,0.074-0.408,0.112-0.711,0.112h-0.413v4.49
				c0,0.333-0.08,0.589-0.243,0.763c-0.157,0.18-0.36,0.266-0.615,0.266c-0.24,0-0.438-0.086-0.6-0.266
				c-0.159-0.174-0.237-0.43-0.237-0.763v-4.49h-0.467c-0.254,0-0.446-0.056-0.584-0.172c-0.138-0.111-0.206-0.261-0.206-0.442
				C260.065,470.907,260.35,470.706,260.918,470.706"/>
			<path id="XMLID_436_" style="fill:#302E2F;" d="M266.466,475.003v1.417c0,0.342-0.086,0.602-0.245,0.772
				c-0.16,0.174-0.365,0.257-0.611,0.257c-0.251,0-0.45-0.085-0.607-0.261c-0.154-0.173-0.235-0.43-0.235-0.768v-4.721
				c0-0.761,0.273-1.143,0.823-1.143c0.284,0,0.486,0.089,0.611,0.268c0.125,0.179,0.192,0.44,0.207,0.789
				c0.2-0.349,0.408-0.61,0.62-0.789c0.217-0.179,0.498-0.268,0.855-0.268c0.357,0,0.701,0.089,1.036,0.268
				c0.337,0.179,0.505,0.416,0.505,0.708c0,0.207-0.072,0.379-0.214,0.512c-0.143,0.136-0.297,0.203-0.461,0.203
				c-0.066,0-0.217-0.041-0.453-0.117c-0.239-0.074-0.45-0.113-0.63-0.113c-0.248,0-0.451,0.067-0.608,0.195
				c-0.158,0.134-0.281,0.324-0.368,0.579c-0.085,0.259-0.145,0.566-0.179,0.917C266.48,474.061,266.466,474.495,266.466,475.003"/>
			<path id="XMLID_437_" style="fill:#302E2F;" d="M274.257,474.42h-3.315c0.005,0.384,0.08,0.726,0.231,1.019
				c0.153,0.292,0.353,0.514,0.604,0.665c0.252,0.148,0.525,0.222,0.83,0.222c0.203,0,0.388-0.021,0.555-0.073
				c0.167-0.046,0.33-0.121,0.487-0.223c0.158-0.101,0.302-0.207,0.434-0.327c0.134-0.113,0.306-0.271,0.517-0.47
				c0.089-0.072,0.213-0.114,0.372-0.114c0.175,0,0.313,0.049,0.424,0.146c0.109,0.097,0.159,0.229,0.159,0.403
				c0,0.155-0.059,0.333-0.174,0.536c-0.124,0.207-0.305,0.402-0.546,0.593c-0.246,0.186-0.549,0.344-0.915,0.467
				c-0.364,0.124-0.787,0.186-1.263,0.186c-1.091,0-1.938-0.309-2.54-0.928c-0.603-0.623-0.908-1.467-0.908-2.529
				c0-0.502,0.076-0.966,0.227-1.395c0.146-0.432,0.364-0.797,0.653-1.104c0.283-0.308,0.634-0.541,1.052-0.706
				c0.417-0.163,0.882-0.244,1.392-0.244c0.66,0,1.23,0.141,1.703,0.423c0.475,0.276,0.834,0.638,1.065,1.082
				c0.237,0.444,0.354,0.893,0.354,1.355c0,0.423-0.124,0.699-0.367,0.826C275.043,474.356,274.7,474.42,274.257,474.42
				 M270.941,473.456h3.073c-0.041-0.578-0.196-1.012-0.468-1.298c-0.273-0.289-0.627-0.432-1.072-0.432
				c-0.422,0-0.768,0.143-1.039,0.436C271.163,472.455,270.998,472.885,270.941,473.456"/>
			<path id="XMLID_440_" style="fill:#302E2F;" d="M281.308,474.42h-3.314c0.003,0.384,0.081,0.726,0.231,1.019
				c0.15,0.292,0.352,0.514,0.602,0.665c0.251,0.148,0.526,0.222,0.831,0.222c0.2,0,0.388-0.021,0.552-0.073
				c0.171-0.046,0.33-0.121,0.489-0.223c0.159-0.101,0.302-0.207,0.435-0.327c0.13-0.113,0.303-0.271,0.516-0.47
				c0.088-0.072,0.213-0.114,0.372-0.114c0.175,0,0.315,0.049,0.426,0.146c0.105,0.097,0.156,0.229,0.156,0.403
				c0,0.155-0.057,0.333-0.18,0.536c-0.116,0.207-0.297,0.402-0.542,0.593c-0.241,0.186-0.549,0.344-0.914,0.467
				c-0.361,0.124-0.788,0.186-1.262,0.186c-1.091,0-1.936-0.309-2.541-0.928c-0.604-0.623-0.908-1.467-0.908-2.529
				c0-0.502,0.076-0.966,0.229-1.395c0.146-0.432,0.363-0.797,0.65-1.104c0.283-0.308,0.635-0.541,1.055-0.706
				c0.418-0.163,0.882-0.244,1.392-0.244c0.659,0,1.227,0.141,1.708,0.423c0.47,0.276,0.827,0.638,1.059,1.082
				c0.236,0.444,0.357,0.893,0.357,1.355c0,0.423-0.125,0.699-0.368,0.826C282.092,474.356,281.749,474.42,281.308,474.42
				 M277.993,473.456h3.072c-0.042-0.578-0.2-1.012-0.468-1.298c-0.275-0.289-0.629-0.432-1.073-0.432
				c-0.422,0-0.768,0.143-1.042,0.436C278.213,472.455,278.048,472.885,277.993,473.456"/>
			<path id="XMLID_443_" style="fill:#302E2F;" d="M285.02,471.51v0.204c0.318-0.395,0.65-0.683,0.997-0.866
				c0.34-0.186,0.731-0.279,1.165-0.279c0.52,0,1.003,0.136,1.442,0.404c0.44,0.27,0.783,0.662,1.038,1.18
				c0.257,0.521,0.384,1.131,0.384,1.839c0,0.52-0.074,1.002-0.22,1.438c-0.146,0.438-0.352,0.801-0.607,1.098
				c-0.256,0.294-0.56,0.523-0.907,0.685c-0.354,0.157-0.727,0.236-1.13,0.236c-0.482,0-0.892-0.096-1.219-0.291
				c-0.329-0.191-0.643-0.479-0.943-0.853v2.544c0,0.742-0.271,1.118-0.813,1.118c-0.321,0-0.528-0.097-0.634-0.289
				c-0.1-0.194-0.154-0.473-0.154-0.843v-7.317c0-0.322,0.07-0.561,0.21-0.723c0.141-0.157,0.334-0.238,0.578-0.238
				c0.24,0,0.435,0.081,0.586,0.245C284.946,470.966,285.02,471.2,285.02,471.51 M288.344,473.973c0-0.447-0.07-0.833-0.206-1.152
				c-0.136-0.323-0.326-0.567-0.565-0.737c-0.241-0.173-0.512-0.26-0.807-0.26c-0.466,0-0.861,0.188-1.182,0.553
				c-0.321,0.369-0.484,0.911-0.484,1.628c0,0.672,0.162,1.199,0.482,1.573c0.318,0.375,0.709,0.562,1.184,0.562
				c0.28,0,0.544-0.083,0.783-0.244c0.242-0.164,0.435-0.409,0.577-0.734C288.271,474.83,288.344,474.435,288.344,473.973"/>
			<path id="XMLID_446_" style="fill:#302E2F;" d="M291.752,469.767c-0.236,0-0.438-0.073-0.604-0.218
				c-0.168-0.147-0.252-0.348-0.252-0.612c0-0.241,0.085-0.438,0.259-0.596c0.172-0.152,0.369-0.231,0.597-0.231
				c0.223,0,0.416,0.069,0.585,0.208c0.169,0.143,0.255,0.351,0.255,0.619c0,0.261-0.083,0.465-0.247,0.611
				C292.179,469.693,291.983,469.767,291.752,469.767 M292.592,471.517v4.905c0,0.336-0.08,0.593-0.241,0.766
				c-0.164,0.176-0.367,0.261-0.615,0.261c-0.249,0-0.448-0.086-0.606-0.266c-0.153-0.18-0.232-0.434-0.232-0.761v-4.855
				c0-0.333,0.079-0.586,0.232-0.754c0.158-0.174,0.357-0.257,0.606-0.257c0.248,0,0.451,0.083,0.615,0.257
				C292.512,470.98,292.592,471.219,292.592,471.517"/>
			<path id="XMLID_449_" style="fill:#302E2F;" d="M298.056,476.676l-1.492-2.462l-0.921,0.869v1.35c0,0.325-0.087,0.576-0.259,0.75
				c-0.168,0.18-0.37,0.266-0.593,0.266c-0.261,0-0.467-0.085-0.614-0.261c-0.15-0.173-0.226-0.43-0.226-0.768v-7.231
				c0-0.376,0.075-0.661,0.217-0.858c0.146-0.199,0.355-0.296,0.623-0.296c0.262,0,0.465,0.09,0.621,0.27
				c0.151,0.176,0.23,0.439,0.23,0.786v4.112l1.905-2.001c0.237-0.247,0.415-0.419,0.541-0.509c0.123-0.092,0.274-0.137,0.45-0.137
				c0.214,0,0.389,0.068,0.534,0.202c0.138,0.134,0.208,0.305,0.208,0.506c0,0.248-0.231,0.581-0.688,0.994l-0.9,0.826l1.738,2.733
				c0.126,0.204,0.222,0.354,0.276,0.461c0.055,0.105,0.086,0.209,0.086,0.302c0,0.27-0.075,0.479-0.224,0.637
				c-0.146,0.156-0.343,0.231-0.578,0.231c-0.208,0-0.369-0.052-0.479-0.168C298.4,477.17,298.244,476.966,298.056,476.676"/>
			<path id="XMLID_450_" style="fill:#302E2F;" d="M301.738,477.448c-0.255,0-0.475-0.081-0.663-0.249
				c-0.185-0.162-0.279-0.395-0.279-0.695c0-0.252,0.09-0.47,0.268-0.65c0.18-0.183,0.397-0.273,0.659-0.273
				c0.26,0,0.48,0.091,0.669,0.268c0.183,0.181,0.275,0.401,0.275,0.655c0,0.296-0.093,0.528-0.275,0.693
				C302.203,477.367,301.986,477.448,301.738,477.448"/>
			<path id="XMLID_451_" style="fill:#302E2F;" d="M310.169,475.351c0,0.21-0.063,0.438-0.19,0.677
				c-0.125,0.242-0.319,0.469-0.577,0.687c-0.259,0.217-0.583,0.393-0.978,0.524c-0.393,0.132-0.837,0.2-1.327,0.2
				c-1.05,0-1.868-0.307-2.456-0.915c-0.585-0.611-0.879-1.431-0.879-2.458c0-0.697,0.133-1.311,0.403-1.846
				c0.266-0.532,0.657-0.946,1.164-1.239c0.51-0.292,1.122-0.438,1.827-0.438c0.439,0,0.842,0.065,1.21,0.193
				c0.366,0.127,0.675,0.295,0.933,0.497c0.252,0.204,0.447,0.42,0.58,0.648c0.135,0.23,0.2,0.444,0.2,0.644
				c0,0.201-0.073,0.375-0.223,0.516c-0.154,0.141-0.338,0.211-0.548,0.211c-0.144,0-0.261-0.037-0.354-0.108
				c-0.096-0.072-0.199-0.189-0.314-0.354c-0.207-0.312-0.421-0.55-0.649-0.706c-0.226-0.158-0.512-0.236-0.859-0.236
				c-0.498,0-0.904,0.195-1.212,0.587c-0.305,0.39-0.46,0.928-0.46,1.603c0,0.319,0.041,0.614,0.121,0.882
				c0.076,0.266,0.189,0.494,0.339,0.682c0.151,0.188,0.331,0.33,0.541,0.428c0.212,0.101,0.444,0.148,0.695,0.148
				c0.34,0,0.631-0.079,0.873-0.237c0.246-0.157,0.46-0.397,0.646-0.72c0.102-0.189,0.214-0.339,0.332-0.446
				c0.119-0.106,0.268-0.162,0.441-0.162c0.207,0,0.379,0.079,0.515,0.235C310.101,475.006,310.169,475.174,310.169,475.351"/>
			<path id="XMLID_452_" style="fill:#302E2F;" d="M317.483,474.004c0,0.503-0.079,0.97-0.231,1.398
				c-0.162,0.426-0.388,0.792-0.688,1.097c-0.297,0.306-0.654,0.541-1.065,0.705c-0.418,0.163-0.882,0.245-1.397,0.245
				c-0.514,0-0.977-0.082-1.388-0.25c-0.407-0.162-0.764-0.4-1.063-0.707c-0.3-0.311-0.528-0.675-0.688-1.096
				c-0.148-0.42-0.228-0.885-0.228-1.393c0-0.515,0.081-0.984,0.234-1.409c0.156-0.43,0.383-0.795,0.678-1.095
				c0.294-0.301,0.649-0.534,1.065-0.699c0.421-0.164,0.883-0.245,1.388-0.245c0.514,0,0.978,0.081,1.397,0.249
				c0.417,0.164,0.773,0.402,1.073,0.707c0.3,0.31,0.525,0.672,0.681,1.092C317.405,473.029,317.483,473.491,317.483,474.004
				 M315.782,474.004c0-0.691-0.154-1.229-0.456-1.613c-0.304-0.389-0.711-0.581-1.225-0.581c-0.333,0-0.625,0.087-0.878,0.258
				c-0.252,0.172-0.445,0.425-0.582,0.761c-0.137,0.337-0.206,0.728-0.206,1.176c0,0.443,0.067,0.829,0.202,1.159
				c0.136,0.333,0.328,0.585,0.578,0.762c0.254,0.175,0.547,0.266,0.886,0.266c0.514,0,0.921-0.194,1.225-0.584
				C315.628,475.221,315.782,474.685,315.782,474.004"/>
			<path id="XMLID_455_" style="fill:#302E2F;" d="M323.949,474.128v2.254c0,0.357-0.078,0.621-0.241,0.801
				c-0.164,0.18-0.373,0.267-0.639,0.267c-0.257,0-0.468-0.087-0.622-0.267c-0.162-0.18-0.244-0.443-0.244-0.801v-2.701
				c0-0.426-0.013-0.759-0.04-0.996c-0.03-0.232-0.11-0.429-0.237-0.576c-0.129-0.153-0.333-0.23-0.608-0.23
				c-0.556,0-0.92,0.19-1.096,0.575c-0.174,0.378-0.265,0.924-0.265,1.639v2.29c0,0.351-0.08,0.618-0.237,0.8
				c-0.163,0.177-0.371,0.268-0.63,0.268c-0.26,0-0.469-0.091-0.634-0.268c-0.163-0.182-0.244-0.449-0.244-0.8v-4.85
				c0-0.318,0.072-0.563,0.219-0.727c0.15-0.168,0.344-0.249,0.581-0.249c0.233,0,0.425,0.081,0.583,0.231
				c0.153,0.157,0.232,0.371,0.232,0.645v0.159c0.296-0.349,0.611-0.607,0.944-0.77c0.337-0.171,0.707-0.252,1.119-0.252
				c0.426,0,0.791,0.086,1.097,0.255c0.307,0.169,0.558,0.428,0.76,0.768c0.286-0.344,0.593-0.602,0.92-0.77
				c0.328-0.168,0.689-0.252,1.086-0.252c0.462,0,0.864,0.094,1.198,0.273c0.335,0.182,0.585,0.444,0.751,0.782
				c0.145,0.31,0.215,0.79,0.215,1.448v3.31c0,0.357-0.078,0.621-0.239,0.801c-0.16,0.18-0.375,0.267-0.64,0.267
				c-0.259,0-0.467-0.091-0.631-0.268c-0.164-0.182-0.246-0.449-0.246-0.8v-2.852c0-0.365-0.016-0.656-0.045-0.874
				c-0.03-0.221-0.115-0.405-0.25-0.554c-0.139-0.147-0.347-0.225-0.623-0.225c-0.223,0-0.435,0.069-0.637,0.201
				c-0.201,0.129-0.358,0.311-0.471,0.53C324.014,472.896,323.949,473.403,323.949,474.128"/>
		</g>
		<g id="XMLID_456_">
			<path id="XMLID_457_" style="fill:#302E2F;" d="M245.056,473.593c-0.002-0.002-0.002-0.005-0.002-0.012
				C245.054,473.588,245.054,473.591,245.056,473.593z"/>
			<path id="XMLID_458_" style="fill:#302E2F;" d="M245.141,474.136c0.001,0,0.001,0,0.003,0c-0.033-0.155-0.058-0.308-0.078-0.459
				C245.086,473.83,245.11,473.982,245.141,474.136z"/>
			<path id="XMLID_459_" style="fill:#302E2F;" d="M245.702,475.709c-0.003-0.008-0.006-0.014-0.011-0.023
				C245.696,475.695,245.699,475.701,245.702,475.709z"/>
			<path id="XMLID_460_" style="fill:#302E2F;" d="M245.649,475.604c-0.016-0.029-0.029-0.06-0.043-0.088
				C245.621,475.548,245.634,475.575,245.649,475.604z"/>
			<path id="XMLID_461_" style="fill:#302E2F;" d="M245.299,474.741c0.083,0.262,0.183,0.516,0.299,0.757
				c-0.118-0.247-0.215-0.501-0.296-0.757H245.299z"/>
			<path id="XMLID_462_" style="fill:#302E2F;" d="M251.616,467.1c0.328,0,0.57,0.026,0.847,0.073l0.079-0.5
				c0,0-0.766-0.233-1.772-0.152l-0.079-0.272c0.312-0.066,0.547-0.344,0.547-0.676c0-0.382-0.31-0.689-0.691-0.689
				c-0.381,0-0.691,0.308-0.691,0.689c0,0.332,0.234,0.609,0.546,0.676l0.088,0.302c-1.068,0.147-1.918,0.563-1.918,0.563
				l0.15,0.462c0.647-0.216,1.207-0.347,1.715-0.401C250.936,467.122,251.311,467.1,251.616,467.1z"/>
			<path id="XMLID_463_" style="fill:#302E2F;" d="M245.69,469.62l0.003-0.004c0.026-0.032,0.05-0.064,0.074-0.094l-0.205-0.146
				l-0.318-0.234c-0.018,0.024-0.521,0.486-0.916,1.339c-0.017-0.026-0.037-0.053-0.06-0.077c-0.119-0.131-0.284-0.195-0.495-0.192
				c-0.002,0-0.006,0-0.01,0c-0.13,0-0.22-0.044-0.278-0.098c0.058-0.072,0.093-0.166,0.093-0.27c0-0.24-0.196-0.436-0.438-0.436
				c-0.241,0-0.438,0.195-0.438,0.436c0,0.242,0.196,0.438,0.438,0.438c0.038,0,0.074-0.005,0.109-0.014
				c0.107,0.121,0.278,0.225,0.527,0.219c0.129-0.001,0.223,0.032,0.286,0.102c0.073,0.079,0.097,0.194,0.105,0.28
				c-0.001,0.001-0.001,0.002-0.002,0.002c-0.284,0.778-0.204,1.746-0.204,1.746l0.691,0.027c0.014-0.353,0.064-0.969,0.243-1.458
				C245.241,470.237,245.673,469.647,245.69,469.62z"/>
			<path id="XMLID_464_" style="fill:#302E2F;" d="M257.628,467.677c-0.24,0-0.436,0.194-0.436,0.437
				c0,0.037,0.007,0.074,0.017,0.109c-0.121,0.107-0.226,0.278-0.222,0.528c0.002,0.13-0.031,0.224-0.101,0.286
				c-0.055,0.048-0.125,0.076-0.193,0.092c-0.515-0.722-1.147-1.16-1.147-1.16l-0.496,0.531c0.375,0.341,0.758,0.768,1.129,1.301
				c0.258,0.368,0.523,0.844,0.742,1.316l0.671-0.316c0,0-0.306-0.756-0.736-1.434c0.074-0.025,0.15-0.066,0.217-0.125
				c0.131-0.118,0.195-0.286,0.19-0.496c0-0.135,0.045-0.228,0.098-0.289c0.074,0.058,0.169,0.095,0.268,0.095
				c0.244,0,0.439-0.197,0.439-0.438C258.066,467.871,257.872,467.677,257.628,467.677z"/>
			<path id="XMLID_465_" style="fill:#302E2F;" d="M255.893,473.692c-0.921,0.447-2.436,1.04-4.432,1.319
				c-0.784,0.108-1.542,0.148-2.242,0.148c-0.909,0-1.712-0.067-2.329-0.146c-0.703-0.089-1.252-0.197-1.589-0.273
				c0.081,0.256,0.179,0.51,0.296,0.757c0.002,0.007,0.005,0.014,0.008,0.019c0.015,0.028,0.028,0.059,0.043,0.088
				c0.013,0.028,0.028,0.055,0.041,0.082c0.005,0.009,0.008,0.015,0.011,0.023c0.198,0.372,0.436,0.714,0.707,1.012
				c0.941,1.027,1.9,1.192,1.909,1.194l0.015,0.001l0.013,0.004c0.009,0.005,0.86,0.279,2.151,0.279
				c1.272,0,2.519-0.258,3.709-0.764c0.881-0.451,1.714-1.135,2.126-1.745c0.32-0.472,0.55-0.976,0.686-1.499
				c0.073-0.278,0.13-0.724,0.098-1.193C256.856,473.174,256.446,473.422,255.893,473.692z"/>
			<path id="XMLID_466_" style="fill:#302E2F;" d="M245.986,469.839c-0.027,0.04-0.427,0.604-0.742,1.472
				c-0.236,0.65-0.226,1.598-0.226,1.609v0.002c0,0.222,0.012,0.441,0.037,0.659c0,0.007,0,0.01,0.002,0.012
				c0.002,0.029,0.007,0.055,0.009,0.084c0.02,0.151,0.045,0.304,0.078,0.459c0.457,0.116,3.188,0.754,6.24,0.328
				c1.914-0.268,3.365-0.832,4.247-1.26c0.734-0.355,1.204-0.677,1.387-0.811c-0.182-0.671-0.681-1.725-1.14-2.382
				c-1.311-1.873-2.724-2.353-3.448-2.473c-0.277-0.045-0.499-0.071-0.813-0.071c-0.292,0-0.655,0.023-1.139,0.074
				c-0.486,0.051-1.028,0.179-1.655,0.389c-0.881,0.295-1.678,0.759-2.305,1.34l-0.021,0.019
				C246.402,469.376,246.209,469.557,245.986,469.839z M254.005,469.403c0.628,0,1.14,0.511,1.14,1.14c0,0.628-0.512,1.14-1.14,1.14
				c-0.629,0-1.14-0.512-1.14-1.14C252.865,469.914,253.376,469.403,254.005,469.403z M248.619,469.357
				c1.017,0,1.841,0.824,1.841,1.843c0,1.016-0.824,1.84-1.841,1.84s-1.841-0.824-1.841-1.84
				C246.777,470.182,247.602,469.357,248.619,469.357z"/>
		</g>
	</g>
</g>
</svg>
