<?xml version="1.0" encoding="utf-8"?>
<!-- Generator: Adobe Illustrator 27.5.0, SVG Export Plug-In . SVG Version: 6.00 Build 0)  -->
<svg version="1.1" xmlns="http://www.w3.org/2000/svg" xmlns:xlink="http://www.w3.org/1999/xlink" x="0px" y="0px"
	 viewBox="0 0 500 500" style="enable-background:new 0 0 500 500;" xml:space="preserve">
<g id="Background_Complete">
	<g>
		<rect y="382.398" style="fill:#EBEBEB;" width="500" height="0.25"/>
		<rect x="416.779" y="398.494" style="fill:#EBEBEB;" width="33.122" height="0.25"/>
		<rect x="322.527" y="401.208" style="fill:#EBEBEB;" width="8.693" height="0.25"/>
		<rect x="396.586" y="389.208" style="fill:#EBEBEB;" width="19.192" height="0.25"/>
		<rect x="52.459" y="390.888" style="fill:#EBEBEB;" width="43.193" height="0.25"/>
		<rect x="104.556" y="390.888" style="fill:#EBEBEB;" width="6.333" height="0.25"/>
		<rect x="131.471" y="395.111" style="fill:#EBEBEB;" width="93.676" height="0.25"/>
		<path style="fill:#EBEBEB;" d="M237.014,337.8H43.915c-3.147,0-5.708-2.561-5.708-5.708V60.66c0-3.147,2.561-5.708,5.708-5.708
			h193.099c3.146,0,5.707,2.561,5.707,5.708v271.432C242.721,335.239,240.16,337.8,237.014,337.8z M43.915,55.203
			c-3.01,0-5.458,2.448-5.458,5.458v271.432c0,3.01,2.448,5.458,5.458,5.458h193.099c3.009,0,5.457-2.448,5.457-5.458V60.66
			c0-3.009-2.448-5.458-5.457-5.458H43.915z"/>
		<path style="fill:#EBEBEB;" d="M453.31,337.8H260.212c-3.147,0-5.707-2.561-5.707-5.708V60.66c0-3.147,2.561-5.708,5.707-5.708
			H453.31c3.148,0,5.708,2.561,5.708,5.708v271.432C459.019,335.239,456.458,337.8,453.31,337.8z M260.212,55.203
			c-3.009,0-5.457,2.448-5.457,5.458v271.432c0,3.01,2.448,5.458,5.457,5.458H453.31c3.01,0,5.458-2.448,5.458-5.458V60.66
			c0-3.009-2.448-5.458-5.458-5.458H260.212z"/>
	</g>
	<g>
		<rect x="258.382" y="140.444" style="fill:#E0E0E0;" width="171.9" height="123.45"/>
		<rect x="256.379" y="140.448" style="fill:#EBEBEB;" width="171.905" height="123.447"/>
		
			<rect x="287.002" y="119.825" transform="matrix(-1.836970e-16 1 -1 -1.836970e-16 543.1083 -141.5541)" style="fill:#FAFAFA;" width="110.658" height="161.905"/>
		<g>
			<g>
				<path style="fill:#E0E0E0;" d="M274.572,175.125c-0.055,0-0.111-0.009-0.166-0.028c-0.261-0.091-0.397-0.376-0.306-0.637
					l4.117-11.736c0.071-0.203,0.242-0.301,0.478-0.334c0.214,0.002,0.403,0.142,0.469,0.346l3.795,11.736
					c0.085,0.263-0.059,0.544-0.322,0.629c-0.264,0.086-0.545-0.06-0.629-0.322l-3.339-10.325l-3.626,10.336
					C274.972,174.996,274.779,175.125,274.572,175.125z"/>
			</g>
			<g>
				<path style="fill:#E0E0E0;" d="M280.907,170.246h-3.503c-0.276,0-0.5-0.224-0.5-0.5c0-0.276,0.224-0.5,0.5-0.5h3.503
					c0.276,0,0.5,0.224,0.5,0.5C281.407,170.023,281.183,170.246,280.907,170.246z"/>
			</g>
			<g>
				<path style="fill:#E0E0E0;" d="M287.633,174.786c-0.747,0-1.457-0.439-2.118-1.309c-0.803-1.056-1.009-1.97-0.613-2.715
					c0.904-1.701,4.699-1.54,5.126-1.515c0.276,0.015,0.487,0.251,0.471,0.527c-0.015,0.275-0.254,0.486-0.527,0.471
					c-1.16-0.064-3.714,0.093-4.188,0.986c-0.245,0.461,0.151,1.146,0.526,1.641c0.514,0.676,1.012,0.979,1.483,0.9
					c1.19-0.2,2.422-2.678,2.919-4.193c0.081-0.248,0.34-0.391,0.594-0.33c0.254,0.062,0.417,0.31,0.374,0.567
					c-0.151,0.913-0.297,3.606,0.97,3.99c0.264,0.08,0.414,0.359,0.333,0.624c-0.08,0.264-0.357,0.416-0.624,0.333
					c-1.116-0.338-1.557-1.451-1.708-2.552c-0.641,1.163-1.559,2.356-2.693,2.547C287.851,174.776,287.742,174.786,287.633,174.786z
					"/>
			</g>
			<g>
				<path style="fill:#E0E0E0;" d="M275.496,196.483c-0.123,0-0.242-0.045-0.334-0.128c-0.105-0.095-0.166-0.23-0.166-0.372v-13.235
					c-0.617,0.046-1.154,0.102-1.545,0.153c-0.274,0.036-0.525-0.157-0.561-0.431c-0.036-0.274,0.157-0.525,0.431-0.561
					c0.719-0.095,7.074-0.868,9.034,0.852c0.412,0.361,0.629,0.825,0.629,1.341c0,1.699-1.427,2.809-2.826,3.489
					c1.469,0.169,3.12,0.594,3.917,1.611c0.345,0.44,0.684,1.198,0.337,2.313c-1.269,4.09-8.553,4.93-8.863,4.964
					C275.532,196.482,275.514,196.483,275.496,196.483z M275.996,182.689v12.717c1.667-0.271,6.568-1.305,7.462-4.187
					c0.177-0.571,0.122-1.029-0.168-1.399c-1.021-1.302-4.574-1.386-5.855-1.311c-0.26,0.006-0.492-0.174-0.525-0.435
					c-0.034-0.26,0.14-0.503,0.397-0.555c1.302-0.262,4.679-1.388,4.679-3.417c0-0.229-0.092-0.416-0.289-0.589
					C280.764,182.696,278.152,182.593,275.996,182.689z"/>
			</g>
			<g>
				<path style="fill:#E0E0E0;" d="M290.542,197.101c-0.755,0-1.597-0.193-2.482-0.642c-0.246-0.125-0.345-0.426-0.22-0.672
					c0.125-0.247,0.426-0.347,0.672-0.22c2.027,1.028,3.708,0.433,4.262-0.647c0.455-0.888,0-1.849-1.158-2.45
					c-0.897-0.465-1.692-0.456-2.43,0.025c-1.245,0.814-1.877,2.651-1.977,3.254c-0.004,0.044-0.009,0.086-0.014,0.125
					c-0.001,0.011,0,0.02,0,0.028l-0.004,0.001c-0.075,0.569-0.208,0.583-0.424,0.606c-0.26,0.022-0.504-0.176-0.555-0.43
					c-0.028-0.142-0.015-0.362,0.038-0.631c0.031-1.494-0.009-6.1-0.048-9.073c-0.003-0.276,0.217-0.503,0.494-0.506
					c0.002,0,0.004,0,0.006,0c0.273,0,0.497,0.22,0.5,0.494c0.04,3.081,0.067,5.221,0.07,6.709c0.321-0.482,0.709-0.93,1.161-1.27
					c1.086-0.816,2.345-0.893,3.642-0.22c1.928,1,2.187,2.626,1.588,3.794C293.153,196.373,292.009,197.101,290.542,197.101z
					 M286.716,196.013h0.01H286.716z"/>
			</g>
			<g>
				<path style="fill:#E0E0E0;" d="M278.571,217.083c-1.613,0-3.204-1.078-4.277-2.446c-1.728-2.2-2.49-5.701-0.08-8.188
					c1.609-1.662,3.168-2.448,4.622-2.337c1.597,0.122,2.443,1.29,2.479,1.34c0.16,0.225,0.107,0.538-0.118,0.697
					c-0.225,0.159-0.536,0.107-0.696-0.116c-0.029-0.039-0.633-0.846-1.756-0.925c-1.152-0.077-2.427,0.607-3.813,2.036
					c-2.003,2.068-1.369,4.943,0.148,6.876c1.207,1.537,3.154,2.659,4.778,1.708c3.352-1.965,3.706-2.826,3.719-2.862
					c0.037-0.273,0.278-0.436,0.556-0.398c0.274,0.037,0.459,0.319,0.422,0.593c-0.047,0.35-0.55,1.395-4.191,3.529
					C279.78,216.932,279.174,217.083,278.571,217.083z"/>
			</g>
			<g>
				<path style="fill:#E0E0E0;" d="M289.678,217.29c-1.991,0-3.251-1.194-3.478-3.32c-0.163-1.525,0.167-2.573,0.979-3.114
					c1.57-1.046,4.216,0.35,4.512,0.513c0.242,0.133,0.331,0.437,0.198,0.678c-0.132,0.242-0.436,0.33-0.679,0.199
					c-0.659-0.36-2.569-1.163-3.478-0.557c-0.478,0.319-0.659,1.051-0.539,2.175c0.144,1.348,0.723,2.117,1.77,2.352
					c1.619,0.36,3.697-0.695,3.995-1.075c0.044-0.226,0.239-0.399,0.479-0.405c0.242,0.004,0.505,0.212,0.512,0.488
					c0.023,0.907-2.229,1.944-3.927,2.055C289.905,217.286,289.79,217.29,289.678,217.29z M292.949,215.247
					C292.949,215.248,292.949,215.248,292.949,215.247C292.949,215.248,292.949,215.248,292.949,215.247z"/>
			</g>
			<g>
				<path style="fill:#E0E0E0;" d="M277.246,239.097c-0.883,0-1.499-0.094-1.564-0.104c-0.243-0.038-0.422-0.248-0.422-0.494
					v-12.318c0-0.276,0.224-0.5,0.5-0.5c0.276,0,0.5,0.224,0.5,0.5v11.871c1.055,0.086,3.851,0.16,5.648-1.317
					c1.031-0.848,1.587-2.098,1.652-3.717c0.12-2.966-1.312-4.8-2.533-5.816c-2.06-1.713-4.976-2.357-6.607-1.983
					c-0.27,0.057-0.538-0.108-0.599-0.377c-0.061-0.269,0.107-0.537,0.377-0.599c1.84-0.418,5.084,0.206,7.468,2.19
					c1.395,1.16,3.029,3.251,2.893,6.626c-0.077,1.917-0.757,3.415-2.02,4.451C280.92,238.838,278.714,239.096,277.246,239.097z"/>
			</g>
			<g>
				<path style="fill:#E0E0E0;" d="M291.154,239.164c-2.38,0-3.894-1.279-4.204-2.714c-0.242-1.119,0.278-2.471,1.984-2.969
					c0.873-0.255,1.696-0.169,2.448,0.256c0.662,0.375,1.178,0.969,1.567,1.576v-9.001c0-0.276,0.224-0.5,0.5-0.5
					c0.276,0,0.5,0.224,0.5,0.5v11.336c0,0.251-0.186,0.463-0.435,0.495c-0.242,0.032-0.483-0.124-0.548-0.367
					c-0.006-0.023-0.641-2.359-2.078-3.17c-0.514-0.29-1.061-0.345-1.673-0.166c-0.972,0.284-1.465,0.974-1.287,1.798
					c0.255,1.181,1.749,2.204,4.113,1.86c0.275-0.034,0.527,0.15,0.566,0.425c0.039,0.273-0.151,0.526-0.424,0.565
					C291.823,239.14,291.48,239.164,291.154,239.164z"/>
			</g>
			<g>
				<path style="fill:#E0E0E0;" d="M308.859,242.241c-0.012,0-0.024,0-0.036-0.001c-0.276-0.021-0.483-0.26-0.463-0.535
					c2.736-38.043,0.027-87.006,0-87.496c-0.016-0.276,0.195-0.512,0.471-0.527c0.278-0.011,0.512,0.195,0.527,0.471
					c0.028,0.491,2.741,49.519,0,87.625C309.338,242.04,309.119,242.241,308.859,242.241z"/>
			</g>
			<g>
				<path style="fill:#E0E0E0;" d="M412.663,220.351h-93.255c-0.276,0-0.5-0.224-0.5-0.5c0-0.276,0.224-0.5,0.5-0.5h93.255
					c0.276,0,0.5,0.224,0.5,0.5C413.163,220.127,412.94,220.351,412.663,220.351z"/>
			</g>
			<g>
				<path style="fill:#E0E0E0;" d="M324.418,217.29c-0.116,0-0.232-0.04-0.327-0.121c-0.209-0.18-0.232-0.496-0.052-0.705
					c0.681-0.789,16.738-19.356,21.777-21.929c5.241-2.67,20.488,17.428,22.21,19.728c0.166,0.221,0.12,0.535-0.101,0.7
					c-0.221,0.166-0.535,0.12-0.7-0.101c-6.31-8.429-17.584-21.155-20.955-19.437c-4.867,2.484-21.31,21.5-21.476,21.691
					C324.698,217.231,324.559,217.29,324.418,217.29z"/>
			</g>
			<g>
				<path style="fill:#E0E0E0;" d="M410.224,215.063c-0.14,0-0.28-0.059-0.379-0.174c-4.749-5.52-17.867-19.835-21.543-19.615
					c-3.698,0.19-14.927,11.639-18.942,16.035c-0.186,0.204-0.503,0.218-0.707,0.032c-0.204-0.186-0.218-0.502-0.032-0.707
					c0.601-0.657,14.766-16.109,19.629-16.359c4.866-0.229,20.573,17.893,22.353,19.961c0.18,0.21,0.157,0.525-0.053,0.705
					C410.456,215.023,410.339,215.063,410.224,215.063z"/>
			</g>
			<g>
				<path style="fill:#E0E0E0;" d="M360.612,201.678c-0.122,0-0.244-0.044-0.34-0.134c-0.203-0.188-0.214-0.504-0.027-0.706
					c0.163-0.177,4.053-4.314,8.756-4.125c2.454,0.099,4.653,1.362,6.537,3.755c0.17,0.217,0.133,0.531-0.084,0.702
					c-0.216,0.171-0.532,0.133-0.702-0.084c-1.693-2.151-3.64-3.286-5.787-3.374c-4.252-0.177-7.95,3.766-7.987,3.806
					C360.88,201.624,360.747,201.678,360.612,201.678z"/>
			</g>
			<g>
				<path style="fill:#E0E0E0;" d="M360.613,197.099c-0.186,0-0.365-0.104-0.451-0.283l-2.468-5.114
					c-0.12-0.249-0.016-0.547,0.233-0.668c0.249-0.12,0.548-0.016,0.667,0.233l2.468,5.114c0.12,0.249,0.016,0.547-0.233,0.667
					C360.76,197.083,360.685,197.099,360.613,197.099z"/>
			</g>
			<g>
				<path style="fill:#E0E0E0;" d="M367.879,193.238c-0.032,0-0.064-0.003-0.097-0.009c-0.271-0.053-0.448-0.316-0.395-0.587
					c0.304-1.551-0.005-6.191-0.008-6.238c-0.019-0.275,0.19-0.514,0.465-0.533c0.27-0.001,0.514,0.19,0.533,0.465
					c0.013,0.196,0.32,4.818-0.008,6.498C368.323,193.073,368.114,193.238,367.879,193.238z"/>
			</g>
			<g>
				<path style="fill:#E0E0E0;" d="M375.145,193.238c-0.106,0-0.214-0.034-0.305-0.104c-0.218-0.169-0.259-0.483-0.09-0.702
					l3.409-4.417c0.168-0.218,0.481-0.258,0.702-0.09c0.218,0.169,0.259,0.483,0.09,0.702l-3.409,4.417
					C375.443,193.171,375.295,193.238,375.145,193.238z"/>
			</g>
			<g>
				<path style="fill:#E0E0E0;" d="M410.224,170.246h-30.23c-0.189,0-0.361-0.106-0.446-0.274c-0.086-0.168-0.069-0.37,0.042-0.522
					c2.728-3.72,6.883-4.115,8.211-4.142c0.414-1.562,2.129-7.145,5.469-7.145c3.006,0,5.621,3.514,6.558,4.941
					c0.655-0.616,2.002-1.543,4.394-1.481c3.563,0.033,6.186,7.145,6.473,7.956c0.054,0.153,0.031,0.323-0.063,0.456
					C410.538,170.167,410.386,170.246,410.224,170.246z M381.056,169.246H409.5c-0.926-2.316-3.091-6.602-5.286-6.623
					c-2.975-0.048-3.988,1.516-4.03,1.582c-0.094,0.147-0.266,0.237-0.434,0.231c-0.174-0.004-0.335-0.097-0.422-0.248
					c-0.029-0.05-2.941-5.025-6.057-5.025c-2.496,0-4.161,4.879-4.592,6.76c-0.054,0.237-0.273,0.395-0.514,0.388
					C388.118,166.307,383.962,166.134,381.056,169.246z"/>
			</g>
			<g>
				<path style="fill:#E0E0E0;" d="M351.716,181.582c-0.184,0-0.36-0.101-0.448-0.276c-0.083-0.165-0.185-0.321-0.303-0.467
					c0.04,0.072,0.063,0.155,0.063,0.243c0,0.276-0.224,0.5-0.5,0.5h-29.802c-0.245,0-0.453-0.177-0.493-0.418
					c-0.009-0.057-0.221-1.403,0.707-2.371c0.65-0.676,1.657-0.975,3.009-0.895c0.094-1.015,0.48-3.217,2.053-4.763
					c1.13-1.11,2.636-1.662,4.491-1.626c4.936,0.085,7.527,2.877,8.462,4.166c0.577-0.614,1.739-1.455,3.817-1.55
					c2.48-0.135,3.482,2.125,3.705,3.617c1.178,0.196,4.598,0.942,5.685,3.116c0.124,0.247,0.023,0.547-0.224,0.671
					C351.867,181.565,351.791,181.582,351.716,181.582z M321.212,180.582h29.316c0.114,0,0.22,0.039,0.304,0.103
					c-1.467-1.587-4.83-2.004-4.868-2.008c-0.238-0.028-0.424-0.223-0.44-0.463c-0.009-0.13-0.267-3.194-2.706-3.09
					c-2.662,0.122-3.438,1.628-3.446,1.643c-0.083,0.168-0.253,0.274-0.439,0.277c-0.164-0.001-0.359-0.098-0.449-0.262
					c-0.093-0.17-2.327-4.175-8.009-4.273c-1.579-0.033-2.837,0.422-3.769,1.334c-1.76,1.725-1.789,4.572-1.789,4.601
					c0,0.144-0.062,0.28-0.169,0.375c-0.108,0.095-0.249,0.14-0.393,0.121c-1.267-0.157-2.2,0.03-2.694,0.545
					C321.335,179.826,321.236,180.265,321.212,180.582z"/>
			</g>
			<g>
				<path style="fill:#E0E0E0;" d="M348.154,243.56c-0.113,0-0.227-0.038-0.32-0.116c-0.212-0.178-0.24-0.493-0.063-0.705
					l17.88-21.362c0.177-0.212,0.493-0.241,0.704-0.063c0.212,0.177,0.24,0.493,0.063,0.704l-17.88,21.363
					C348.44,243.499,348.297,243.56,348.154,243.56z"/>
			</g>
			<g>
				<path style="fill:#E0E0E0;" d="M370.297,243.56c-0.253,0-0.469-0.191-0.497-0.447l-2.277-21.362
					c-0.029-0.275,0.169-0.521,0.444-0.55c0.283-0.031,0.521,0.17,0.55,0.444l2.277,21.363c0.029,0.274-0.169,0.52-0.444,0.55
					C370.333,243.559,370.315,243.56,370.297,243.56z"/>
			</g>
		</g>
		<g>
			<path style="fill:#E6E6E6;" d="M299.459,260.236H278.69v-3.617c0-0.796,0.645-1.441,1.441-1.441h17.887
				c0.796,0,1.441,0.645,1.441,1.441V260.236z"/>
			<rect x="277.404" y="257.326" style="fill:#E0E0E0;" width="23.341" height="4.772"/>
		</g>
		<g>
			<g>
				
					<rect x="353.24" y="237.996" transform="matrix(0.9992 -0.0409 0.0409 0.9992 -9.7583 14.6808)" style="fill:#EBEBEB;" width="1.582" height="15.824"/>
				<polygon style="fill:#E6E6E6;" points="352.851,234.98 352.869,238.246 354.565,238.176 354.316,234.92 				"/>
				
					<rect x="352.791" y="238.002" transform="matrix(0.9992 -0.0408 0.0408 0.9992 -9.4431 14.6448)" style="fill:#E6E6E6;" width="1.871" height="0.901"/>
			</g>
			<g>
				
					<rect x="357.673" y="238.986" transform="matrix(0.9916 0.1297 -0.1297 0.9916 35.0445 -44.4006)" style="fill:#EBEBEB;" width="1.582" height="15.824"/>
				<polygon style="fill:#E6E6E6;" points="359.159,235.928 358.621,239.149 360.304,239.37 360.612,236.118 				"/>
				
					<rect x="358.496" y="239.049" transform="matrix(0.9916 0.1296 -0.1296 0.9916 34.0775 -44.5706)" style="fill:#E6E6E6;" width="1.871" height="0.901"/>
			</g>
			<g>
				
					<rect x="361.892" y="237.996" transform="matrix(0.9992 -0.0407 0.0407 0.9992 -9.7073 14.964)" style="fill:#E6E6E6;" width="1.582" height="15.824"/>
				<polygon style="fill:#F0F0F0;" points="361.505,234.98 361.522,238.245 363.218,238.176 362.969,234.92 				"/>
				
					<rect x="361.444" y="238.002" transform="matrix(0.9992 -0.0407 0.0407 0.9992 -9.4 14.9386)" style="fill:#F0F0F0;" width="1.871" height="0.901"/>
			</g>
			<g>
				
					<rect x="355.308" y="237.992" transform="matrix(0.9924 -0.1231 0.1231 0.9924 -27.5627 45.7067)" style="fill:#E6E6E6;" width="1.582" height="15.824"/>
				<polygon style="fill:#F0F0F0;" points="354.022,235.111 354.309,238.364 355.994,238.155 355.477,234.93 				"/>
				
					<rect x="354.246" y="238.049" transform="matrix(0.9924 -0.1231 0.1231 0.9924 -26.6579 45.5369)" style="fill:#F0F0F0;" width="1.871" height="0.901"/>
			</g>
			<rect x="351.715" y="245.302" style="fill:#E0E0E0;" width="12.857" height="16.796"/>
			<rect x="354.022" y="245.302" style="fill:#EBEBEB;" width="10.55" height="16.796"/>
		</g>
		<g>
			<path style="fill:#E0E0E0;" d="M429.482,267.335H249.181c-0.696,0-1.261-0.564-1.261-1.261v-6.362h182.822v6.362
				C430.742,266.77,430.178,267.335,429.482,267.335z"/>
			<path style="opacity:0.2;fill:#E0E0E0;" d="M429.482,267.335H249.181c-0.696,0-1.261-0.564-1.261-1.261v-6.362h182.822v6.362
				C430.742,266.77,430.178,267.335,429.482,267.335z"/>
			<path style="fill:#EBEBEB;" d="M419.482,267.335H249.181c-0.696,0-1.261-0.564-1.261-1.261v-6.362h172.822v6.362
				C420.742,266.77,420.178,267.335,419.482,267.335z"/>
		</g>
		<g>
			<polygon style="fill:#EBEBEB;" points="417.567,322.832 411.29,322.832 260.489,322.832 260.489,341.075 248.092,341.075 
				248.092,359.481 236.13,359.481 236.13,381.932 248.092,381.932 260.489,381.932 386.931,381.932 398.893,381.932 
				411.29,381.932 417.567,381.932 428.284,381.932 428.284,359.481 428.284,341.075 428.284,322.832 			"/>
			<polygon style="fill:#F5F5F5;" points="411.29,322.832 411.29,341.075 398.893,341.075 398.893,359.481 386.931,359.481 
				386.931,381.932 398.893,381.932 411.29,381.932 428.284,381.932 428.284,359.481 428.284,341.075 428.284,322.832 			"/>
			<rect x="260.489" y="334.164" style="fill:#E0E0E0;" width="150.801" height="6.912"/>
			<rect x="248.092" y="352.382" style="fill:#E0E0E0;" width="150.801" height="7.099"/>
		</g>
		<g>
			
				<ellipse transform="matrix(0.9239 -0.3827 0.3827 0.9239 -14.251 139.2073)" style="fill:#E0E0E0;" cx="342.795" cy="105.426" rx="15.922" ry="15.922"/>
			
				<ellipse transform="matrix(0.9239 -0.3827 0.3827 0.9239 -14.251 139.2073)" style="fill:#FFFFFF;" cx="342.795" cy="105.426" rx="14.346" ry="14.346"/>
			<g>
				<path style="fill:#E0E0E0;" d="M338.478,109.371c-0.147,0-0.292-0.064-0.391-0.188c-0.172-0.216-0.137-0.531,0.079-0.703
					l4.13-3.295v-8.132c0-0.276,0.224-0.5,0.5-0.5c0.276,0,0.5,0.224,0.5,0.5v8.373c0,0.152-0.069,0.296-0.188,0.391l-4.318,3.445
					C338.697,109.335,338.587,109.371,338.478,109.371z"/>
			</g>
		</g>
	</g>
</g>
<g id="Background_Simple" style="display:none;">
	<g style="display:inline;">
		<path style="fill:#407BFF;" d="M257.332,102.413c-75.734,34.075-6.984,94.804-50.713,127.879
			c-43.729,33.074-162.623-5.162-117.299,80.725c53.239,100.886,286.377,86.877,336.645-36.867S333.066,68.339,257.332,102.413z"/>
		<path style="opacity:0.9;fill:#FFFFFF;" d="M257.332,102.413c-75.734,34.075-6.984,94.804-50.713,127.879
			c-43.729,33.074-162.623-5.162-117.299,80.725c53.239,100.886,286.377,86.877,336.645-36.867S333.066,68.339,257.332,102.413z"/>
	</g>
</g>
<g id="Shadow_1_">
	<ellipse id="_x3C_Path_x3E__359_" style="fill:#F5F5F5;" cx="250" cy="416.238" rx="193.889" ry="11.323"/>
</g>
<g id="Plant">
	<g>
		<path style="fill:#407BFF;" d="M87.24,392.563c0,0,4.75-10.364-0.677-20.581c-5.427-10.217-7.001-12.624-3.541-14.717
			s5.047,8.173,5.047,8.173s2.916-7.063,0.508-14.454c-2.408-7.392-3.918-19.431-0.63-20.722c3.289-1.291,0.628,15.019,3.481,20.578
			c0,0,2.397-6.189,2.791-12.126c0.394-5.937-0.222-15.417,2.375-17.849s4.261-0.749,1.708,12.352
			c-2.552,13.102-2.533,23.752-2.533,23.752s5.637-17.186,9.42-17.688c3.783-0.501,3.778,5.065,0.54,9.892
			c-3.238,4.827-9.483,13.476-10.507,17.926c0,0,6.187-12.934,11.753-8.97c5.566,3.964-4.844,11.776-9.484,14.599
			c-4.64,2.823-7.862,20.518-7.862,20.518L87.24,392.563z"/>
		<path style="opacity:0.2;enable-background:new    ;" d="M87.24,392.563c0,0,4.75-10.364-0.677-20.581
			c-5.427-10.217-7.001-12.624-3.541-14.717s5.047,8.173,5.047,8.173s2.916-7.063,0.508-14.454
			c-2.408-7.392-3.918-19.431-0.63-20.722c3.289-1.291,0.628,15.019,3.481,20.578c0,0,2.397-6.189,2.791-12.126
			c0.394-5.937-0.222-15.417,2.375-17.849s4.261-0.749,1.708,12.352c-2.552,13.102-2.533,23.752-2.533,23.752
			s5.637-17.186,9.42-17.688c3.783-0.501,3.778,5.065,0.54,9.892c-3.238,4.827-9.483,13.476-10.507,17.926
			c0,0,6.187-12.934,11.753-8.97c5.566,3.964-4.844,11.776-9.484,14.599c-4.64,2.823-7.862,20.518-7.862,20.518L87.24,392.563z"/>
		<path style="fill:#407BFF;" d="M90.99,396.813c0,0-4.625-10.434,0.924-20.569c5.549-10.135,7.151-12.518,3.717-14.663
			c-3.434-2.145-5.145,8.097-5.145,8.097s-2.831-7.106-0.335-14.461c2.497-7.355,4.151-19.371,0.878-20.711
			c-3.273-1.34-0.808,15.008-3.728,20.525c0,0-2.322-6.224-2.645-12.167c-0.323-5.942,0.407-15.412-2.161-17.883
			c-2.567-2.47-4.251-0.813-1.856,12.326c2.395,13.139,2.248,23.788,2.248,23.788s-5.43-17.269-9.207-17.827
			c-3.777-0.558-3.839,5.008-0.659,9.883c3.18,4.876,9.321,13.616,10.292,18.081c0,0-6.032-13.025-11.644-9.144
			c-5.613,3.881,4.703,11.847,9.308,14.739c4.606,2.892,7.615,20.633,7.615,20.633L90.99,396.813z"/>
		<g>
			<polygon style="fill:#263238;" points="69.656,389.375 107.867,389.375 104.775,416.719 72.749,416.719 			"/>
		</g>
	</g>
</g>
<g id="Height_meter">
	<g>
		<g>
			<path style="fill:#407BFF;" d="M180.993,122.261L180.993,122.261c-23.37,0-42.315,18.945-42.315,42.315v252.143h84.629V164.576
				C223.308,141.206,204.363,122.261,180.993,122.261z"/>
			<path style="opacity:0.7;fill:#FAFAFA;" d="M180.993,122.261L180.993,122.261c-23.37,0-42.315,18.945-42.315,42.315v252.143
				h84.629V164.576C223.308,141.206,204.363,122.261,180.993,122.261z"/>
		</g>
		<g>
			<path style="fill:#407BFF;" d="M183.057,167.848c0-3.258,2.641-5.899,5.899-5.899c0.589,0,1.157,0.089,1.694,0.25
				c-0.086-0.591-0.132-1.196-0.132-1.811c0-6.899,5.593-12.492,12.492-12.492c0.786,0,1.555,0.076,2.301,0.215
				c1.92-3.143,5.371-5.247,9.323-5.247c5.981,0,10.833,4.806,10.922,10.766c0.061-0.001,0.121-0.009,0.182-0.009
				c5.558,0,10.063,4.505,10.063,10.063c0,5.557-4.505,10.063-10.063,10.063l-36.955,0l0.008-0.008
				C185.61,173.65,183.057,171.051,183.057,167.848z"/>
			<path style="opacity:0.5;fill:#FAFAFA;" d="M183.057,167.848c0-3.258,2.641-5.899,5.899-5.899c0.589,0,1.157,0.089,1.694,0.25
				c-0.086-0.591-0.132-1.196-0.132-1.811c0-6.899,5.593-12.492,12.492-12.492c0.786,0,1.555,0.076,2.301,0.215
				c1.92-3.143,5.371-5.247,9.323-5.247c5.981,0,10.833,4.806,10.922,10.766c0.061-0.001,0.121-0.009,0.182-0.009
				c5.558,0,10.063,4.505,10.063,10.063c0,5.557-4.505,10.063-10.063,10.063l-36.955,0l0.008-0.008
				C185.61,173.65,183.057,171.051,183.057,167.848z"/>
		</g>
		<g>
			<path style="fill:#407BFF;" d="M142.185,230.663c0-1.797,1.457-3.255,3.254-3.255c0.325,0,0.639,0.049,0.935,0.138
				c-0.048-0.326-0.073-0.66-0.073-0.999c0-3.806,3.086-6.892,6.892-6.892c0.434,0,0.858,0.042,1.27,0.119
				c1.059-1.734,2.963-2.895,5.144-2.895c3.3,0,5.977,2.652,6.026,5.94c0.034-0.001,0.067-0.005,0.1-0.005
				c3.066,0,5.552,2.486,5.552,5.552c0,3.066-2.486,5.552-5.552,5.552h-20.388l0.004-0.005
				C143.593,233.863,142.185,232.429,142.185,230.663z"/>
			<path style="opacity:0.5;fill:#FAFAFA;" d="M142.185,230.663c0-1.797,1.457-3.255,3.254-3.255c0.325,0,0.639,0.049,0.935,0.138
				c-0.048-0.326-0.073-0.66-0.073-0.999c0-3.806,3.086-6.892,6.892-6.892c0.434,0,0.858,0.042,1.27,0.119
				c1.059-1.734,2.963-2.895,5.144-2.895c3.3,0,5.977,2.652,6.026,5.94c0.034-0.001,0.067-0.005,0.1-0.005
				c3.066,0,5.552,2.486,5.552,5.552c0,3.066-2.486,5.552-5.552,5.552h-20.388l0.004-0.005
				C143.593,233.863,142.185,232.429,142.185,230.663z"/>
		</g>
		<g>
			<path style="fill:#407BFF;" d="M151.176,128.297c0-2.446,1.983-4.429,4.429-4.429c0.443,0,0.869,0.067,1.272,0.188
				c-0.065-0.444-0.099-0.898-0.099-1.36c0-5.18,4.2-9.38,9.38-9.38c0.59,0,1.167,0.057,1.728,0.162
				c1.442-2.36,4.033-3.94,7.001-3.94c4.491,0,8.134,3.609,8.201,8.084c0.046-0.001,0.09-0.007,0.136-0.007
				c4.173,0,7.556,3.383,7.556,7.556c0,4.173-3.383,7.556-7.556,7.556l-27.749,0l0.006-0.006
				C153.093,132.654,151.176,130.702,151.176,128.297z"/>
			<path style="opacity:0.5;fill:#FAFAFA;" d="M151.176,128.297c0-2.446,1.983-4.429,4.429-4.429c0.443,0,0.869,0.067,1.272,0.188
				c-0.065-0.444-0.099-0.898-0.099-1.36c0-5.18,4.2-9.38,9.38-9.38c0.59,0,1.167,0.057,1.728,0.162
				c1.442-2.36,4.033-3.94,7.001-3.94c4.491,0,8.134,3.609,8.201,8.084c0.046-0.001,0.09-0.007,0.136-0.007
				c4.173,0,7.556,3.383,7.556,7.556c0,4.173-3.383,7.556-7.556,7.556l-27.749,0l0.006-0.006
				C153.093,132.654,151.176,130.702,151.176,128.297z"/>
		</g>
		<g>
			<path style="fill:#407BFF;" d="M116.896,278.501c0-1.797,1.457-3.255,3.254-3.255c0.325,0,0.638,0.049,0.935,0.138
				c-0.048-0.326-0.073-0.66-0.073-0.999c0-3.806,3.086-6.892,6.892-6.892c0.434,0,0.858,0.042,1.27,0.119
				c1.059-1.734,2.963-2.895,5.144-2.895c3.3,0,5.977,2.652,6.026,5.94c0.034-0.001,0.066-0.005,0.1-0.005
				c3.066,0,5.552,2.486,5.552,5.552s-2.486,5.552-5.552,5.552l-20.388,0l0.004-0.005
				C118.304,281.702,116.896,280.268,116.896,278.501z"/>
			<path style="opacity:0.5;fill:#FAFAFA;" d="M116.896,278.501c0-1.797,1.457-3.255,3.254-3.255c0.325,0,0.638,0.049,0.935,0.138
				c-0.048-0.326-0.073-0.66-0.073-0.999c0-3.806,3.086-6.892,6.892-6.892c0.434,0,0.858,0.042,1.27,0.119
				c1.059-1.734,2.963-2.895,5.144-2.895c3.3,0,5.977,2.652,6.026,5.94c0.034-0.001,0.066-0.005,0.1-0.005
				c3.066,0,5.552,2.486,5.552,5.552s-2.486,5.552-5.552,5.552l-20.388,0l0.004-0.005
				C118.304,281.702,116.896,280.268,116.896,278.501z"/>
		</g>
		<g>
			<path style="fill:#407BFF;" d="M108.164,166.705c0-2.867,2.325-5.192,5.192-5.192c0.519,0,1.019,0.079,1.491,0.22
				c-0.076-0.521-0.117-1.052-0.117-1.594c0-6.072,4.923-10.994,10.994-10.994c0.692,0,1.368,0.067,2.025,0.189
				c1.69-2.766,4.727-4.618,8.206-4.618c5.264,0,9.535,4.23,9.613,9.476c0.054-0.001,0.106-0.008,0.16-0.008
				c4.891,0,8.857,3.965,8.857,8.857c0,4.891-3.965,8.857-8.857,8.857l-32.525,0l0.007-0.007
				C110.411,171.811,108.164,169.523,108.164,166.705z"/>
			<path style="opacity:0.5;fill:#FAFAFA;" d="M108.164,166.705c0-2.867,2.325-5.192,5.192-5.192c0.519,0,1.019,0.079,1.491,0.22
				c-0.076-0.521-0.117-1.052-0.117-1.594c0-6.072,4.923-10.994,10.994-10.994c0.692,0,1.368,0.067,2.025,0.189
				c1.69-2.766,4.727-4.618,8.206-4.618c5.264,0,9.535,4.23,9.613,9.476c0.054-0.001,0.106-0.008,0.16-0.008
				c4.891,0,8.857,3.965,8.857,8.857c0,4.891-3.965,8.857-8.857,8.857l-32.525,0l0.007-0.007
				C110.411,171.811,108.164,169.523,108.164,166.705z"/>
		</g>
		<g>
			<g>
				<polygon style="fill:#263238;" points="155.992,202.98 165.72,416.719 125.955,416.719 136.32,202.98 				"/>
				<polygon style="opacity:0.8;fill:#FAFAFA;" points="155.992,202.98 165.72,416.719 125.955,416.719 136.32,202.98 				"/>
				<polygon style="opacity:0.3;fill:#FAFAFA;" points="131.375,416.289 138.496,282.557 140.497,316.365 146.158,223.505 
					153.32,306.514 153.32,248.939 160.301,416.719 				"/>
			</g>
			<g>
				<path style="fill:#263238;" d="M109.575,416.719c-2.854-4.687,1.879-8.515,4.5-5.903c0,0-3.181-5.97,3.94-9.327
					c7.121-3.357,10.813,2.36,10.813,5.04c0,0,1.582-6.43,9.494-5.04c7.912,1.39,7.608,10.27,7.608,10.27s2.656-6.668,11.117-4.196
					c0,0-0.527-7.145,5.802-7.101c6.33,0.044,7.121,4.789,7.121,4.789s2.374-3.083,6.33,0.569c3.956,3.652,1.291,6.714,1.291,6.714
					s5.72-0.701,5.379,4.185H109.575z"/>
				<path style="opacity:0.6;fill:#FAFAFA;" d="M109.575,416.719c-2.854-4.687,1.879-8.515,4.5-5.903c0,0-3.181-5.97,3.94-9.327
					c7.121-3.357,10.813,2.36,10.813,5.04c0,0,1.582-6.43,9.494-5.04c7.912,1.39,7.608,10.27,7.608,10.27s2.656-6.668,11.117-4.196
					c0,0-0.527-7.145,5.802-7.101c6.33,0.044,7.121,4.789,7.121,4.789s2.374-3.083,6.33,0.569c3.956,3.652,1.291,6.714,1.291,6.714
					s5.72-0.701,5.379,4.185H109.575z"/>
				<path style="opacity:0.4;fill:#FAFAFA;" d="M118.608,416.719c0,0-2.176-3.992,2.176-7.12c4.352-3.128,9.099,1.28,9.099,1.28
					s0.791-4.333,5.736-3.381c4.945,0.952,4.914,6.351,4.914,6.351s5.174-2.802,9.525,1.24c0,0,0.593-3.852,4.154-4.85
					c3.56-0.999,6.181,2.423,6.181,2.423s-0.072-4.867,4.983-5.529c5.055-0.662,6.638,4.663,5.847,6.154
					c0,0,3.363,0.229,3.363,3.432H118.608z"/>
			</g>
			<g>
				<path style="fill:#407BFF;" d="M152.71,184.078c0,0,7.714,9.756,7.516,17.075s-2.967,9.57-2.967,9.57l0.396-4.737
					c0,0-1.641,8.764-8.931,14.032l-2.637-4.821c0,0-0.887,5.341,0,8.308c0,0-9.326-5.387-10.154-12.781l-1.025,3.114
					c0,0-4.154-6.948-3.363-13.673s7.13-15.231,7.13-15.231L152.71,184.078z"/>
				<path style="opacity:0.2;fill:#FAFAFA;" d="M152.71,184.078c0,0,7.714,9.756,7.516,17.075s-2.967,9.57-2.967,9.57l0.396-4.737
					c0,0-1.641,8.764-8.931,14.032l-2.637-4.821c0,0-0.887,5.341,0,8.308c0,0-9.326-5.387-10.154-12.781l-1.025,3.114
					c0,0-4.154-6.948-3.363-13.673s7.13-15.231,7.13-15.231L152.71,184.078z"/>
				<path style="opacity:0.2;fill:#FAFAFA;" d="M153.435,188.296c0,0,2.542,5.143,3.183,9.495c0.641,4.352-1.591,7.289-1.591,7.289
					l0.058-5.179c0,0-0.702,5.981-4.682,10.945l-3.692-5.766c0,0-2.769,4.842-2.637,8.007c0,0-4.677-4.088-3.459-10.549
					c0,0-1.816,1.846-1.947,3.297c0,0-6.462-5.538,0-17.538H153.435z"/>
			</g>
			<g>
				<path style="fill:#407BFF;" d="M154.889,186.977h-18.103c-0.713,0-1.291-0.578-1.291-1.291v-4.507h20.685v4.507
					C156.18,186.399,155.602,186.977,154.889,186.977z"/>
				<path style="opacity:0.5;fill:#FAFAFA;" d="M154.889,186.977h-18.103c-0.713,0-1.291-0.578-1.291-1.291v-4.507h20.685v4.507
					C156.18,186.399,155.602,186.977,154.889,186.977z"/>
				<path style="fill:#407BFF;" d="M156.37,181.179h-21.06c0,0-7.39-39.56-4.22-56.01c1.3-6.74,4.39-12.48,7.6-16.9
					c1.66-2.3,3.36-4.24,4.84-5.79c0.493-0.51,0.959-0.974,1.394-1.392c0.513-0.494,1.32-0.492,1.832,0.003
					c0.434,0.42,0.898,0.884,1.385,1.389c1.48,1.55,3.18,3.49,4.84,5.79c3.21,4.42,6.31,10.16,7.61,16.9
					C163.75,141.619,156.37,181.179,156.37,181.179z"/>
				<circle style="opacity:0.6;fill:#FAFAFA;" cx="145.838" cy="134.362" r="10.154"/>
				<circle style="fill:#263238;" cx="145.838" cy="134.362" r="7.412"/>
				<g>
					<path style="fill:#263238;" d="M159.144,163.425c0,0,12.265,3.31,15.034,12.212c1.927,6.194,0.31,13.993-0.852,18.164
						c-0.267,0.959-1.583,1.039-1.978,0.126c-1.874-4.331-6.427-12.174-14.979-12.747c0,0,0-2.575,0.699-8.608
						C157.812,166.148,159.144,163.425,159.144,163.425z"/>
					<path style="fill:#263238;" d="M132.532,163.425c0,0-12.265,3.31-15.034,12.212c-1.927,6.194-0.31,13.993,0.852,18.164
						c0.267,0.959,1.583,1.039,1.978,0.126c1.874-4.331,6.427-12.174,14.979-12.747c0,0,0-2.575-0.699-8.608
						C133.863,166.148,132.532,163.425,132.532,163.425z"/>
				</g>
				<path style="fill:#263238;" d="M145.838,163.425L145.838,163.425c-1.457,0-2.637,1.181-2.637,2.637v26.161
					c0,1.295,1.05,2.345,2.345,2.345h0.585c1.295,0,2.345-1.05,2.345-2.345v-26.161
					C148.475,164.606,147.294,163.425,145.838,163.425z"/>
				<path style="fill:#263238;" d="M152.983,108.269h-14.29c1.66-2.3,3.36-4.24,4.84-5.79c0.493-0.51,0.959-0.974,1.394-1.392
					c0.513-0.494,1.32-0.492,1.832,0.003c0.434,0.42,0.898,0.884,1.385,1.389C149.623,104.029,151.323,105.969,152.983,108.269z"/>
			</g>
		</g>
		<g style="opacity:0.2;">
			<g>
				<rect x="194.487" y="180.179" width="28.282" height="2"/>
			</g>
			<g>
				<rect x="208.496" y="186.156" width="14.274" height="2"/>
			</g>
			<g>
				<rect x="208.496" y="192.132" width="14.274" height="2"/>
			</g>
			<g>
				<rect x="208.496" y="198.109" width="14.274" height="2"/>
			</g>
			<g>
				<rect x="194.487" y="204.086" width="28.282" height="2"/>
			</g>
			<g>
				<rect x="208.496" y="210.062" width="14.274" height="2"/>
			</g>
			<g>
				<rect x="208.496" y="216.039" width="14.274" height="2"/>
			</g>
			<g>
				<rect x="208.496" y="222.016" width="14.274" height="2"/>
			</g>
			<g>
				<rect x="194.487" y="227.992" width="28.282" height="2"/>
			</g>
			<g>
				<rect x="208.496" y="233.969" width="14.274" height="2"/>
			</g>
			<g>
				<rect x="208.496" y="239.945" width="14.274" height="2"/>
			</g>
			<g>
				<rect x="208.496" y="245.923" width="14.274" height="2"/>
			</g>
			<g>
				<rect x="194.487" y="251.9" width="28.282" height="2"/>
			</g>
			<g>
				<rect x="208.496" y="257.876" width="14.274" height="2"/>
			</g>
			<g>
				<rect x="208.496" y="263.853" width="14.274" height="2"/>
			</g>
			<g>
				<rect x="208.496" y="269.829" width="14.274" height="2"/>
			</g>
			<g>
				<rect x="194.487" y="275.806" width="28.282" height="2"/>
			</g>
			<g>
				<rect x="208.496" y="281.783" width="14.274" height="2"/>
			</g>
			<g>
				<rect x="208.496" y="287.76" width="14.274" height="2"/>
			</g>
			<g>
				<rect x="208.496" y="293.737" width="14.274" height="2"/>
			</g>
			<g>
				<rect x="194.487" y="299.713" width="28.282" height="2"/>
			</g>
			<g>
				<rect x="208.496" y="305.69" width="14.274" height="2"/>
			</g>
			<g>
				<rect x="208.496" y="311.666" width="14.274" height="2"/>
			</g>
			<g>
				<rect x="208.496" y="317.644" width="14.274" height="2"/>
			</g>
			<g>
				<rect x="194.487" y="323.62" width="28.282" height="2"/>
			</g>
			<g>
				<rect x="208.496" y="329.597" width="14.274" height="2"/>
			</g>
			<g>
				<rect x="208.496" y="335.573" width="14.274" height="2"/>
			</g>
			<g>
				<rect x="208.496" y="341.55" width="14.274" height="2"/>
			</g>
			<g>
				<rect x="194.487" y="347.527" width="28.282" height="2"/>
			</g>
			<g>
				<rect x="208.496" y="353.503" width="14.274" height="2"/>
			</g>
			<g>
				<rect x="208.496" y="359.481" width="14.274" height="2"/>
			</g>
			<g>
				<rect x="208.496" y="365.457" width="14.274" height="2"/>
			</g>
			<g>
				<rect x="194.487" y="371.434" width="28.282" height="2"/>
			</g>
			<g>
				<rect x="208.496" y="377.41" width="14.274" height="2"/>
			</g>
			<g>
				<rect x="208.496" y="383.387" width="14.274" height="2"/>
			</g>
			<g>
				<rect x="208.496" y="389.363" width="14.274" height="2"/>
			</g>
			<g>
				<rect x="194.487" y="395.341" width="28.282" height="2"/>
			</g>
			<g>
				<rect x="208.496" y="401.318" width="14.274" height="2"/>
			</g>
			<g>
				<rect x="208.496" y="407.294" width="14.274" height="2"/>
			</g>
			<g>
				<rect x="208.496" y="413.271" width="14.274" height="2"/>
			</g>
		</g>
	</g>
</g>
<g id="Character_1">
	<g id="_x3C_Group_x3E__10_">
		<g>
			<path style="fill:#DC897C;" d="M217.71,316.122c1.54,3.102,2.946,6.212,4.248,9.423c0.662,1.599,1.279,3.221,1.878,4.888
				c0.304,0.835,0.59,1.671,0.861,2.573c0.276,0.859,0.551,1.912,0.747,2.852c0.705,3.676,0.998,7.035,1.264,10.499
				c0.256,3.439,0.36,6.868,0.334,10.33l-4.422,0.562c-0.898-3.282-1.744-6.587-2.522-9.868l-1.194-4.889
				c-0.387-1.604-0.817-3.228-1.251-4.666c-0.223-0.707-0.439-1.284-0.761-2.017c-0.297-0.699-0.638-1.445-0.969-2.186l-2.102-4.503
				c-1.435-3.013-2.869-6.083-4.236-9.128L217.71,316.122z"/>
		</g>
		<path style="fill:#407BFF;" d="M225.02,328.112l-4.26,3.02l-6.55,4.63l-2.58-8.75l-1.23-4.18l3.25-12.93
			C220.67,313.572,225.02,328.112,225.02,328.112z"/>
		<path style="opacity:0.2;enable-background:new    ;" d="M220.76,331.132l-6.55,4.63l-2.58-8.75l2.68-7.55
			C214.31,319.462,219.69,324.232,220.76,331.132z"/>
		<path style="fill:#E4897B;" d="M212.869,413.055l-5.719-0.223c0,0-0.207-18.672-1.683-35.989
			c-0.558-6.548-1.3-12.906-2.273-17.986c-0.247-1.268-0.503-2.449-0.774-3.542c-4.275-17.069,16.63-11.685,16.63-11.685
			S224.1,373.987,212.869,413.055z"/>
		<path style="opacity:0.2;enable-background:new    ;" d="M205.467,376.843c-0.558-6.548-1.3-12.906-2.273-17.986
			c2.361-0.949,5.137-1.117,8.223-0.056C211.417,358.801,211.585,371.914,205.467,376.843z"/>
		<path style="fill:#E4897B;" d="M184.913,341.075c-1.42,7.237,4.733,30.234,5.569,69.704h5.691c0,0,5.82-22.227,9.349-44.793
			c0,0,13.627-9.74,12.522-16.468S184.913,341.075,184.913,341.075z"/>
		<path style="fill:#407BFF;" d="M220.18,343.402l-35.44,1.8c0,0-0.51-3.21-0.7-6.78c-0.04-0.8-0.06-1.62-0.06-2.43
			c0-3,0.08-5.9,0.21-8.59c0.04-0.91,0.08-1.8,0.14-2.66c0.03-0.49,0.06-0.97,0.09-1.45c0.02-0.31,0.04-0.61,0.06-0.91
			c0-0.07,0.01-0.14,0.01-0.21c0.16-2.21,0.33-4.19,0.49-5.85c0.36-3.59,0.67-5.76,0.67-5.76s5.19-2.77,16.4-2.68
			c4.33,0.03,7.53,0.56,9.82,1.2c2.76,0.76,4.62,3.35,4.5,6.21c-0.09,2.19,0.02,4.7,0.26,7.33c0.26,2.81,0.67,5.77,1.14,8.64
			C219.28,340.362,220.18,343.402,220.18,343.402z"/>
		<path style="fill:#E4897B;" d="M227.544,356.242c0,0,1.13,4.523,1.113,5.184c-0.017,0.661-3.688,6.364-3.688,6.364l-6.422-4.6
			l2.049-4.215c0,0,0.014-4.242,2.789-5.315C226.161,352.587,227.544,356.242,227.544,356.242z"/>
		<path style="fill:#407BFF;" d="M187.582,308.927c-1.982,3.603,16.145,8.619,16.145,8.619s9.528-3.261,8.662-7.889
			C211.524,305.03,191.514,301.781,187.582,308.927z"/>
		<path style="opacity:0.5;fill:#FFFFFF;" d="M187.582,308.927c-1.982,3.603,16.145,8.619,16.145,8.619s9.528-3.261,8.662-7.889
			C211.524,305.03,191.514,301.781,187.582,308.927z"/>
		<g>
			<path style="fill:#E4897B;" d="M204.268,304.368c-0.208,1.183-0.103,2.536,0.78,3.834c0.132,0.192,0.274,0.383,0.438,0.569
				c0.231,0.261,0.504,0.514,0.81,0.772l0,0c1.164,4.006-2.45,7.214-2.45,7.214c-7.678-2.735-9.827-6.582-9.827-6.582
				s2.251-3.14,0.992-7.655c-0.317-1.153-0.863-2.383-1.723-3.674l8.523,1.548l3.876,0.703
				C205.685,301.098,204.6,302.504,204.268,304.368z"/>
			<path style="opacity:0.2;enable-background:new    ;" d="M204.268,304.368c-0.208,1.183-0.103,2.536,0.78,3.834
				c0.132,0.192,0.274,0.383,0.438,0.569c-4.656-0.001-8.473-3.783-10.475-6.251c-0.317-1.153-0.863-2.383-1.723-3.674l8.523,1.548
				l3.876,0.703C205.685,301.098,204.6,302.504,204.268,304.368z"/>
		</g>
		<g>
			<path style="fill:#263238;" d="M184.143,274.96c1.193-7.004,11.823-9.048,14.644-8.659c2.822,0.39,1.034,1.828,1.034,1.828
				s6.957-0.695,9.363,0.994c2.406,1.689-0.563,2.661-0.563,2.661s3.915,1.529,4.879,4.563c0.964,3.034-3.105,4.436-3.105,4.436
				l-14.44,19.671c0,0-1.916,2.073-4.321,1.489c-3.804-0.924-6.095-5.582-6.095-5.582s-0.625,1.674-1.744,0.895
				c-1.119-0.779-1.995-8.533-1.995-8.533s-0.583,1.363-1.633,0.066c-1.05-1.297-0.853-6.025,0.005-9.116
				C181.03,276.582,184.143,274.96,184.143,274.96z"/>
			<path style="fill:#263238;" d="M205.617,270.872c0,0,11.661,5.48,3.13,16.796C199.109,300.454,205.617,270.872,205.617,270.872z"
				/>
			<path style="fill:#E4897B;" d="M185.589,289.956c2.429,7.306,8.722,14.477,15.178,14.021
				c11.842-0.837,15.717-4.137,14.826-12.855c-0.764-7.858-6.489-19.132-16.411-18.958
				C189.259,272.339,182.22,279.823,185.589,289.956z"/>
			<path style="fill:#263238;" d="M208.008,275.54c0,0-4.332,3.182-10.805,3.458c0,0-4.341,1.884-2.058,6.737
				c2.282,4.853-2.933,9.133-1.443,15.941c0,0-7.26,0.941-12.116-13.573c-3.538-10.576,4.757-17.134,14.411-19.388
				C204.081,266.827,211.237,271.176,208.008,275.54z"/>
			<path style="fill:#263238;" d="M203.13,287.772c0.275,0.936,1.003,1.557,1.617,1.365c0.614-0.192,0.877-1.093,0.601-2.029
				c-0.275-0.936-1.002-1.543-1.617-1.365C203.116,285.921,202.854,286.836,203.13,287.772z"/>
			<path style="fill:#263238;" d="M210.508,285.179c0.263,0.895,0.959,1.489,1.546,1.305c0.587-0.184,0.838-1.045,0.575-1.94
				c-0.263-0.895-0.958-1.476-1.546-1.305C210.494,283.409,210.244,284.285,210.508,285.179z"/>
			<path style="fill:#263238;" d="M204.426,282.269c0.052-0.077,0.082-0.166,0.086-0.258c-0.029-0.241-0.245-0.415-0.487-0.393
				c-1.415,0.105-2.689,0.899-3.408,2.123c-0.111,0.216-0.027,0.481,0.189,0.592l0,0c0.217,0.1,0.474,0.018,0.592-0.189l0,0
				c0.593-0.964,1.62-1.575,2.75-1.635C204.269,282.469,204.369,282.383,204.426,282.269z"/>
			<path style="fill:#263238;" d="M211.804,280.491c0.082-0.043,0.151-0.107,0.199-0.186c0.089-0.226-0.017-0.482-0.24-0.578
				c-1.294-0.583-2.792-0.494-4.008,0.238c-0.201,0.136-0.253,0.41-0.117,0.611v0c0.143,0.191,0.408,0.242,0.611,0.116l0,0
				c0.981-0.564,2.176-0.61,3.197-0.124C211.571,280.592,211.7,280.564,211.804,280.491z"/>
			<path style="fill:#DE5753;" d="M208.903,287.016l1.281,4.069c0.986-0.293,1.927-0.935,2.572-1.757
				C211.288,288.766,209.992,287.988,208.903,287.016z"/>
			
				<path style="fill:none;stroke:#263238;stroke-width:0.7555;stroke-linecap:round;stroke-linejoin:round;stroke-miterlimit:10;" d="
				M211.02,293.91c0,0-2.88,1.546-4.922-1.287"/>
			<path style="fill:#263238;" d="M205.96,273.237c0,0,4.935,1.837,4.037,3.474c-0.898,1.637-5.249,0.242-5.249,0.242
				s0.356,3.272-2.284,2.985s-3.107-1.144-3.107-1.144s-1.631,5.66-4.485,2.208C192.018,277.55,205.96,273.237,205.96,273.237z"/>
			<path style="fill:#E4897B;" d="M194.909,292.391c-0.807-1.573-5.349-4.188-6.977-0.233c-1.628,3.955,3.676,6.185,6.293,5.971
				C196.842,297.915,196.186,294.88,194.909,292.391z"/>
		</g>
		<path style="fill:#263238;" d="M184.736,345.198c-1.294,15.297,1.277,36.734,1.277,36.734h17.456l1.043-7.65l0.945,7.65h14.726
			c0,0,2.993-24.44,0-38.535L184.736,345.198z"/>
		<path style="fill:#263238;" d="M213.764,407.891h-7.221c-0.196,0-0.365,0.221-0.407,0.53l-0.944,6.903
			c-0.098,0.715,0.237,1.394,0.688,1.381c1.883-0.052,4.604-0.231,6.971-0.231c2.768,0,5.158,0.245,8.403,0.245
			c1.962,0,2.507-3.223,1.686-3.515c-3.74-1.329-4.792-1.471-8.023-4.708C214.564,408.144,214.176,407.891,213.764,407.891z"/>
		<path style="fill:#263238;" d="M196.753,407.891h-7.221c-0.195,0-0.365,0.221-0.407,0.53l-0.944,6.903
			c-0.098,0.715,0.237,1.394,0.688,1.381c1.883-0.052,4.604-0.231,6.971-0.231c2.768,0,5.158,0.245,8.403,0.245
			c1.962,0,2.507-3.223,1.686-3.515c-3.74-1.329-4.792-1.471-8.023-4.708C197.554,408.144,197.166,407.891,196.753,407.891z"/>
		<path style="opacity:0.2;enable-background:new    ;" d="M184.04,338.422c-0.04-0.8-0.06-1.62-0.06-2.43c0-3,0.08-5.9,0.21-8.59
			c0.04-0.91,0.08-1.8,0.14-2.66c0.03-0.49,0.06-0.97,0.09-1.45c0.02-0.31,0.04-0.61,0.06-0.91c2.03-0.38,4.28-0.31,6.72,0.36
			C191.2,322.742,192.42,333.202,184.04,338.422z"/>
		<g>
			<path style="fill:#DC897C;" d="M189.414,318.491c-0.771,3.248-1.604,6.532-2.448,9.761l-1.22,4.817
				c-0.186,0.79-0.381,1.587-0.542,2.329c-0.178,0.78-0.283,1.388-0.369,2.124c-0.156,1.493-0.274,3.169-0.353,4.818l-0.255,5.026
				c-0.148,3.369-0.36,6.774-0.626,10.167l-4.449,0.278c-0.675-3.395-1.217-6.783-1.611-10.209
				c-0.388-3.453-0.731-6.806-0.729-10.55c0.017-0.96,0.089-2.046,0.199-2.941c0.097-0.938,0.221-1.812,0.363-2.689
				c0.275-1.75,0.577-3.459,0.927-5.154c0.676-3.399,1.474-6.717,2.405-10.053L189.414,318.491z"/>
		</g>
		<path style="fill:#407BFF;" d="M185.646,310.56c-5.328,2.48-9.416,16.186-9.416,16.186l12,5.678c0,0,2.709-8.835,3.596-11.736
			S185.646,310.56,185.646,310.56z"/>
		<path style="fill:#E4897B;" d="M178.636,356.242c0,0-1.13,4.523-1.113,5.184c0.017,0.661,3.688,6.364,3.688,6.364l6.422-4.6
			l-2.049-4.215c0,0-0.014-4.242-2.789-5.315C180.018,352.587,178.636,356.242,178.636,356.242z"/>
		<g>
			<path style="opacity:0.2;enable-background:new    ;" d="M207.493,317.34c0.084,0.393-0.281,0.804-0.815,0.918
				c-0.534,0.114-1.035-0.112-1.119-0.505c-0.084-0.393,0.281-0.804,0.815-0.918C206.908,316.721,207.409,316.947,207.493,317.34z"
				/>
			<path style="fill:none;stroke:#407BFF;stroke-linecap:round;stroke-linejoin:round;stroke-miterlimit:10;" d="M206.526,317.547
				c0,0,1.024,5.593,2.903,7.845"/>
			<path style="opacity:0.2;enable-background:new    ;" d="M199.241,317.305c-0.084,0.393,0.281,0.804,0.816,0.918
				c0.534,0.114,1.035-0.112,1.119-0.505c0.084-0.393-0.281-0.804-0.815-0.918C199.826,316.686,199.325,316.912,199.241,317.305z"/>
			<path style="fill:none;stroke:#407BFF;stroke-linecap:round;stroke-linejoin:round;stroke-miterlimit:10;" d="M200.225,317.547
				c0,0,0.593,4.703-0.739,7.845"/>
			<path style="opacity:0.5;fill:none;stroke:#FFFFFF;stroke-linecap:round;stroke-linejoin:round;stroke-miterlimit:10;" d="
				M206.526,317.547c0,0,1.024,5.593,2.903,7.845"/>
			<path style="opacity:0.5;fill:none;stroke:#FFFFFF;stroke-linecap:round;stroke-linejoin:round;stroke-miterlimit:10;" d="
				M200.225,317.547c0,0,0.593,4.703-0.739,7.845"/>
		</g>
	</g>
</g>
<g id="Speech_bubble">
	<g>
		<g>
			<path style="fill:#407BFF;" d="M308.362,131.535h-28.728c-4.885,0-8.846,3.96-8.846,8.846v25.002
				c0,4.886,3.961,8.846,8.846,8.846h6.359l3.002,7.894l3.002-7.894h16.366c4.885,0,8.846-3.96,8.846-8.846v-25.002
				C317.208,135.495,313.248,131.535,308.362,131.535z"/>
			<path style="opacity:0.7;fill:#FFFFFF;" d="M308.362,131.535h-28.728c-4.885,0-8.846,3.96-8.846,8.846v25.002
				c0,4.886,3.961,8.846,8.846,8.846h6.359l3.002,7.894l3.002-7.894h16.366c4.885,0,8.846-3.96,8.846-8.846v-25.002
				C317.208,135.495,313.248,131.535,308.362,131.535z"/>
		</g>
		<g>
			<g style="enable-background:new    ;">
				<circle style="fill:#407BFF;" cx="293.998" cy="152.774" r="14.258"/>
			</g>
			<g>
				<path style="fill:#FFFFFF;" d="M292.502,159.143c-0.385,0-0.75-0.169-0.999-0.462l-5.594-6.591
					c-0.468-0.552-0.4-1.378,0.151-1.847c0.551-0.467,1.378-0.401,1.847,0.151l4.595,5.414l7.588-8.94
					c0.469-0.553,1.296-0.619,1.847-0.151c0.552,0.468,0.62,1.295,0.151,1.847l-8.587,10.118
					C293.252,158.974,292.887,159.143,292.502,159.143z"/>
			</g>
		</g>
	</g>
</g>
<g id="Character_2">
	<g>
		<g>
			<path style="fill:#263238;" d="M251.858,217.799c0.318,0.657,0.227,1.359-0.203,1.566c-0.43,0.208-1.035-0.157-1.353-0.814
				c-0.318-0.657-0.226-1.359,0.203-1.566C250.934,216.777,251.54,217.142,251.858,217.799z"/>
			<path style="fill:#DE5753;" d="M252.145,219.129c0,0,0.337,4.514-0.424,7.139c1.687,0.523,3.425-0.928,3.425-0.928
				L252.145,219.129z"/>
			<path style="fill:#263238;" d="M252.501,212.986c0.083-0.063,0.143-0.156,0.163-0.267c0.041-0.233-0.115-0.456-0.348-0.496
				c-2.336-0.411-3.703,1.018-3.762,1.08c-0.162,0.173-0.152,0.444,0.021,0.606c0.173,0.161,0.446,0.149,0.605-0.019l0,0
				c0.045-0.047,1.125-1.151,2.988-0.823C252.29,213.089,252.409,213.056,252.501,212.986z"/>
			<path style="fill:#E4897B;" d="M273.11,205.814c3.405,8.313,5.819,13.006,3.744,19.119c-3.122,9.196-14.874,10.313-20.693,3.185
				c-5.238-6.416-9.925-18.933-3.575-25.963C258.842,195.228,269.706,197.501,273.11,205.814z"/>
			<path style="fill:#263238;" d="M253.922,215.538c0,0,1.607,6.132,3.58,9.657c0,0-1.716,1.001-1.901,1.917
				c-0.185,0.915-0.033,2.033,1.791,2.313c0,0,0.625,3.559,2.072,4.816c1.447,1.257,3.269,0.404,3.269,0.404s0.956,1.16,3.499,0.813
				c2.543-0.348,3.08-2.017,3.08-2.017s2.241,0.055,2.415-2.194c0,0-3.676,1.824-8.068-1.56c-5.365-4.135-8.71-14.412-8.71-14.412
				L253.922,215.538z"/>
			<path style="fill:#E4897B;" d="M274.037,209.202c3.72,7.566,11.612,20.608,19.561,21.495c0,0,3.283,8.048-8.95,17.357
				c-13.451,10.237-11.51-1.785-11.51-1.785c6.007-7.34,1.672-12.642-3.5-16.784L274.037,209.202z"/>
			<path style="fill:#263238;" d="M278.509,219.485c-1.657,3.914-15.707,8.967-19.986-1.216c0,0-8.735-4.321-12.392-10.082
				c-3.657-5.761-1.513-10.65,3.321-12.496c4.261-1.627,5.612,0.357,5.612,0.357s17.934-10.589,19.513-1.225
				C286.836,197.028,280.577,214.601,278.509,219.485z"/>
			<path style="fill:#E4897B;" d="M261.583,215.044c0.91,2.17,0.905,4.634,0.364,6.51c-0.813,2.821-3.257,2.514-4.739,0.291
				c-1.333-2-2.517-5.879-0.88-8.018C257.942,211.719,260.543,212.563,261.583,215.044z"/>
			<path style="fill:#263238;" d="M252.501,212.986c0,0-5.083,0.486-7.345-3.017c-2.262-3.503,1.044-5.17,1.044-5.17l5.44-9.69
				c0,0-0.318-2.111,3.1-4.351c3.418-2.24,7.641,0.214,7.641,0.214s-0.399-1.882,3.949-3.506c4.348-1.623,6.716,3.35,6.716,3.35
				s2.036-1.613,4.897,0.511c2.861,2.124,2.393,5.239,2.393,5.239s3.533,0.345,3.881,4.871c0.348,4.526-2.369,5.624-2.369,5.624
				s1.789,1.646,1.644,4.787c-0.145,3.141-2.611,3.613-2.611,3.613s1.167,5.684-5.777,6.536c-6.944,0.852-9.891-13.915-9.891-13.915
				l-8.865-0.584L252.501,212.986z"/>
		</g>
		<g>
			<path style="fill:#DC897C;" d="M305.895,243.993c-5.899,4.147-11.853,8.054-18.034,11.791c-3.082,1.881-6.214,3.69-9.478,5.455
				c-1.64,0.889-3.3,1.747-5.158,2.587c-0.958,0.426-1.861,0.837-3.278,1.298l-0.529,0.166l-0.795,0.191l-0.4,0.082l-0.201,0.038
				l-0.099,0.012l-0.378,0.043l-1.511,0.17c-3.75,0.352-7.293,0.478-10.882,0.651c-3.579,0.136-7.145,0.24-10.712,0.298
				c-7.134,0.121-14.258,0.105-21.411-0.178l-0.52-7.234c7.002-1.315,14.03-2.411,21.04-3.449l10.499-1.526
				c3.477-0.474,7.001-1.01,10.292-1.542l1.122-0.214l0.28-0.053l0.065-0.013l-0.039-0.002l-0.077,0.003
				c-0.051,0.005-0.102,0.016-0.149,0.032l0.099-0.055c0.259-0.12,0.963-0.472,1.596-0.83c1.318-0.741,2.756-1.618,4.189-2.501
				c2.875-1.795,5.775-3.727,8.686-5.646l17.505-11.654L305.895,243.993z"/>
		</g>
		<g>
			<path style="fill:#E4897B;" d="M224.67,259.143l-6.689-0.005l2.263,10.211c0,0,5.09-0.542,7.316-4.319L224.67,259.143z"/>
			<polygon style="fill:#E4897B;" points="208.658,259.734 212.374,268.251 220.243,269.349 217.98,259.138 			"/>
		</g>
		<path style="fill:#263238;" d="M293.891,228.18c0.197-2.079,0.383-4.443-1.949-4.175c-2.566,0.294-17.762,5.238-21.543,8.311
			c2.318,1.798,1.296,5.638,1.296,5.638L293.891,228.18z"/>
		<g>
			<path style="fill:#407BFF;" d="M305.94,225.188c0,0,12.183,6.451,22.14,67.348c-13.891,4.451-39.344,12.605-46.103,14.771
				c-2.372-6.311-7.949-39.02-24.456-67.05c0,0,7.442-3.969,14.867-6.711c5.809-2.145,14.283-5.047,19.599-6.278
				C298.996,225.645,305.94,225.188,305.94,225.188z"/>
			<path style="opacity:0.6;fill:#FAFAFA;" d="M328.083,292.542l-46.114,14.776c-1.378-3.686-3.843-16.353-8.949-31.828
				c-1.713-5.221-3.738-10.766-6.109-16.405c-2.663-6.286-5.764-12.667-9.388-18.838c0,0,7.435-3.958,14.87-6.704
				c5.806-2.141,14.275-5.044,19.59-6.276c7.017-1.629,13.961-2.078,13.961-2.078s2.297,1.211,5.722,7.592
				c2.109,3.958,4.647,9.858,7.341,18.681C321.974,261.194,325.138,274.466,328.083,292.542z"/>
		</g>
		<path style="fill:#407BFF;" d="M263.912,408.462c0.078-0.016,0.139-0.078,0.152-0.157c0.013-0.079-0.025-0.158-0.094-0.198
			c-0.12-0.069-2.954-1.684-4.304-1.317c-0.276,0.075-0.482,0.226-0.608,0.449c-0.227,0.397-0.134,0.676-0.016,0.84
			c0.337,0.468,1.342,0.611,2.383,0.611C262.394,408.689,263.394,408.565,263.912,408.462z M263.288,408.177
			c-1.508,0.213-3.557,0.201-3.935-0.323c-0.049-0.068-0.099-0.186,0.037-0.425c0.076-0.133,0.199-0.22,0.376-0.269
			c0.111-0.03,0.236-0.044,0.371-0.044C261.086,407.117,262.536,407.791,263.288,408.177z"/>
		<path style="fill:#407BFF;" d="M263.986,408.429c0.056-0.04,0.086-0.106,0.079-0.174c-0.009-0.093-0.227-2.277-1.259-3.124
			c-0.315-0.258-0.671-0.37-1.065-0.33c-0.528,0.054-0.68,0.321-0.715,0.537c-0.148,0.917,1.79,2.671,2.77,3.11
			c0.025,0.011,0.052,0.017,0.079,0.017C263.914,408.465,263.953,408.453,263.986,408.429z M262.562,405.428
			c0.678,0.556,0.966,1.863,1.07,2.501c-0.999-0.6-2.316-1.978-2.227-2.529c0.007-0.045,0.029-0.181,0.375-0.216
			c0.039-0.004,0.078-0.006,0.116-0.006C262.139,405.178,262.358,405.26,262.562,405.428z"/>
		<polygon style="fill:#E4897B;" points="273.685,407.895 266.147,410.885 258.472,393.727 266.009,390.737 		"/>
		<path style="fill:#263238;" d="M264.735,407.334h8.856c0.332,0,0.619,0.23,0.691,0.554l1.602,7.208
			c0.166,0.747-0.401,1.455-1.167,1.442c-3.194-0.054-7.811-0.241-11.826-0.241c-4.695,0-8.75,0.256-14.255,0.256
			c-3.329,0-4.253-3.366-2.86-3.671c6.344-1.388,11.524-1.536,17.006-4.917C263.378,407.599,264.035,407.334,264.735,407.334z"/>
		<path style="fill:#407BFF;" d="M328.083,292.531l-9.148,46.019c-2.59,1.535-6.568,2.527-11.309,3.133
			c-9.283,1.18-21.48,0.898-31.985,0.386c-11.8-0.564-21.448-1.43-22.388-0.846c-2.203,1.378,18.159,57.391,18.159,57.391
			l-12.489,0.272c0,0-27.85-47.774-30.46-63.646c-0.961-5.858-1.786-13.157,9.367-18.755c9.816-4.929,44.578-5.816,44.578-5.816
			l-1.827-8.197L328.083,292.531z"/>
		<path style="opacity:0.2;" d="M307.627,341.683c-9.283,1.18-21.48,0.898-31.985,0.386c0.345-17.292,10.662-32.862,10.662-32.862
			l12.593-1.89L307.627,341.683z"/>
		<polygon style="fill:#E4897B;" points="405.064,393.594 405.561,401.688 386.867,403.646 386.37,395.552 		"/>
		<path style="fill:#407BFF;" d="M405.923,402.02c-0.048-0.064-0.131-0.091-0.208-0.068c-0.077,0.023-0.131,0.091-0.137,0.17
			c-0.01,0.138-0.232,3.393,0.685,4.449c0.188,0.216,0.413,0.336,0.669,0.353c0.456,0.032,0.667-0.173,0.763-0.351
			c0.275-0.507-0.034-1.474-0.486-2.411C406.788,403.288,406.24,402.441,405.923,402.02z M405.937,402.705
			c0.847,1.265,1.728,3.116,1.42,3.684c-0.04,0.074-0.125,0.17-0.399,0.151c-0.152-0.011-0.285-0.083-0.406-0.222
			c-0.075-0.087-0.142-0.194-0.201-0.315C405.94,405.15,405.917,403.55,405.937,402.705z"/>
		<path style="fill:#407BFF;" d="M405.861,401.967c-0.06-0.033-0.133-0.031-0.191,0.004c-0.08,0.049-1.952,1.195-2.266,2.492
			c-0.096,0.396-0.041,0.765,0.166,1.103c0.278,0.452,0.585,0.473,0.794,0.41c0.89-0.265,1.627-2.773,1.596-3.846
			c-0.001-0.028-0.007-0.054-0.019-0.078C405.925,402.017,405.897,401.987,405.861,401.967z M403.777,404.555
			c0.206-0.852,1.257-1.68,1.787-2.051c-0.106,1.16-0.775,2.946-1.309,3.105c-0.043,0.013-0.175,0.052-0.357-0.243
			c-0.021-0.033-0.039-0.067-0.056-0.101C403.736,405.044,403.715,404.811,403.777,404.555z"/>
		<path style="fill:#263238;" d="M404.549,401.769l-3.85-7.975c-0.144-0.298-0.062-0.657,0.199-0.863l5.795-4.577
			c0.6-0.474,1.485-0.271,1.806,0.423c1.34,2.9,3.179,7.139,4.924,10.754c2.041,4.228,4.035,7.768,6.429,12.726
			c1.448,2.998-1.182,5.293-2.062,4.171c-4.008-5.11-6.394-9.709-11.822-13.176C405.378,402.876,404.853,402.399,404.549,401.769z"
			/>
		<path style="fill:#407BFF;" d="M328.204,291.954c0,0,7.667,33.82-9.27,46.595c0,0,3.478,46.09,10.234,50.917
			c8.221,5.874,64.745,4.128,64.745,4.128l0.716,14.68c0,0-59.791,10.612-78.587,5.407c-22.009-6.094-35.461-111.208-35.461-111.208
			L328.204,291.954z"/>
		<path style="opacity:0.2;" d="M308.606,314.099l9.254-1.795c0,0,0.441,7.849,0,11.98l-4.529,3.148l-3.809-1.658
			C309.522,325.774,309.294,317.408,308.606,314.099z"/>
		<g>
			<polygon points="283.536,302.806 284.319,306.618 280.895,307.307 280.101,303.527 			"/>
			<polygon points="299.356,299.465 300.213,303.423 286.032,306.273 285.197,302.452 			"/>
			<polygon points="317.025,295.737 317.86,299.872 302.009,303.057 301.184,299.079 			"/>
			<polygon points="329.472,297.533 319.708,299.496 319.698,299.496 318.842,295.351 328.543,293.304 			"/>
		</g>
		<path style="opacity:0.2;" d="M273.021,275.489c-1.713-5.221-3.738-10.766-6.109-16.405c1.264-2.235,3.216-3.467,6.025-2.684
			C272.937,256.401,277.198,266.102,273.021,275.489z"/>
		<g>
			<path style="fill:#DC897C;" d="M268.735,245.95c0.092,0.966,0.143,1.688,0.198,2.514c0.052,0.801,0.077,1.593,0.105,2.386
				c0.056,1.584,0.048,3.163,0.025,4.742c-0.062,3.157-0.262,6.319-0.634,9.486c-0.374,3.167-0.891,6.344-1.655,9.517
				c-0.744,3.176-1.709,6.351-3.028,9.485c-1.304,3.189-2.988,6.147-4.809,8.842c-1.802,2.727-3.83,5.207-5.909,7.58
				c-2.114,2.349-4.32,4.562-6.634,6.64c-2.337,2.087-4.666,4.011-7.332,5.857l-4.844-5.398c1.707-2.176,3.523-4.515,5.189-6.815
				c1.678-2.319,3.31-4.647,4.796-7.024c3.02-4.709,5.583-9.572,7.065-14.312c1.498-4.886,2.298-10.282,2.701-15.764
				c0.188-2.747,0.306-5.521,0.324-8.303c0.018-1.39-0.004-2.782-0.02-4.167l-0.053-2.066l-0.074-1.932L268.735,245.95z"/>
		</g>
		<g>
			<path style="fill:#407BFF;" d="M272.525,248.092c5.571,10.841-4.07,27.209-4.07,27.209l-17.061-5.23
				c0,0,0.866-15.02,3.352-24.248C257.816,234.422,268.285,239.839,272.525,248.092z"/>
			<path style="opacity:0.6;fill:#FAFAFA;" d="M272.525,248.092c5.571,10.841-4.07,27.209-4.07,27.209l-17.061-5.23
				c0,0,0.866-15.02,3.352-24.248C257.816,234.422,268.285,239.839,272.525,248.092z"/>
		</g>
		<polygon style="fill:#263238;" points="250.871,267.828 271.413,271.943 269.659,276.237 250.228,270.962 		"/>
		<g>
			<path style="fill:#E4897B;" d="M234.732,307.201l-8.055,7.954l7.99,5.841c0,0,6.412-4.769,4.665-11.125L234.732,307.201z"/>
			<polygon style="fill:#E4897B;" points="225.647,319.687 231.269,325.774 234.666,320.996 226.677,315.155 			"/>
		</g>
	</g>
</g>
</svg>
