<?xml version="1.0" encoding="utf-8"?>
<!-- Generator: Adobe Illustrator 27.5.0, SVG Export Plug-In . SVG Version: 6.00 Build 0)  -->
<svg version="1.1" xmlns="http://www.w3.org/2000/svg" xmlns:xlink="http://www.w3.org/1999/xlink" x="0px" y="0px"
	 viewBox="0 0 500 500" style="enable-background:new 0 0 500 500;" xml:space="preserve">
<g id="Background_Complete">
	<g>
		<rect y="382.398" style="fill:#EBEBEB;" width="500" height="0.25"/>
		<rect x="52.459" y="391.922" style="fill:#EBEBEB;" width="33.122" height="0.25"/>
		<rect x="171.14" y="392.047" style="fill:#EBEBEB;" width="53.86" height="0.25"/>
		<rect x="105.774" y="397.083" style="fill:#EBEBEB;" width="19.192" height="0.25"/>
		<rect x="426.766" y="396.958" style="fill:#EBEBEB;" width="19.235" height="0.25"/>
		<rect x="387.57" y="396.958" style="fill:#EBEBEB;" width="30.292" height="0.25"/>
		<rect x="328.333" y="395.306" style="fill:#EBEBEB;" width="42.556" height="0.25"/>
		<path style="fill:#EBEBEB;" d="M237.014,337.8H43.915c-3.147,0-5.708-2.561-5.708-5.708V60.66c0-3.147,2.561-5.708,5.708-5.708
			h193.099c3.146,0,5.707,2.561,5.707,5.708v271.432C242.721,335.239,240.16,337.8,237.014,337.8z M43.915,55.203
			c-3.01,0-5.458,2.448-5.458,5.458v271.432c0,3.01,2.448,5.458,5.458,5.458h193.099c3.009,0,5.457-2.448,5.457-5.458V60.66
			c0-3.009-2.448-5.458-5.457-5.458H43.915z"/>
		<path style="fill:#EBEBEB;" d="M453.31,337.8H260.212c-3.147,0-5.707-2.561-5.707-5.708V60.66c0-3.147,2.561-5.708,5.707-5.708
			H453.31c3.148,0,5.708,2.561,5.708,5.708v271.432C459.019,335.239,456.458,337.8,453.31,337.8z M260.212,55.203
			c-3.009,0-5.457,2.448-5.457,5.458v271.432c0,3.01,2.448,5.458,5.457,5.458H453.31c3.01,0,5.458-2.448,5.458-5.458V60.66
			c0-3.009-2.448-5.458-5.458-5.458H260.212z"/>
	</g>
	<g>
		<g>
			<path style="fill:#EBEBEB;" d="M308.941,247.462H86.736c-6.202,0-10.828-5.075-10.28-11.277L88.567,99.289
				c0.549-6.202,6.073-11.277,12.275-11.277h222.204c6.202,0,10.828,5.075,10.28,11.277l-12.111,136.895
				C320.667,242.387,315.143,247.462,308.941,247.462z"/>
			<path style="fill:#F5F5F5;" d="M292.698,229.642H70.493c-6.202,0-10.828-5.075-10.28-11.277L72.325,81.47
				c0.549-6.202,6.073-11.277,12.275-11.277h222.204c6.202,0,10.828,5.075,10.28,11.277l-12.111,136.895
				C304.424,224.568,298.9,229.642,292.698,229.642z"/>
			<path style="fill:#EBEBEB;" d="M306.804,70.192H84.6c-6.203,0-11.726,5.075-12.275,11.277h244.759
				C317.632,75.267,313.007,70.192,306.804,70.192z"/>
			<path style="fill:#FFFFFF;" d="M124.988,95.693H89.195c-1.708,0-2.969-1.384-2.818-3.092l0,0
				c0.151-1.708,1.658-3.092,3.365-3.092h35.793c1.708,0,2.969,1.384,2.818,3.092l0,0C128.202,94.309,126.695,95.693,124.988,95.693
				z"/>
			<path style="fill:#FFFFFF;" d="M195.679,95.693h-57.848c-1.708,0-2.969-1.384-2.818-3.092l0,0
				c0.151-1.708,1.658-3.092,3.365-3.092h57.848c1.708,0,2.969,1.384,2.818,3.092l0,0C198.894,94.309,197.387,95.693,195.679,95.693
				z"/>
			<path style="fill:#FFFFFF;" d="M142.922,105.985H94.944c-1.708,0-2.969-1.384-2.818-3.092l0,0
				c0.151-1.708,1.658-3.092,3.365-3.092h47.978c1.708,0,2.969,1.384,2.818,3.092l0,0
				C146.136,104.601,144.63,105.985,142.922,105.985z"/>
			<path style="fill:#FFFFFF;" d="M232.202,105.985h-76.436c-1.708,0-2.969-1.384-2.818-3.092l0,0
				c0.151-1.708,1.658-3.092,3.365-3.092h76.436c1.708,0,2.969,1.384,2.818,3.092l0,0
				C235.416,104.601,233.909,105.985,232.202,105.985z"/>
			<path style="fill:#FFFFFF;" d="M193.858,116.277H136.01c-1.708,0-2.969-1.384-2.818-3.092l0,0
				c0.151-1.708,1.658-3.092,3.365-3.092h57.848c1.708,0,2.969,1.384,2.818,3.092l0,0
				C197.073,114.893,195.566,116.277,193.858,116.277z"/>
			<path style="fill:#FFFFFF;" d="M152.651,146.569h-47.978c-1.708,0-2.969-1.384-2.818-3.092l0,0
				c0.151-1.708,1.658-3.092,3.365-3.092h47.978c1.708,0,2.969,1.384,2.818,3.092l0,0
				C155.866,145.185,154.359,146.569,152.651,146.569z"/>
			<path style="fill:#FFFFFF;" d="M241.931,146.569h-76.436c-1.708,0-2.969-1.384-2.818-3.092l0,0
				c0.151-1.708,1.658-3.092,3.365-3.092h76.436c1.708,0,2.969,1.384,2.818,3.092l0,0
				C245.145,145.185,243.639,146.569,241.931,146.569z"/>
			<path style="fill:#FFFFFF;" d="M142.262,201.553h-35.793c-1.708,0-3.214,1.384-3.365,3.092l0,0
				c-0.151,1.708,1.111,3.092,2.818,3.092h35.793c1.708,0,3.214-1.384,3.365-3.092l0,0
				C145.231,202.937,143.969,201.553,142.262,201.553z"/>
			<path style="fill:#FFFFFF;" d="M212.954,201.553h-57.848c-1.708,0-3.214,1.384-3.365,3.092l0,0
				c-0.151,1.708,1.111,3.092,2.818,3.092h57.848c1.708,0,3.214-1.384,3.365-3.092l0,0
				C215.923,202.937,214.661,201.553,212.954,201.553z"/>
			<path style="fill:#FFFFFF;" d="M162.017,191.261h-47.978c-1.708,0-3.214,1.384-3.365,3.092l0,0
				c-0.151,1.708,1.111,3.092,2.818,3.092h47.978c1.708,0,3.214-1.384,3.365-3.092l0,0
				C164.987,192.645,163.725,191.261,162.017,191.261z"/>
			<path style="fill:#FFFFFF;" d="M251.297,191.261h-76.436c-1.708,0-3.214,1.384-3.365,3.092l0,0
				c-0.151,1.708,1.111,3.092,2.818,3.092h76.436c1.708,0,3.214-1.384,3.365-3.092l0,0
				C254.266,192.645,253.004,191.261,251.297,191.261z"/>
			<path style="fill:#FFFFFF;" d="M126.783,150.677H104.31c-1.707,0-3.214,1.384-3.365,3.092l0,0
				c-0.151,1.708,1.111,3.092,2.818,3.092h22.473c1.707,0,3.214-1.384,3.365-3.092l0,0
				C129.752,152.062,128.491,150.677,126.783,150.677z"/>
			<path style="fill:#FFFFFF;" d="M216.063,150.677h-76.436c-1.708,0-3.214,1.384-3.365,3.092l0,0
				c-0.151,1.708,1.111,3.092,2.818,3.092h76.436c1.708,0,3.214-1.384,3.365-3.092l0,0
				C219.032,152.062,217.77,150.677,216.063,150.677z"/>
			<path style="fill:#FFFFFF;" d="M298.056,75.831c-0.168,1.903-1.848,3.446-3.751,3.446c-1.903,0-3.309-1.543-3.141-3.446
				c0.168-1.903,1.848-3.446,3.751-3.446S298.224,73.928,298.056,75.831z"/>
			<path style="fill:#FFFFFF;" d="M284.737,75.831c-0.168,1.903-1.848,3.446-3.751,3.446c-1.903,0-3.309-1.543-3.141-3.446
				c0.168-1.903,1.848-3.446,3.751-3.446C283.499,72.385,284.905,73.928,284.737,75.831z"/>
			<path style="fill:#FFFFFF;" d="M271.417,75.831c-0.168,1.903-1.848,3.446-3.751,3.446s-3.309-1.543-3.141-3.446
				c0.168-1.903,1.848-3.446,3.751-3.446C270.179,72.385,271.585,73.928,271.417,75.831z"/>
		</g>
		<g>
			<path style="fill:#EBEBEB;" d="M338.087,364.325H186.325c-4.236,0-7.396-3.466-7.021-7.702l8.272-93.497
				c0.375-4.236,4.147-7.702,8.384-7.702h151.762c4.236,0,7.396,3.466,7.021,7.702l-8.271,93.497
				C346.096,360.859,342.323,364.325,338.087,364.325z"/>
			<path style="fill:#FAFAFA;" d="M347.721,255.424H195.96c-4.236,0-8.009,3.466-8.384,7.702h167.166
				C355.117,258.889,351.957,255.424,347.721,255.424z"/>
			<path style="fill:#FFFFFF;" d="M217.147,345.141h-24.446c-1.166,0-2.195,0.945-2.299,2.112l0,0
				c-0.103,1.166,0.759,2.112,1.925,2.112h24.446c1.166,0,2.195-0.945,2.298-2.112l0,0
				C219.175,346.086,218.314,345.141,217.147,345.141z"/>
			<path style="fill:#FFFFFF;" d="M265.429,345.141h-39.51c-1.166,0-2.195,0.945-2.298,2.112l0,0
				c-0.103,1.166,0.759,2.112,1.925,2.112h39.51c1.166,0,2.195-0.945,2.298-2.112l0,0
				C267.457,346.086,266.595,345.141,265.429,345.141z"/>
			<path style="fill:#FFFFFF;" d="M230.64,338.112h-32.768c-1.166,0-2.195,0.945-2.298,2.112l0,0
				c-0.103,1.166,0.759,2.112,1.925,2.112h32.768c1.166,0,2.195-0.945,2.299-2.112l0,0
				C232.668,339.057,231.806,338.112,230.64,338.112z"/>
			<path style="fill:#FFFFFF;" d="M291.617,338.112h-52.205c-1.166,0-2.195,0.945-2.299,2.112l0,0
				c-0.103,1.166,0.759,2.112,1.925,2.112h52.205c1.166,0,2.195-0.945,2.298-2.112l0,0
				C293.645,339.057,292.783,338.112,291.617,338.112z"/>
			<path style="fill:#FFFFFF;" d="M266.672,331.082h-39.509c-1.166,0-2.195,0.945-2.298,2.112l0,0
				c-0.103,1.166,0.759,2.112,1.925,2.112h39.51c1.166,0,2.195-0.945,2.298-2.112l0,0
				C268.701,332.028,267.839,331.082,266.672,331.082z"/>
			<path style="fill:#FFFFFF;" d="M242.189,310.393h-32.768c-1.166,0-2.195,0.945-2.298,2.112l0,0
				c-0.103,1.166,0.759,2.112,1.925,2.112h32.768c1.166,0,2.195-0.945,2.298-2.112l0,0
				C244.217,311.339,243.356,310.393,242.189,310.393z"/>
			<path style="fill:#FFFFFF;" d="M303.166,310.393h-52.205c-1.166,0-2.195,0.945-2.298,2.112l0,0
				c-0.103,1.166,0.759,2.112,1.925,2.112h52.205c1.166,0,2.195-0.945,2.298-2.112l0,0
				C305.194,311.339,304.332,310.393,303.166,310.393z"/>
			<path style="fill:#FFFFFF;" d="M241.738,272.841h-24.446c-1.166,0-2.028-0.946-1.925-2.112l0,0
				c0.103-1.166,1.132-2.112,2.298-2.112h24.446c1.166,0,2.028,0.945,1.925,2.112l0,0
				C243.933,271.895,242.904,272.841,241.738,272.841z"/>
			<path style="fill:#FFFFFF;" d="M290.019,272.841H250.51c-1.166,0-2.028-0.946-1.925-2.112l0,0
				c0.103-1.166,1.132-2.112,2.299-2.112h39.509c1.166,0,2.028,0.945,1.925,2.112l0,0
				C292.215,271.895,291.185,272.841,290.019,272.841z"/>
			<path style="fill:#FFFFFF;" d="M253.987,279.87h-32.768c-1.166,0-2.028-0.945-1.925-2.112l0,0
				c0.103-1.166,1.132-2.112,2.298-2.112h32.768c1.166,0,2.028,0.945,1.925,2.112l0,0
				C256.182,278.924,255.153,279.87,253.987,279.87z"/>
			<path style="fill:#FFFFFF;" d="M314.963,279.87h-52.205c-1.166,0-2.028-0.945-1.925-2.112l0,0
				c0.103-1.166,1.132-2.112,2.298-2.112h52.205c1.166,0,2.028,0.945,1.925,2.112l0,0C317.159,278.924,316.13,279.87,314.963,279.87
				z"/>
			<path style="fill:#FFFFFF;" d="M225.018,307.588h-15.349c-1.166,0-2.028-0.945-1.925-2.112l0,0
				c0.103-1.166,1.132-2.112,2.298-2.112h15.349c1.166,0,2.028,0.945,1.925,2.112l0,0
				C227.214,306.642,226.184,307.588,225.018,307.588z"/>
			<path style="fill:#FFFFFF;" d="M285.995,307.588H233.79c-1.166,0-2.028-0.945-1.925-2.112l0,0
				c0.103-1.166,1.132-2.112,2.298-2.112h52.205c1.166,0,2.028,0.945,1.925,2.112l0,0
				C288.19,306.642,287.161,307.588,285.995,307.588z"/>
			<path style="fill:#EBEBEB;" d="M341.747,259.275c-0.115,1.3-1.262,2.353-2.562,2.353c-1.3,0-2.26-1.054-2.145-2.353
				c0.115-1.3,1.262-2.353,2.562-2.353C340.901,256.921,341.862,257.975,341.747,259.275z"/>
			<path style="fill:#EBEBEB;" d="M332.65,259.275c-0.115,1.3-1.262,2.353-2.562,2.353c-1.3,0-2.26-1.054-2.145-2.353
				c0.115-1.3,1.262-2.353,2.562-2.353S332.764,257.975,332.65,259.275z"/>
			<path style="fill:#EBEBEB;" d="M323.552,259.275c-0.115,1.3-1.262,2.353-2.562,2.353c-1.3,0-2.26-1.054-2.145-2.353
				c0.115-1.3,1.262-2.353,2.562-2.353S323.667,257.975,323.552,259.275z"/>
		</g>
	</g>
</g>
<g id="Background_Simple" style="display:none;">
	<g style="display:inline;">
		<path style="fill:#407BFF;" d="M80.105,220.88c11.453,75.467,66.216,64.701,126.695,95.212
			c48.214,24.323,65.975,64.972,125.138,72.012c51.55,6.134,98.302-22.259,106.974-58.633
			c10.563-44.312-5.643-88.652-60.723-106.662c-41.971-13.724-107.207-1.772-136.85-31.673
			c-34.109-34.405-8.469-76.629-56.7-100.613C95.766,46.328,78.041,207.278,80.105,220.88z"/>
		<path style="opacity:0.9;fill:#FFFFFF;" d="M80.105,220.88c11.453,75.467,66.216,64.701,126.695,95.212
			c48.214,24.323,65.975,64.972,125.138,72.012c51.55,6.134,98.302-22.259,106.974-58.633
			c10.563-44.312-5.643-88.652-60.723-106.662c-41.971-13.724-107.207-1.772-136.85-31.673
			c-34.109-34.405-8.469-76.629-56.7-100.613C95.766,46.328,78.041,207.278,80.105,220.88z"/>
	</g>
</g>
<g id="Shadow_1_">
	<ellipse id="_x3C_Path_x3E__351_" style="fill:#F5F5F5;" cx="250" cy="416.238" rx="193.889" ry="11.323"/>
</g>
<g id="Code">
	<g>
		<g>
			<path style="fill:#407BFF;" d="M420.255,188.935c-0.011,0-0.022-0.001-0.032-0.001c-0.275-0.018-0.484-0.255-0.467-0.531
				l0.435-6.771c0.018-0.276,0.268-0.481,0.531-0.467c0.275,0.018,0.484,0.255,0.467,0.531l-0.435,6.771
				C420.737,188.731,420.517,188.935,420.255,188.935z"/>
			<path style="fill:#407BFF;" d="M421.162,174.839c-0.012,0-0.023-0.001-0.033-0.001c-0.275-0.018-0.484-0.255-0.467-0.531
				l1.479-23.022c0.018-0.275,0.248-0.477,0.531-0.467c0.275,0.018,0.484,0.255,0.467,0.531l-1.479,23.022
				C421.644,174.636,421.423,174.839,421.162,174.839z"/>
			<g>
				<path style="fill:#FFFFFF;" d="M393.132,326.723H217.693c-7.967,0-14.067-6.519-13.555-14.486l13.23-205.816
					c0.512-7.967,7.45-14.486,15.417-14.486h175.439c7.967,0,14.067,6.519,13.555,14.486l-13.23,205.816
					C408.037,320.204,401.1,326.723,393.132,326.723z"/>
				<path style="fill:#407BFF;" d="M393.133,327.723H217.693c-4.127,0-7.918-1.619-10.676-4.561
					c-2.766-2.948-4.143-6.852-3.877-10.989l13.23-205.817c0.547-8.504,7.911-15.422,16.415-15.422h175.439
					c4.127,0,7.918,1.62,10.676,4.56c2.766,2.949,4.143,6.852,3.877,10.99l-13.23,205.817
					C409.001,320.805,401.637,327.723,393.133,327.723z M232.786,92.935c-7.47,0-13.938,6.079-14.419,13.55l-13.23,205.817
					c-0.23,3.58,0.956,6.951,3.34,9.492c2.375,2.533,5.648,3.929,9.217,3.929h175.439c7.47,0,13.938-6.078,14.419-13.55
					l13.23-205.817c0.23-3.58-0.956-6.952-3.34-9.494c-2.375-2.533-5.648-3.928-9.217-3.928H232.786z"/>
			</g>
			<path style="fill:#407BFF;" d="M408.225,91.935H232.786c-7.967,0-14.905,6.519-15.417,14.486h204.41
				C422.292,98.453,416.192,91.935,408.225,91.935z"/>
		</g>
		<g>
			<path style="fill:#263238;" d="M268.084,130.773h-26.906c-1.22,0-2.153-0.998-2.075-2.217l0,0c0.078-1.22,1.14-2.218,2.36-2.218
				h26.906c1.22,0,2.153,0.998,2.075,2.218l0,0C270.366,129.775,269.304,130.773,268.084,130.773z"/>
			<path style="fill:#407BFF;" d="M338.265,144.078h-84.637c-1.22,0-2.153-0.998-2.075-2.217l0,0c0.078-1.22,1.14-2.218,2.36-2.218
				h84.637c1.22,0,2.153,0.998,2.075,2.218l0,0C340.547,143.08,339.484,144.078,338.265,144.078z"/>
			<path style="fill:#407BFF;" d="M297.05,157.384h-44.277c-1.22,0-2.153-0.998-2.075-2.218l0,0c0.078-1.22,1.14-2.217,2.36-2.217
				h44.277c1.22,0,2.153,0.998,2.075,2.217l0,0C299.332,156.386,298.27,157.384,297.05,157.384z"/>
			<path style="fill:#407BFF;" d="M376.618,170.689H251.917c-1.22,0-2.153-0.998-2.075-2.217l0,0c0.078-1.22,1.14-2.218,2.36-2.218
				h124.701c1.22,0,2.153,0.998,2.075,2.218l0,0C378.9,169.691,377.838,170.689,376.618,170.689z"/>
			<path style="fill:#407BFF;" d="M358.476,157.384h-44.277c-1.22,0-2.153-0.998-2.075-2.218l0,0c0.078-1.22,1.14-2.217,2.36-2.217
				h44.277c1.22,0,2.153,0.998,2.075,2.217l0,0C360.758,156.386,359.696,157.384,358.476,157.384z"/>
		</g>
		<g>
			<path style="fill:#263238;" d="M259.531,263.826h-26.906c-1.22,0-2.153-0.998-2.075-2.217l0,0c0.078-1.22,1.141-2.218,2.36-2.218
				h26.906c1.22,0,2.154,0.998,2.075,2.218l0,0C261.813,262.828,260.751,263.826,259.531,263.826z"/>
			<path style="fill:#407BFF;" d="M328.856,290.437H244.22c-1.22,0-2.153-0.998-2.075-2.218l0,0c0.078-1.22,1.141-2.217,2.36-2.217
				h84.637c1.22,0,2.153,0.998,2.075,2.217l0,0C331.138,289.439,330.076,290.437,328.856,290.437z"/>
			<path style="fill:#407BFF;" d="M287.642,303.742h-44.277c-1.22,0-2.153-0.998-2.075-2.217l0,0c0.078-1.22,1.141-2.218,2.36-2.218
				h44.277c1.22,0,2.153,0.998,2.075,2.218l0,0C289.923,302.744,288.861,303.742,287.642,303.742z"/>
			<path style="fill:#407BFF;" d="M370.061,272.697H245.36c-1.22,0-2.282,0.998-2.36,2.217l0,0c-0.078,1.22,0.855,2.218,2.075,2.218
				h124.701c1.22,0,2.282-0.998,2.36-2.218l0,0C372.214,273.694,371.28,272.697,370.061,272.697z"/>
			<path style="fill:#407BFF;" d="M349.068,303.742h-44.277c-1.22,0-2.153-0.998-2.075-2.217l0,0c0.078-1.22,1.14-2.218,2.36-2.218
				h44.277c1.22,0,2.153,0.998,2.075,2.218l0,0C351.35,302.744,350.288,303.742,349.068,303.742z"/>
		</g>
		<g>
			<path style="fill:#263238;" d="M277.113,197.3h-40.212c-1.22,0-2.153-0.998-2.075-2.218l0,0c0.078-1.22,1.14-2.217,2.36-2.217
				h40.212c1.22,0,2.153,0.998,2.075,2.217l0,0C279.395,196.302,278.333,197.3,277.113,197.3z"/>
			<path style="fill:#407BFF;" d="M332.563,232.781h-84.637c-1.22,0-2.282,0.998-2.36,2.217l0,0
				c-0.078,1.22,0.855,2.218,2.075,2.218h84.637c1.22,0,2.282-0.998,2.36-2.218l0,0
				C334.716,233.778,333.782,232.781,332.563,232.781z"/>
			<path style="fill:#407BFF;" d="M279.753,219.475h-30.972c-1.22,0-2.282,0.998-2.36,2.218l0,0
				c-0.078,1.22,0.855,2.217,2.075,2.217h30.972c1.22,0,2.282-0.998,2.36-2.217l0,0
				C281.907,220.473,280.973,219.475,279.753,219.475z"/>
			<path style="fill:#407BFF;" d="M307.81,206.17h-58.174c-1.22,0-2.282,0.998-2.36,2.217v0c-0.078,1.22,0.855,2.217,2.075,2.217
				h58.174c1.22,0,2.282-0.998,2.36-2.217v0C309.964,207.168,309.03,206.17,307.81,206.17z"/>
			<path style="fill:#407BFF;" d="M382.32,206.17h-58.174c-1.22,0-2.282,0.998-2.36,2.217v0c-0.078,1.22,0.855,2.217,2.075,2.217
				h58.174c1.22,0,2.282-0.998,2.36-2.217v0C384.474,207.168,383.54,206.17,382.32,206.17z"/>
			<path style="fill:#407BFF;" d="M354.485,219.475h-57.582c-1.22,0-2.282,0.998-2.36,2.218l0,0
				c-0.078,1.22,0.855,2.217,2.075,2.217H354.2c1.22,0,2.282-0.998,2.36-2.217l0,0C356.638,220.473,355.704,219.475,354.485,219.475
				z"/>
		</g>
		<path style="fill:#FFFFFF;" d="M236.593,98.437c-0.143,2.224-2.062,4.026-4.285,4.026c-2.224,0-3.911-1.803-3.768-4.026
			c0.143-2.224,2.062-4.026,4.285-4.026S236.736,96.214,236.593,98.437z"/>
		<path style="fill:#FFFFFF;" d="M244.897,95.161c0.865,0,1.653,0.334,2.221,0.939c0.57,0.608,0.854,1.421,0.798,2.289
			c-0.118,1.833-1.704,3.325-3.537,3.325c-0.864,0-1.653-0.334-2.221-0.939c-0.57-0.608-0.854-1.421-0.798-2.289
			C241.478,96.652,243.065,95.161,244.897,95.161 M244.897,94.411c-2.224,0-4.142,1.803-4.285,4.026
			c-0.143,2.224,1.544,4.026,3.768,4.026c2.224,0,4.142-1.803,4.285-4.026S247.121,94.411,244.897,94.411L244.897,94.411z"/>
		<path style="opacity:0.5;fill:#FFFFFF;" d="M260.736,98.437c-0.143,2.224-2.061,4.026-4.285,4.026
			c-2.224,0-3.91-1.803-3.767-4.026c0.143-2.224,2.061-4.026,4.285-4.026C259.192,94.411,260.879,96.214,260.736,98.437z"/>
	</g>
</g>
<g id="Character_1_">
	<g>
		<path style="fill:#407BFF;" d="M159.452,216.223c0,0-17.151,59.587-24.109,88.847c-7.307,30.729-29.043,77.182-30.85,97.551
			c-1.879,0.748-7.968-0.093-11.217-1.664c0,0,2.979-64.945,20.64-94.528c-3.988-72.793,15.769-90.206,15.769-90.206H159.452z"/>
		<path style="opacity:0.1;" d="M137.235,246.154l9.645,14.814c-3.057,11.173-6.184,22.819-8.741,32.839
			C135.457,276.463,137.235,246.154,137.235,246.154z"/>
		<path style="fill:#FF8B7B;" d="M160.014,201.686l-2.644-1.432c-0.994-0.538-2.188-0.563-3.203-0.066l-4.746,2.323
			c-1.898,0.929-3.228,2.719-3.57,4.803l-0.212,1.291c4.223,2.674,10.757,2.453,10.757,2.453l1.87,0.143
			c1.665,0.127,3.06-1.014,3.204-2.621l0.332-3.701C161.917,203.602,161.205,202.331,160.014,201.686z"/>
		<path style="fill:#FF8B7B;" d="M149.352,203.279l-0.167-0.053c-1.613-0.507-3.376-1.043-4.996-1.671
			c-1.64-0.609-3.237-1.262-4.701-2.006c-1.473-0.716-2.803-1.565-3.824-2.412c-0.682-0.575-1.126-1.154-1.378-1.621
			c-0.187-2.094-0.324-4.197-0.304-6.335c0.014-2.271,0.108-4.556,0.318-6.847c0.212-2.288,0.479-4.581,0.841-6.861
			c0.178-1.14,0.369-2.277,0.591-3.401l0.345-1.672l0.338-1.554l0.061-0.28c0.601-2.786-1.071-5.59-3.853-6.36
			c-2.884-0.798-5.87,0.893-6.668,3.777c-0.214,0.775-0.365,1.369-0.524,2.033c-0.156,0.648-0.282,1.294-0.414,1.938
			c-0.257,1.288-0.477,2.576-0.682,3.867c-0.382,2.583-0.639,5.186-0.754,7.806c-0.141,2.617-0.112,5.257,0.058,7.902
			c0.125,2.644,0.535,5.302,1.013,7.942l0.049,0.273c0.046,0.245,0.12,0.49,0.223,0.729c0.642,1.49,1.546,2.748,2.526,3.732
			c0.981,0.992,2.016,1.758,3.043,2.399c2.059,1.254,4.123,2.003,6.136,2.587c2.024,0.562,4.02,0.922,6.009,1.146
			c0.994,0.113,1.989,0.169,2.979,0.216c1.004,0.05,1.951,0.059,3.028,0.016c1.109-0.046,2.126-0.775,2.478-1.895
			C151.573,205.248,150.779,203.727,149.352,203.279z"/>
		<path style="fill:#263238;" d="M133.073,152.962c4.867,4.514,7.728,11.547,4.785,25.472c-4.77,2.711-16.841,0.228-16.841,0.228
			S119.681,158.065,133.073,152.962z"/>
		<path style="fill:#FF8B7B;" d="M145.309,132.261c0.862,6.038,1.485,16.984-2.793,20.416c0,0,5.637-0.15,16.495,8.564
			c4.003-4.462,1.667-6.328,1.667-6.328c-6.441-2.372-6.038-7.231-4.682-11.673L145.309,132.261z"/>
		<path style="fill:#263238;" d="M169.563,128.863c-0.137,0.801,0.16,1.549,0.662,1.671c0.502,0.122,1.02-0.429,1.156-1.23
			c0.136-0.801-0.16-1.549-0.662-1.671C170.217,127.511,169.699,128.062,169.563,128.863z"/>
		<path style="fill:#263238;" d="M170.489,127.624l1.939-0.108C172.428,127.516,171.226,128.789,170.489,127.624z"/>
		<path style="fill:#FF5652;" d="M169.267,130.363c0,0,0.715,3.765,1.866,5.776c-1.182,0.741-2.829-0.128-2.829-0.128
			L169.267,130.363z"/>
		<path style="fill:#407BFF;" d="M169.445,135.005c-0.184,0-0.363-0.023-0.54-0.069c-0.584-0.153-1.069-0.561-1.403-1.181
			c-0.691-1.281-0.688-3.361,0.01-5.429c1.078-3.2,3.368-5.327,5.218-4.841c0.584,0.153,1.069,0.561,1.403,1.181
			c0.691,1.281,0.688,3.361-0.01,5.429C173.148,132.989,171.18,135.005,169.445,135.005z M172.202,123.919
			c-1.488,0-3.336,1.955-4.216,4.568l0,0c-0.655,1.94-0.672,3.868-0.044,5.031c0.271,0.501,0.637,0.816,1.09,0.934
			c1.548,0.401,3.655-1.663,4.616-4.518c0.655-1.94,0.672-3.868,0.044-5.031c-0.27-0.501-0.637-0.816-1.09-0.935
			C172.473,123.936,172.339,123.919,172.202,123.919z M167.749,128.407h0.006H167.749z"/>
		<path style="fill:#263238;" d="M172.803,123.176c0.089-0.077,0.147-0.184,0.154-0.305c0.015-0.25-0.191-0.464-0.459-0.479
			c-2.694-0.146-4.05,1.521-4.106,1.593c-0.16,0.201-0.113,0.485,0.104,0.633c0.216,0.148,0.521,0.106,0.682-0.094
			c0.052-0.066,1.124-1.344,3.266-1.227C172.581,123.304,172.709,123.257,172.803,123.176z"/>
		<path style="fill:#FF8B7B;" d="M144.717,119.805c-1.212,9.597-0.634,15.112,1.842,19.626c5.127,9.346,17.45,9.009,21.44,0.111
			c3.591-8.009,4.969-22.358-3.395-28.347C156.364,105.294,145.929,110.208,144.717,119.805z"/>
		<path style="fill:#263238;" d="M141.111,119.889c-2.555,5.735,2.563,16.094,6.945,20.889c2.725,2.982,11.299-1.558,16.528-10.492
			c2.25-6.453-0.585-11.286-0.585-11.286L141.111,119.889z"/>
		<path style="fill:#407BFF;" d="M174.235,128.947c-0.03,0-0.06-0.005-0.09-0.017c-0.096-0.037-9.643-3.658-13.387-3.224
			c-0.135,0.02-0.262-0.081-0.277-0.219c-0.017-0.137,0.081-0.261,0.219-0.277c3.86-0.473,13.228,3.101,13.625,3.253
			c0.129,0.049,0.193,0.194,0.144,0.323C174.431,128.886,174.336,128.947,174.235,128.947z"/>
		<path style="fill:#263238;" d="M162.5,123.545c-8.773,5.037-18.886,1.59-21.216-2.154c-2.33-3.744-0.909-5.943-0.094-6.851
			c-2.513-0.673-4.102-4.097,3.292-7.5c7.395-3.403,28.477-3.152,21.654-7.046c6.534,1.116,4.799,4.473,2.349,4.911
			C181.5,107.75,172.958,121.167,162.5,123.545z"/>
		<path style="fill:#263238;" d="M141.639,113.417c-2.333,2.25-5.528,0.778-6.028-0.972
			C135.222,118.806,144.444,116.694,141.639,113.417z"/>
		<path style="fill:#FF8B7B;" d="M160.776,129.554c0.298,2.159,1.428,3.809,2.696,4.649c1.908,1.264,3.63-0.831,3.743-3.467
			c0.102-2.372-0.768-5.889-2.992-6.059C162.031,124.509,160.435,127.086,160.776,129.554z"/>
		<path style="fill:#263238;" d="M110.164,416.198c-7.385-1.095-7.526-2.322-11.487-3.71c-3.389-1.196-4.344-1.024-7.079-1.948
			c-2.286-0.77-1.51-2.946-0.007-5.258c0.754-1.161,0.862-2.267,1.685-4.323l11.217,1.664c1.092,3.132,1.477,7.139,7.88,9.431
			C116.188,413.417,113.108,416.634,110.164,416.198z"/>
		<path style="fill:#263238;" d="M178.562,416.226c-7.337-0.013-8.749-0.482-12.872-0.623c-3.535-0.128-4.116,0.623-7.699,0.623
			c-2.374,0-2.701-2.673-1.832-4.678c0.677-1.561,0.78-3.429,1.272-5.456h10.118c1.825,3.207,6.801,5.58,12.363,5.978
			C183.887,412.364,181.499,416.226,178.562,416.226z"/>
		<path style="fill:#407BFF;" d="M169.984,216.223c0,0,1.463,52.793-1.663,86.318c0.196,31.473-0.773,103.55-0.773,103.55
			c-0.244,1.608-8.686,0.966-10.118,0c0,0-15.808-52.499-8.79-103.55c-17.569-53.244-13.779-86.318-13.779-86.318H169.984z"/>
		<g>
			<path style="fill:#407BFF;" d="M105.965,398.542c-0.119,1.023-0.289,2.811-0.226,4.205c0.023,0.503-0.374,0.907-0.877,0.912
				c-4.203,0.048-10.004-1.785-11.839-2.404c-0.352-0.119-0.583-0.446-0.587-0.817l-0.036-3.971
				c-0.005-0.543,0.482-0.958,1.017-0.868l11.824,1.987C105.701,397.664,106.019,398.08,105.965,398.542z"/>
			<path style="opacity:0.5;fill:#FFFFFF;" d="M105.965,398.542c-0.119,1.023-0.289,2.811-0.226,4.205
				c0.023,0.503-0.374,0.907-0.877,0.912c-4.203,0.048-10.004-1.785-11.839-2.404c-0.352-0.119-0.583-0.446-0.587-0.817
				l-0.036-3.971c-0.005-0.543,0.482-0.958,1.017-0.868l11.824,1.987C105.701,397.664,106.019,398.08,105.965,398.542z"/>
		</g>
		<g>
			<path style="fill:#407BFF;" d="M168.707,401.656c0.03,1.093,0.094,3.041,0.195,4.481c0.033,0.476-0.321,0.896-0.799,0.962
				c-3.58,0.493-9.29,0.046-11.163-0.124c-0.371-0.034-0.665-0.302-0.734-0.666l-0.753-3.92c-0.103-0.535,0.314-1.053,0.864-1.075
				l11.524-0.459C168.31,400.837,168.694,401.187,168.707,401.656z"/>
			<path style="opacity:0.5;fill:#FFFFFF;" d="M168.707,401.656c0.03,1.093,0.094,3.041,0.195,4.481
				c0.033,0.476-0.321,0.896-0.799,0.962c-3.58,0.493-9.29,0.046-11.163-0.124c-0.371-0.034-0.665-0.302-0.734-0.666l-0.753-3.92
				c-0.103-0.535,0.314-1.053,0.864-1.075l11.524-0.459C168.31,400.837,168.694,401.187,168.707,401.656z"/>
		</g>
		<path style="fill:#263238;" d="M176.671,171.981c-0.363,3.948-0.814,8.945-2.515,18.264c-1.288,7.907-3.016,12.853-4.172,25.978
			c-4.533,3.252-35.468,1.752-40.299,0c0.81-11.352,1.386-26.527-2.675-52.762c-0.942-6.083,3.467-11.271,9.47-11.142
			c1.604,0.034,3.302,0.107,5.037,0.236c6.746,0.501,12.271,0.963,18.162,2.236c1.952,0.422,3.967,0.922,5.89,1.434
			C172.507,158.074,177.322,164.907,176.671,171.981z"/>
		<path style="fill:#FF8B7B;" d="M203.903,179.618c-1.076-1.038-2.789-1.007-3.827,0.069l-0.067,0.07
			c-1.473,1.527-3.003,3.143-4.561,4.621c-1.547,1.501-3.111,2.956-4.704,4.259c-1.563,1.307-3.23,2.479-4.661,3.173
			c-0.266,0.131-0.519,0.227-0.75,0.303c-0.998-1.534-1.968-3.09-2.837-4.736c-1.067-2.004-2.07-4.06-2.974-6.175
			c-0.901-2.114-1.756-4.258-2.52-6.436c-0.385-1.087-0.758-2.179-1.097-3.273l-0.491-1.635l-0.441-1.528l-0.08-0.275
			c-0.795-2.737-3.599-4.409-6.413-3.765c-2.917,0.668-4.74,3.575-4.072,6.492c0.18,0.784,0.329,1.378,0.505,2.038
			c0.17,0.645,0.367,1.273,0.557,1.902c0.386,1.256,0.805,2.494,1.238,3.726c0.892,2.455,1.902,4.867,3.047,7.226
			c1.12,2.369,2.4,4.679,3.807,6.925c1.366,2.267,2.99,4.411,4.666,6.507l0.125,0.157c0.173,0.214,0.37,0.413,0.59,0.595
			c0.954,0.788,2.22,1.431,3.499,1.711c1.287,0.297,2.502,0.242,3.519,0.053c2.045-0.399,3.452-1.189,4.69-1.962
			c2.428-1.586,4.156-3.383,5.798-5.187c1.605-1.828,3.03-3.708,4.348-5.643c1.299-1.964,2.515-3.885,3.626-6.01
			C204.964,181.783,204.788,180.471,203.903,179.618z"/>
		<g>
			<g>
				<path style="fill:#FFFFFF;" d="M349.303,185.165l35.016,4.479c7.389,0.945,12.269,7.814,10.845,15.264l-9.964,52.123
					c-1.424,7.45-8.635,12.772-16.024,11.826L206.47,248.044c-7.389-0.945-12.269-7.814-10.845-15.264l9.964-52.123
					c1.424-7.45,8.635-12.771,16.024-11.826l106.273,13.595"/>
				<path style="fill:#263238;" d="M370.455,269.459c-0.005,0-0.011,0-0.016,0c-0.442-0.015-0.884-0.049-1.326-0.106l-3.687-0.472
					c-0.273-0.035-0.468-0.285-0.433-0.56c0.035-0.274,0.294-0.47,0.56-0.433l3.686,0.472c0.411,0.053,0.822,0.085,1.23,0.098
					c0.276,0.009,0.493,0.24,0.484,0.516C370.946,269.245,370.724,269.459,370.455,269.459z M375.372,268.716
					c-0.208,0-0.403-0.131-0.474-0.34c-0.089-0.261,0.052-0.545,0.314-0.634c1.519-0.516,2.941-1.285,4.228-2.29
					c0.218-0.17,0.531-0.131,0.702,0.087c0.17,0.218,0.131,0.532-0.087,0.702c-1.375,1.073-2.897,1.896-4.523,2.448
					C375.479,268.707,375.425,268.716,375.372,268.716z M360.531,268.251c-0.021,0-0.043-0.001-0.064-0.004l-4.96-0.634
					c-0.273-0.035-0.468-0.285-0.433-0.56c0.035-0.274,0.291-0.471,0.56-0.433l4.96,0.634c0.273,0.035,0.468,0.285,0.433,0.56
					C360.994,268.066,360.779,268.251,360.531,268.251z M350.612,266.982c-0.022,0-0.043-0.001-0.064-0.004l-4.96-0.635
					c-0.273-0.035-0.468-0.286-0.433-0.56c0.035-0.273,0.296-0.471,0.56-0.433l4.96,0.635c0.273,0.035,0.468,0.286,0.433,0.56
					C351.075,266.798,350.859,266.982,350.612,266.982z M340.692,265.714c-0.022,0-0.043-0.001-0.065-0.004l-4.959-0.635
					c-0.273-0.035-0.468-0.286-0.433-0.56c0.035-0.273,0.291-0.472,0.56-0.433l4.959,0.635c0.273,0.035,0.468,0.286,0.433,0.56
					C341.155,265.529,340.94,265.714,340.692,265.714z M330.773,264.444c-0.021,0-0.043-0.001-0.064-0.004l-4.959-0.634
					c-0.273-0.035-0.468-0.285-0.433-0.56c0.035-0.273,0.289-0.469,0.56-0.433l4.959,0.634c0.273,0.035,0.468,0.285,0.433,0.56
					C331.236,264.26,331.021,264.444,330.773,264.444z M320.854,263.176c-0.021,0-0.043-0.001-0.064-0.004l-4.96-0.635
					c-0.273-0.035-0.468-0.286-0.433-0.56c0.035-0.273,0.293-0.473,0.56-0.433l4.96,0.635c0.273,0.035,0.468,0.286,0.433,0.56
					C321.317,262.991,321.102,263.176,320.854,263.176z M383.117,262.684c-0.094,0-0.188-0.026-0.272-0.081
					c-0.231-0.15-0.297-0.46-0.146-0.691c0.888-1.365,1.524-2.851,1.893-4.413c0.063-0.267,0.331-0.439,0.601-0.372
					c0.269,0.063,0.436,0.332,0.372,0.601c-0.394,1.676-1.076,3.268-2.027,4.729C383.44,262.603,383.28,262.684,383.117,262.684z
					 M310.935,261.907c-0.021,0-0.043-0.001-0.064-0.004l-4.96-0.635c-0.273-0.035-0.468-0.286-0.433-0.56
					c0.035-0.274,0.288-0.468,0.56-0.433l4.96,0.635c0.274,0.035,0.468,0.285,0.433,0.56
					C311.398,261.723,311.183,261.907,310.935,261.907z M301.017,260.638c-0.022,0-0.043-0.001-0.065-0.004l-4.96-0.634
					c-0.273-0.035-0.468-0.285-0.433-0.56c0.035-0.274,0.295-0.469,0.56-0.433l4.96,0.634c0.273,0.035,0.468,0.285,0.433,0.56
					C301.479,260.453,301.264,260.638,301.017,260.638z M291.097,259.369c-0.022,0-0.043-0.001-0.065-0.004l-4.959-0.635
					c-0.273-0.035-0.468-0.286-0.433-0.56c0.035-0.274,0.289-0.469,0.56-0.433l4.959,0.635c0.273,0.035,0.468,0.286,0.433,0.56
					C291.56,259.185,291.344,259.369,291.097,259.369z M281.178,258.101c-0.022,0-0.043-0.001-0.064-0.004l-4.96-0.635
					c-0.273-0.035-0.468-0.286-0.433-0.56c0.034-0.274,0.285-0.47,0.56-0.433l4.96,0.635c0.273,0.035,0.468,0.286,0.433,0.56
					C281.641,257.916,281.425,258.101,281.178,258.101z M271.259,256.831c-0.021,0-0.043-0.001-0.064-0.004l-4.96-0.634
					c-0.273-0.035-0.468-0.285-0.433-0.56c0.035-0.273,0.292-0.471,0.56-0.433l4.96,0.634c0.273,0.035,0.468,0.285,0.433,0.559
					C271.722,256.647,271.506,256.831,271.259,256.831z M261.34,255.563c-0.021,0-0.043-0.001-0.064-0.004l-4.96-0.634
					c-0.273-0.035-0.468-0.285-0.433-0.56c0.035-0.273,0.292-0.472,0.56-0.433l4.96,0.634c0.273,0.035,0.468,0.285,0.433,0.56
					C261.803,255.378,261.587,255.563,261.34,255.563z M251.42,254.294c-0.021,0-0.043-0.001-0.064-0.004l-4.959-0.635
					c-0.274-0.035-0.468-0.286-0.433-0.56c0.035-0.273,0.293-0.472,0.56-0.433l4.959,0.635c0.273,0.035,0.468,0.286,0.433,0.56
					C251.883,254.109,251.667,254.294,251.42,254.294z M386.028,253.203c-0.031,0-0.063-0.003-0.095-0.009
					c-0.271-0.052-0.449-0.313-0.397-0.585l0.939-4.911c0.052-0.271,0.317-0.447,0.585-0.397c0.271,0.052,0.449,0.314,0.397,0.585
					l-0.938,4.911C386.473,253.036,386.263,253.203,386.028,253.203z M241.501,253.025c-0.021,0-0.043-0.001-0.065-0.004
					l-4.959-0.635c-0.273-0.035-0.468-0.286-0.433-0.56c0.035-0.274,0.288-0.473,0.56-0.433l4.959,0.635
					c0.273,0.035,0.468,0.286,0.433,0.56C241.964,252.841,241.748,253.025,241.501,253.025z M231.582,251.756
					c-0.021,0-0.043-0.001-0.064-0.004l-4.96-0.634c-0.273-0.035-0.468-0.285-0.433-0.56s0.289-0.468,0.56-0.433l4.96,0.634
					c0.273,0.035,0.468,0.285,0.433,0.56C232.045,251.571,231.829,251.756,231.582,251.756z M221.663,250.487
					c-0.021,0-0.043-0.001-0.064-0.004l-4.96-0.635c-0.273-0.035-0.468-0.286-0.433-0.56c0.035-0.274,0.29-0.468,0.559-0.433
					l4.96,0.635c0.273,0.035,0.468,0.285,0.433,0.56C222.126,250.303,221.91,250.487,221.663,250.487z M211.743,249.219
					c-0.021,0-0.043-0.001-0.064-0.004l-4.959-0.635c-0.273-0.035-0.468-0.286-0.433-0.56c0.035-0.274,0.291-0.469,0.56-0.433
					l4.959,0.635c0.273,0.035,0.468,0.286,0.433,0.559C212.206,249.034,211.99,249.219,211.743,249.219z M202.031,247.135
					c-0.08,0-0.161-0.019-0.236-0.06c-1.539-0.824-2.877-1.934-3.977-3.296c-0.173-0.215-0.14-0.529,0.076-0.703
					c0.212-0.172,0.528-0.14,0.702,0.076c1.015,1.257,2.25,2.28,3.671,3.042c0.243,0.13,0.335,0.434,0.204,0.677
					C202.382,247.039,202.209,247.135,202.031,247.135z M387.906,243.381c-0.031,0-0.063-0.003-0.095-0.009
					c-0.271-0.052-0.449-0.314-0.397-0.585l0.938-4.91c0.052-0.271,0.319-0.449,0.585-0.397c0.272,0.052,0.449,0.313,0.397,0.585
					l-0.938,4.91C388.351,243.214,388.141,243.381,387.906,243.381z M195.907,239.565c-0.217,0-0.416-0.141-0.479-0.359
					c-0.365-1.24-0.55-2.532-0.55-3.842c0-0.428,0.02-0.859,0.06-1.293c0.026-0.274,0.253-0.467,0.545-0.451
					c0.274,0.026,0.477,0.27,0.451,0.545c-0.038,0.402-0.056,0.803-0.056,1.199c0,1.214,0.171,2.411,0.509,3.561
					c0.078,0.265-0.073,0.542-0.339,0.62C196.001,239.559,195.954,239.565,195.907,239.565z M389.783,233.56
					c-0.031,0-0.064-0.003-0.095-0.009c-0.272-0.052-0.449-0.313-0.398-0.585l0.94-4.912c0.052-0.272,0.317-0.451,0.585-0.398
					c0.272,0.052,0.449,0.314,0.397,0.585l-0.939,4.912C390.228,233.393,390.018,233.56,389.783,233.56z M196.311,229.697
					c-0.031,0-0.063-0.003-0.095-0.009c-0.271-0.052-0.449-0.314-0.397-0.585l0.939-4.911c0.052-0.272,0.319-0.449,0.585-0.397
					c0.271,0.052,0.449,0.314,0.397,0.585l-0.939,4.911C196.755,229.531,196.545,229.697,196.311,229.697z M391.661,223.737
					c-0.031,0-0.063-0.003-0.095-0.009c-0.272-0.052-0.449-0.314-0.397-0.585l0.938-4.911c0.052-0.272,0.316-0.449,0.585-0.397
					c0.271,0.052,0.449,0.314,0.397,0.585l-0.938,4.911C392.105,223.57,391.896,223.737,391.661,223.737z M198.189,219.875
					c-0.031,0-0.064-0.003-0.095-0.009c-0.271-0.052-0.449-0.314-0.397-0.585l0.938-4.911c0.052-0.271,0.318-0.451,0.585-0.397
					c0.271,0.052,0.449,0.314,0.398,0.585l-0.939,4.911C198.633,219.708,198.423,219.875,198.189,219.875z M393.539,213.915
					c-0.031,0-0.064-0.003-0.095-0.009c-0.271-0.052-0.449-0.314-0.397-0.585l0.939-4.911c0.052-0.271,0.318-0.451,0.585-0.398
					c0.271,0.052,0.449,0.314,0.397,0.585l-0.939,4.911C393.983,213.749,393.773,213.915,393.539,213.915z M200.066,210.053
					c-0.031,0-0.064-0.003-0.095-0.009c-0.271-0.052-0.449-0.314-0.397-0.585l0.938-4.911c0.052-0.272,0.316-0.448,0.585-0.397
					c0.271,0.052,0.449,0.314,0.397,0.585l-0.939,4.911C200.511,209.886,200.301,210.053,200.066,210.053z M395.354,204.083
					c-0.016,0-0.031,0-0.047-0.002c-0.275-0.025-0.477-0.269-0.452-0.544c0.038-0.408,0.057-0.813,0.057-1.213
					c0-1.208-0.17-2.402-0.506-3.547c-0.078-0.265,0.074-0.542,0.339-0.621c0.267-0.08,0.543,0.075,0.62,0.339
					c0.363,1.237,0.547,2.525,0.547,3.829c0,0.431-0.021,0.866-0.061,1.305C395.827,203.888,395.609,204.083,395.354,204.083z
					 M201.943,200.23c-0.031,0-0.064-0.003-0.095-0.009c-0.271-0.052-0.449-0.314-0.397-0.585l0.939-4.911
					c0.052-0.271,0.318-0.45,0.585-0.398c0.271,0.052,0.449,0.314,0.397,0.585l-0.939,4.911
					C202.388,200.064,202.178,200.23,201.943,200.23z M392.59,194.732c-0.146,0-0.291-0.064-0.39-0.187
					c-1.014-1.258-2.247-2.283-3.667-3.045c-0.243-0.13-0.335-0.434-0.204-0.677c0.13-0.244,0.435-0.335,0.677-0.204
					c1.538,0.826,2.875,1.936,3.974,3.299c0.173,0.215,0.139,0.53-0.076,0.703C392.811,194.696,392.7,194.732,392.59,194.732z
					 M203.821,190.409c-0.031,0-0.064-0.003-0.095-0.009c-0.271-0.052-0.449-0.314-0.397-0.585l0.938-4.911
					c0.052-0.272,0.317-0.448,0.585-0.397c0.271,0.052,0.449,0.314,0.398,0.585l-0.939,4.911
					C204.266,190.242,204.056,190.409,203.821,190.409z M384.021,190.107c-0.022,0-0.043-0.001-0.064-0.004l-4.959-0.635
					c-0.273-0.035-0.468-0.286-0.433-0.56c0.034-0.274,0.285-0.463,0.559-0.433l4.959,0.635c0.273,0.035,0.468,0.286,0.433,0.56
					C384.483,189.923,384.268,190.107,384.021,190.107z M374.102,188.838c-0.021,0-0.043-0.002-0.064-0.004l-4.96-0.635
					c-0.273-0.035-0.468-0.286-0.433-0.56c0.035-0.274,0.293-0.464,0.56-0.433l4.96,0.635c0.273,0.035,0.468,0.286,0.433,0.56
					C374.565,188.654,374.349,188.838,374.102,188.838z M364.183,187.569c-0.021,0-0.043-0.001-0.064-0.004l-4.96-0.634
					c-0.273-0.035-0.468-0.286-0.433-0.56c0.035-0.274,0.288-0.465,0.56-0.433l4.96,0.634c0.273,0.035,0.468,0.286,0.433,0.559
					C364.646,187.385,364.43,187.569,364.183,187.569z M354.264,186.3c-0.022,0-0.043-0.002-0.065-0.004l-4.96-0.634
					c-0.273-0.035-0.468-0.286-0.433-0.56c0.035-0.274,0.295-0.465,0.56-0.433l4.96,0.634c0.273,0.035,0.468,0.286,0.433,0.56
					C354.727,186.116,354.511,186.3,354.264,186.3z M324.479,182.49c-0.021,0-0.043-0.001-0.064-0.004l-4.959-0.634
					c-0.273-0.035-0.468-0.286-0.433-0.56c0.035-0.274,0.293-0.464,0.56-0.433l4.959,0.634c0.273,0.035,0.468,0.286,0.433,0.56
					C324.942,182.306,324.727,182.49,324.479,182.49z M314.56,181.221c-0.021,0-0.043-0.002-0.064-0.004l-4.96-0.635
					c-0.273-0.035-0.468-0.286-0.433-0.56c0.035-0.274,0.288-0.464,0.56-0.433l4.96,0.635c0.274,0.035,0.468,0.286,0.433,0.56
					C315.023,181.037,314.808,181.221,314.56,181.221z M205.71,180.589c-0.037,0-0.075-0.004-0.114-0.013
					c-0.269-0.063-0.436-0.332-0.373-0.601c0.392-1.675,1.073-3.267,2.024-4.732c0.151-0.232,0.462-0.295,0.691-0.147
					c0.231,0.15,0.297,0.46,0.146,0.692c-0.888,1.368-1.524,2.853-1.888,4.415C206.143,180.433,205.938,180.589,205.71,180.589z
					 M304.642,179.952c-0.022,0-0.043-0.001-0.065-0.004l-4.96-0.634c-0.273-0.035-0.468-0.286-0.433-0.56
					c0.035-0.274,0.295-0.465,0.56-0.433l4.96,0.634c0.273,0.035,0.468,0.286,0.433,0.559
					C305.104,179.768,304.889,179.952,304.642,179.952z M294.723,178.683c-0.021,0-0.043-0.002-0.064-0.004l-4.96-0.634
					c-0.273-0.035-0.468-0.286-0.433-0.56c0.035-0.274,0.29-0.466,0.56-0.433l4.96,0.634c0.273,0.035,0.468,0.286,0.433,0.56
					C295.185,178.499,294.97,178.683,294.723,178.683z M284.803,177.415c-0.022,0-0.043-0.001-0.064-0.004l-4.959-0.635
					c-0.273-0.035-0.468-0.286-0.433-0.56c0.034-0.274,0.284-0.466,0.559-0.433l4.959,0.635c0.273,0.035,0.468,0.286,0.433,0.559
					C285.266,177.23,285.05,177.415,284.803,177.415z M274.884,176.145c-0.021,0-0.043-0.001-0.064-0.004l-4.959-0.634
					c-0.273-0.035-0.468-0.286-0.433-0.559c0.035-0.275,0.291-0.461,0.56-0.433l4.959,0.634c0.273,0.035,0.468,0.286,0.433,0.56
					C275.347,175.961,275.131,176.145,274.884,176.145z M264.965,174.876c-0.021,0-0.043-0.001-0.064-0.004l-4.96-0.634
					c-0.273-0.035-0.468-0.286-0.433-0.56c0.035-0.275,0.293-0.461,0.56-0.433l4.96,0.634c0.273,0.035,0.468,0.286,0.433,0.559
					C265.428,174.692,265.212,174.876,264.965,174.876z M255.046,173.608c-0.021,0-0.043-0.001-0.064-0.004l-4.96-0.635
					c-0.273-0.035-0.468-0.286-0.433-0.559c0.035-0.274,0.287-0.462,0.56-0.433l4.96,0.635c0.273,0.035,0.468,0.286,0.433,0.56
					C255.509,173.424,255.293,173.608,255.046,173.608z M211.031,172.349c-0.148,0-0.296-0.066-0.394-0.192
					c-0.171-0.217-0.132-0.532,0.086-0.702c1.375-1.074,2.895-1.899,4.52-2.452c0.262-0.09,0.545,0.05,0.635,0.312
					c0.089,0.261-0.051,0.546-0.313,0.634c-1.519,0.517-2.94,1.289-4.228,2.294C211.248,172.314,211.14,172.349,211.031,172.349z
					 M245.126,172.339c-0.021,0-0.043-0.001-0.065-0.004l-4.959-0.634c-0.273-0.035-0.468-0.286-0.433-0.56
					c0.035-0.274,0.288-0.463,0.56-0.433l4.959,0.634c0.273,0.035,0.468,0.286,0.433,0.559
					C245.589,172.155,245.373,172.339,245.126,172.339z M235.207,171.07c-0.021,0-0.043-0.001-0.064-0.004l-4.959-0.634
					c-0.273-0.035-0.468-0.286-0.433-0.559c0.035-0.274,0.289-0.463,0.559-0.433l4.959,0.634c0.273,0.035,0.468,0.286,0.433,0.56
					C235.67,170.886,235.454,171.07,235.207,171.07z M225.288,169.801c-0.021,0-0.043-0.001-0.064-0.004l-3.674-0.47
					c-0.415-0.053-0.83-0.085-1.243-0.098c-0.275-0.009-0.492-0.239-0.484-0.515c0.009-0.271,0.23-0.485,0.5-0.485
					c0.005,0,0.01,0,0.016,0.001c0.444,0.013,0.891,0.048,1.339,0.105l3.674,0.47c0.273,0.035,0.468,0.286,0.433,0.56
					C225.751,169.617,225.535,169.801,225.288,169.801z"/>
			</g>
			<g>
				<path style="fill:#263238;" d="M264.708,197.369l-37.293-4.771c-1.131-0.145-1.878-1.196-1.66-2.337l0,0
					c0.218-1.14,1.322-1.955,2.453-1.81l37.293,4.771c1.131,0.145,1.878,1.196,1.66,2.337l0,0
					C266.943,196.699,265.839,197.514,264.708,197.369z"/>
				<path style="fill:#407BFF;" d="M311.906,237.395l-78.494-10.041c-1.131-0.145-2.235,0.67-2.453,1.811l0,0
					c-0.218,1.14,0.529,2.192,1.66,2.337l78.494,10.041c1.131,0.145,2.235-0.67,2.453-1.811l0,0
					C313.785,238.591,313.038,237.539,311.906,237.395z"/>
				<path style="fill:#407BFF;" d="M264.515,218.587l-28.724-3.674c-1.131-0.145-2.235,0.67-2.453,1.81l0,0
					c-0.218,1.14,0.529,2.192,1.66,2.337l28.724,3.674c1.131,0.145,2.235-0.67,2.453-1.811l0,0
					C266.393,219.783,265.646,218.731,264.515,218.587z"/>
				<path style="fill:#407BFF;" d="M292.121,209.373l-53.952-6.902c-1.131-0.145-2.235,0.67-2.453,1.81l0,0
					c-0.218,1.141,0.529,2.192,1.66,2.337l53.952,6.902c1.131,0.145,2.235-0.67,2.453-1.81l0,0
					C293.999,210.569,293.252,209.517,292.121,209.373z"/>
				<path style="fill:#407BFF;" d="M361.223,218.212l-53.952-6.902c-1.131-0.145-2.235,0.67-2.453,1.81l0,0
					c-0.218,1.14,0.529,2.192,1.66,2.337l53.952,6.902c1.131,0.145,2.235-0.67,2.453-1.81l0,0
					C363.101,219.409,362.354,218.357,361.223,218.212z"/>
				<path style="fill:#407BFF;" d="M333.823,227.453l-53.404-6.831c-1.131-0.145-2.235,0.67-2.453,1.81l0,0
					c-0.218,1.141,0.529,2.192,1.66,2.337l53.403,6.832c1.131,0.145,2.235-0.67,2.453-1.81l0,0
					C335.701,228.649,334.954,227.597,333.823,227.453z"/>
			</g>
			<path style="fill:#407BFF;" d="M336.962,183.639l8.858-2.787c0,0-4.348-1.387-6.725-0.282c-1.505,0.7-2.288,1.687-3.216,2.493
				l-4.183-2.223c0.422-0.048,0.774-0.236,0.957-0.552c0.136-0.235,0.159-0.508,0.089-0.784c-0.121-0.473-0.52-0.954-1.109-1.267
				c-0.932-0.495-1.986-0.38-2.355,0.257c-0.136,0.235-0.16,0.508-0.089,0.784c0.121,0.473,0.52,0.954,1.109,1.267
				c0,0,1.942,1.032,3.884,2.064c0.477,0.253,0.837,0.557,1.141,0.894c-0.394,0.278-0.834,0.517-1.372,0.686
				c-2.194,0.69-4.389,1.381-4.389,1.381c-1.053,0.331-1.765,1.153-1.589,1.835c0.175,0.682,1.171,0.967,2.224,0.636
				s1.765-1.153,1.589-1.835c-0.087-0.339-0.376-0.579-0.774-0.695l4.727-1.487c0.673,0.938,1.151,2.03,2.418,2.959
				c2,1.467,6.646,0.823,6.646,0.823L336.962,183.639z M329.671,179.128c-0.028-0.11-0.045-0.27,0.033-0.406
				c0.195-0.337,0.952-0.427,1.674-0.043c0.451,0.24,0.789,0.614,0.882,0.978c0.028,0.11,0.045,0.27-0.033,0.406
				c-0.089,0.153-0.294,0.258-0.562,0.287c-0.343,0.038-0.749-0.051-1.111-0.244C330.102,179.866,329.764,179.491,329.671,179.128z
				 M331.304,186.358c0.093,0.361-0.413,0.955-1.229,1.212c-0.816,0.257-1.529,0.045-1.621-0.315
				c-0.092-0.361,0.413-0.955,1.229-1.212C330.499,185.786,331.212,185.998,331.304,186.358z"/>
		</g>
		<path style="fill:#FF8B7B;" d="M211.007,173.312l-2.984-0.366c-1.122-0.138-2.242,0.275-3.006,1.109l-3.569,3.897
			c-1.427,1.558-2.011,3.71-1.567,5.776l0.275,1.279c4.908,0.946,10.909-1.648,10.909-1.648l1.793-0.549
			c1.596-0.49,2.478-2.062,2.025-3.611l-1.043-3.566C213.478,174.4,212.352,173.477,211.007,173.312z"/>
		<path style="fill:#263238;" d="M164.483,155.94c6.428,1.658,12.287,6.487,16.315,20.137c-2.908,4.652-14.709,8.204-14.709,8.204
			S155.125,166.795,164.483,155.94z"/>
	</g>
</g>
<g id="Plant">
	<g>
		<g>
			<path style="fill:#263238;" d="M359.625,372.611c-0.224,0-0.427-0.15-0.484-0.376c-0.093-0.362-9.211-36.444-5.685-57.369
				c0.046-0.272,0.309-0.453,0.576-0.41c0.273,0.046,0.456,0.304,0.41,0.576c-3.49,20.716,5.576,56.596,5.668,56.955
				c0.068,0.268-0.093,0.54-0.36,0.608C359.707,372.606,359.666,372.611,359.625,372.611z"/>
			<path style="fill:#263238;" d="M353.506,318.742c-0.258,0-0.477-0.198-0.497-0.461c-0.022-0.275,0.184-0.516,0.459-0.537
				c0.477-0.038,1.768-0.283,3.453-1.745c0.206-0.181,0.524-0.158,0.705,0.051c0.181,0.208,0.158,0.524-0.051,0.705
				c-1.909,1.655-3.453,1.94-4.029,1.985C353.533,318.741,353.52,318.742,353.506,318.742z"/>
			<path style="fill:#263238;" d="M353.315,325.013c-0.219,0-0.42-0.145-0.482-0.365c-0.074-0.267,0.081-0.542,0.347-0.616
				c1.619-0.451,3.094-1.337,4.384-2.633c0.195-0.197,0.512-0.195,0.707-0.002c0.196,0.195,0.196,0.512,0.002,0.707
				c-1.414,1.42-3.036,2.393-4.823,2.891C353.404,325.007,353.358,325.013,353.315,325.013z"/>
			<path style="fill:#263238;" d="M353.392,331.872c-0.18,0-0.353-0.097-0.442-0.267c-0.129-0.245-0.035-0.547,0.209-0.676
				c2.629-1.385,5.043-3.328,7.176-5.775c0.181-0.211,0.497-0.231,0.705-0.049c0.209,0.182,0.23,0.497,0.049,0.705
				c-2.215,2.542-4.726,4.562-7.463,6.004C353.551,331.853,353.471,331.872,353.392,331.872z"/>
			<path style="fill:#263238;" d="M353.727,337.169c-0.238,0-0.449-0.171-0.491-0.413c-0.048-0.272,0.134-0.531,0.405-0.579
				c3.319-0.583,6.225-2.347,8.634-5.243c0.179-0.212,0.495-0.239,0.704-0.065c0.213,0.177,0.241,0.492,0.065,0.704
				c-2.566,3.084-5.671,4.965-9.229,5.589C353.785,337.167,353.756,337.169,353.727,337.169z"/>
			<path style="fill:#263238;" d="M355.602,344.069c-0.454,0-0.892-0.056-1.308-0.169c-0.267-0.072-0.424-0.347-0.352-0.613
				c0.072-0.266,0.345-0.423,0.613-0.352c1.594,0.43,3.623-0.177,5.867-1.762c0.223-0.159,0.536-0.107,0.696,0.12
				c0.159,0.226,0.105,0.537-0.12,0.696C359.054,343.365,357.214,344.069,355.602,344.069z"/>
			<path style="fill:#263238;" d="M356.247,351.694c-0.354,0-0.714-0.067-1.078-0.23c-0.252-0.113-0.364-0.409-0.251-0.661
				c0.113-0.251,0.405-0.366,0.661-0.251c0.769,0.347,1.549,0.024,2.746-0.542c0.244-0.116,0.547-0.013,0.666,0.238
				c0.118,0.249,0.012,0.547-0.238,0.666C357.94,351.3,357.106,351.694,356.247,351.694z"/>
			<path style="fill:#263238;" d="M359.032,367.658c-0.19,0-0.387-0.017-0.587-0.055c-0.272-0.052-0.449-0.313-0.397-0.585
				c0.052-0.271,0.317-0.447,0.585-0.397c0.522,0.099,1.038-0.021,1.565-0.163c2.444-0.664,4.78-1.756,6.944-3.246
				c0.224-0.155,0.536-0.101,0.695,0.129c0.156,0.228,0.099,0.538-0.129,0.695c-2.257,1.554-4.695,2.693-7.249,3.387
				C360.011,367.545,359.537,367.658,359.032,367.658z"/>
			<path style="fill:#263238;" d="M353.075,320.726c-0.086,0-0.173-0.021-0.252-0.068c-0.593-0.346-1.124-0.989-1.456-1.766
				c-0.108-0.254,0.01-0.547,0.264-0.656c0.252-0.109,0.548,0.01,0.656,0.264c0.245,0.574,0.635,1.058,1.04,1.295
				c0.238,0.139,0.319,0.445,0.18,0.684C353.414,320.637,353.247,320.726,353.075,320.726z"/>
			<path style="fill:#263238;" d="M352.991,329.077c-0.024,0-0.048-0.002-0.072-0.005c-1.183-0.17-2.311-0.902-2.904-1.553
				c-0.186-0.204-0.172-0.521,0.032-0.706c0.204-0.188,0.521-0.172,0.706,0.032c0.458,0.502,1.376,1.103,2.309,1.236
				c0.273,0.039,0.463,0.293,0.424,0.566C353.449,328.897,353.235,329.077,352.991,329.077z"/>
			<path style="fill:#263238;" d="M352.914,334.643c-1.86,0-3.817-1.308-5.164-3.474c-0.146-0.234-0.073-0.542,0.161-0.688
				c0.233-0.143,0.542-0.073,0.689,0.161c1.196,1.926,3.006,3.109,4.513,2.994c0.256-0.03,0.514,0.188,0.533,0.465
				c0.019,0.275-0.189,0.515-0.465,0.533C353.092,334.64,353.003,334.643,352.914,334.643z"/>
			<path style="fill:#263238;" d="M352.978,341.065c-1.554,0-3.141-1.04-4.408-2.009c-1.104-0.844-2.195-1.784-3.244-2.794
				c-0.199-0.191-0.205-0.509-0.014-0.707c0.193-0.2,0.51-0.203,0.707-0.014c1.021,0.984,2.084,1.899,3.158,2.72
				c1.326,1.015,3.032,2.123,4.422,1.717c0.27-0.077,0.544,0.072,0.621,0.338c0.078,0.266-0.073,0.543-0.338,0.621
				C353.583,341.025,353.28,341.065,352.978,341.065z"/>
			<path style="fill:#263238;" d="M352.41,348.295c-1.896,0-4.413-0.521-6.384-2.028c-0.22-0.168-0.261-0.481-0.094-0.701
				c0.169-0.22,0.482-0.261,0.701-0.094c2.637,2.016,6.435,2.086,7.644,1.558c0.254-0.108,0.548,0.005,0.658,0.258
				c0.11,0.253-0.005,0.548-0.258,0.658C354.191,348.158,353.383,348.295,352.41,348.295z"/>
			<path style="fill:#263238;" d="M354.344,356.611c-2.526,0-5.566-0.985-7.938-2.651c-0.227-0.159-0.28-0.471-0.122-0.696
				c0.159-0.227,0.473-0.28,0.696-0.122c2.688,1.888,6.416,2.862,8.863,2.318c0.273-0.06,0.537,0.11,0.597,0.38
				c0.059,0.27-0.11,0.537-0.38,0.597C355.528,356.555,354.95,356.611,354.344,356.611z"/>
			<path style="fill:#263238;" d="M356.221,365.181c-1.017,0-2.157-0.191-3.481-0.579c-2.005-0.587-4.547-1.582-6.428-4.09
				c-0.165-0.221-0.12-0.534,0.101-0.7c0.22-0.164,0.533-0.121,0.7,0.101c1.693,2.258,3.936,3.152,5.908,3.73
				c1.976,0.578,3.477,0.688,4.727,0.345c0.271-0.071,0.542,0.084,0.614,0.351c0.073,0.266-0.084,0.541-0.351,0.614
				C357.455,365.104,356.863,365.181,356.221,365.181z"/>
			<path style="fill:#407BFF;" d="M347.403,335.902c0,0.956-0.775,1.731-1.731,1.731c-0.956,0-1.731-0.775-1.731-1.731
				c0-0.956,0.775-1.731,1.731-1.731C346.628,334.171,347.403,334.946,347.403,335.902z"/>
			<path style="fill:#407BFF;" d="M359.611,321.751c0,0.956-0.775,1.731-1.731,1.731c-0.956,0-1.731-0.775-1.731-1.731
				c0-0.956,0.775-1.731,1.731-1.731C358.836,320.02,359.611,320.795,359.611,321.751z"/>
			<path style="fill:#407BFF;" d="M355.759,314.949c0,0.956-0.775,1.731-1.731,1.731c-0.956,0-1.731-0.775-1.731-1.731
				c0-0.956,0.775-1.731,1.731-1.731C354.983,313.217,355.759,313.993,355.759,314.949z"/>
			<path style="fill:#407BFF;" d="M348.423,353.551c0,0.956-0.775,1.731-1.731,1.731c-0.956,0-1.731-0.775-1.731-1.731
				c0-0.956,0.775-1.731,1.731-1.731C347.648,351.82,348.423,352.595,348.423,353.551z"/>
		</g>
		<g>
			<path style="fill:#263238;" d="M371.443,371.258c-0.025,0-0.051-0.002-0.076-0.006c-0.272-0.041-0.461-0.296-0.419-0.569
				c0.075-0.494,7.679-49.651,22.701-72.651c0.152-0.232,0.464-0.294,0.692-0.146c0.231,0.151,0.296,0.461,0.146,0.692
				c-14.903,22.817-22.476,71.763-22.551,72.255C371.899,371.08,371.685,371.258,371.443,371.258z"/>
			<path style="fill:#263238;" d="M394.489,302.964c-1.44,0-2.399-0.314-2.847-0.505c-0.254-0.107-0.373-0.401-0.265-0.655
				c0.108-0.255,0.404-0.372,0.655-0.265c0.61,0.258,2.336,0.782,5.152,0.063c0.271-0.069,0.54,0.094,0.608,0.36
				c0.068,0.268-0.093,0.54-0.36,0.608C396.298,302.86,395.315,302.964,394.489,302.964z"/>
			<path style="fill:#263238;" d="M391.022,310.22c-0.923,0-1.842-0.098-2.754-0.292c-0.27-0.058-0.442-0.323-0.385-0.594
				c0.059-0.271,0.33-0.435,0.594-0.385c2.209,0.472,4.466,0.324,6.709-0.439c0.261-0.087,0.545,0.051,0.635,0.313
				c0.089,0.262-0.051,0.546-0.313,0.635C394.016,309.965,392.515,310.22,391.022,310.22z"/>
			<path style="fill:#263238;" d="M384.931,318.256c-0.275,0-0.498-0.222-0.5-0.496c-0.002-0.276,0.22-0.502,0.496-0.504
				c3.9-0.03,7.826-0.868,11.669-2.491c0.252-0.104,0.547,0.011,0.655,0.267c0.107,0.254-0.012,0.548-0.267,0.655
				c-3.964,1.674-8.019,2.538-12.05,2.569C384.934,318.256,384.932,318.256,384.931,318.256z"/>
			<path style="fill:#263238;" d="M388.021,335.158c-1.764,0-3.515-0.204-5.244-0.612c-1.046-0.246-2.033-0.479-3.095-1.214
				c-0.228-0.157-0.284-0.469-0.127-0.695c0.156-0.228,0.468-0.285,0.695-0.127c0.906,0.627,1.723,0.819,2.757,1.063
				c3.434,0.81,6.964,0.778,10.489-0.095c0.271-0.066,0.538,0.098,0.605,0.365c0.066,0.267-0.097,0.539-0.365,0.605
				C391.828,334.922,389.917,335.158,388.021,335.158z"/>
			<path style="fill:#263238;" d="M385.651,344.799c-1.975,0-3.939-0.202-5.88-0.606c-0.899-0.187-1.938-0.442-2.87-1.125
				c-0.223-0.163-0.271-0.477-0.107-0.699c0.163-0.223,0.476-0.27,0.699-0.107c0.77,0.564,1.685,0.788,2.481,0.953
				c4.102,0.853,8.308,0.773,12.5-0.241c0.271-0.06,0.539,0.101,0.603,0.369c0.065,0.269-0.101,0.538-0.369,0.604
				C390.354,344.514,387.995,344.799,385.651,344.799z"/>
			<path style="fill:#263238;" d="M382.149,355.283c-0.587,0-1.173-0.018-1.756-0.054c-1.688-0.102-3.883-0.376-5.87-1.584
				c-0.236-0.143-0.311-0.451-0.168-0.688c0.145-0.235,0.453-0.31,0.688-0.168c1.8,1.095,3.838,1.346,5.411,1.441
				c2.669,0.163,5.376-0.061,8.061-0.662c1.387-0.311,3.193-0.811,4.871-1.918c0.23-0.153,0.54-0.089,0.692,0.142
				c0.152,0.23,0.089,0.541-0.142,0.692c-1.814,1.197-3.733,1.729-5.203,2.06C386.545,355.036,384.337,355.283,382.149,355.283z"/>
			<path style="fill:#263238;" d="M381.302,366.156c-2.172,0-4.329-0.235-6.451-0.704c-0.814-0.18-1.673-0.405-2.446-1.004
				c-0.218-0.169-0.258-0.483-0.089-0.702c0.17-0.218,0.483-0.257,0.702-0.089c0.608,0.472,1.346,0.663,2.049,0.818
				c3.302,0.73,6.699,0.874,10.09,0.426c1.143-0.15,2.089-0.351,2.995-0.838c0.242-0.128,0.547-0.04,0.677,0.204
				c0.131,0.243,0.039,0.546-0.204,0.677c-1.101,0.592-2.254,0.806-3.337,0.949C383.958,366.068,382.627,366.156,381.302,366.156z"
				/>
			<path style="fill:#263238;" d="M390.296,304.621c-0.159,0-0.316-0.076-0.413-0.219c-0.51-0.749-0.803-1.808-0.803-2.905
				c0-0.276,0.224-0.5,0.5-0.5c0.276,0,0.5,0.224,0.5,0.5c0,0.901,0.229,1.756,0.629,2.343c0.155,0.229,0.097,0.539-0.132,0.694
				C390.491,304.593,390.394,304.621,390.296,304.621z"/>
			<path style="fill:#263238;" d="M385.506,314.457c-0.277-0.328-0.56-0.663-0.8-1.087c-0.755-1.331-0.956-3.402-0.54-5.538
				c0.054-0.272,0.317-0.444,0.587-0.396c0.272,0.054,0.448,0.316,0.396,0.587c-0.367,1.881-0.203,3.74,0.428,4.854
				c0.194,0.344,0.435,0.629,0.69,0.932L385.506,314.457z"/>
			<path style="fill:#263238;" d="M383.211,321.433c-0.067,0-0.135-0.014-0.2-0.042c-2.332-1.02-4.104-3.849-4.623-7.383
				c-0.04-0.272,0.149-0.526,0.423-0.567c0.27-0.031,0.526,0.148,0.567,0.423c0.462,3.146,2.046,5.742,4.033,6.611
				c0.253,0.11,0.368,0.405,0.258,0.658C383.587,321.32,383.403,321.433,383.211,321.433z"/>
			<path style="fill:#263238;" d="M380.668,329.426c-0.033,0-0.065-0.003-0.099-0.01c-2.39-0.475-4.079-3.17-5.284-5.466
				c-0.891-1.694-1.718-3.501-2.461-5.369c-0.102-0.257,0.023-0.547,0.28-0.649c0.255-0.101,0.547,0.022,0.649,0.28
				c0.729,1.835,1.543,3.609,2.416,5.273c1.102,2.099,2.62,4.558,4.595,4.95c0.271,0.054,0.446,0.317,0.393,0.588
				C381.11,329.261,380.901,329.426,380.668,329.426z"/>
			<path style="fill:#263238;" d="M377.932,338.36c-0.048,0-0.097-0.007-0.145-0.022c-1.701-0.516-3.629-1.1-5.225-2.57
				c-0.203-0.187-0.216-0.503-0.028-0.706c0.186-0.202,0.504-0.215,0.706-0.028c1.427,1.314,3.16,1.84,4.836,2.348
				c0.265,0.08,0.414,0.359,0.334,0.623C378.345,338.222,378.147,338.36,377.932,338.36z"/>
			<path style="fill:#263238;" d="M375.348,349.479c-0.043,0-0.087-0.006-0.131-0.018c-3.57-0.965-7.777-4.626-10.229-8.904
				c-0.138-0.24-0.055-0.546,0.185-0.683c0.239-0.137,0.546-0.057,0.683,0.185c2.294,4.002,6.342,7.551,9.624,8.438
				c0.267,0.071,0.424,0.347,0.352,0.613C375.771,349.333,375.568,349.479,375.348,349.479z"/>
			<path style="fill:#263238;" d="M373.278,360.957c-0.035,0-0.071-0.004-0.106-0.012c-1.9-0.415-3.832-1.579-6.081-3.663
				c-2.088-1.935-4.607-4.685-5.567-8.818c-0.063-0.27,0.105-0.538,0.374-0.601c0.271-0.062,0.538,0.106,0.6,0.374
				c0.893,3.846,3.166,6.359,5.273,8.311c2.112,1.958,3.896,3.045,5.614,3.421c0.271,0.059,0.441,0.325,0.382,0.595
				C373.716,360.798,373.509,360.957,373.278,360.957z"/>
			<path style="fill:#407BFF;" d="M395.348,333.964c0,0.956-0.775,1.731-1.731,1.731c-0.956,0-1.731-0.775-1.731-1.731
				c0-0.956,0.775-1.731,1.731-1.731C394.573,332.233,395.348,333.008,395.348,333.964z"/>
			<path style="fill:#407BFF;" d="M367.152,340.308c0,0.956-0.775,1.731-1.731,1.731c-0.956,0-1.731-0.775-1.731-1.731
				c0-0.956,0.775-1.731,1.731-1.731C366.377,338.577,367.152,339.352,367.152,340.308z"/>
			<path style="fill:#407BFF;" d="M380.614,313.936c0,0.956-0.775,1.731-1.731,1.731c-0.956,0-1.731-0.775-1.731-1.731
				c0-0.956,0.775-1.731,1.731-1.731C379.839,312.205,380.614,312.98,380.614,313.936z"/>
			<path style="fill:#407BFF;" d="M399.041,302.086c0,0.956-0.775,1.731-1.731,1.731c-0.956,0-1.731-0.775-1.731-1.731
				c0-0.956,0.775-1.731,1.731-1.731C398.266,300.355,399.041,301.13,399.041,302.086z"/>
		</g>
		<path style="fill:#407BFF;" d="M350.05,371.081h36.432c1.719,0,3.001,1.743,2.644,3.594l-7.571,39.195
			c-0.265,1.374-1.368,2.356-2.644,2.356h-21.289c-1.276,0-2.379-0.982-2.644-2.356l-7.571-39.195
			C347.049,372.824,348.331,371.081,350.05,371.081z"/>
	</g>
</g>
</svg>
